<?xml version="1.0" encoding="utf-8" standalone="no"?>
<!DOCTYPE svg PUBLIC "-//W3C//DTD SVG 1.1//EN"
  "http://www.w3.org/Graphics/SVG/1.1/DTD/svg11.dtd">
<svg xmlns:xlink="http://www.w3.org/1999/xlink" width="584.21296pt" height="296.39952pt" viewBox="0 0 584.21296 296.39952" xmlns="http://www.w3.org/2000/svg" version="1.1">
 <metadata>
  <rdf:RDF xmlns:dc="http://purl.org/dc/elements/1.1/" xmlns:cc="http://creativecommons.org/ns#" xmlns:rdf="http://www.w3.org/1999/02/22-rdf-syntax-ns#">
   <cc:Work>
    <dc:type rdf:resource="http://purl.org/dc/dcmitype/StillImage"/>
    <dc:date>2024-11-20T14:56:09.456261</dc:date>
    <dc:format>image/svg+xml</dc:format>
    <dc:creator>
     <cc:Agent>
      <dc:title>Matplotlib v3.8.4, https://matplotlib.org/</dc:title>
     </cc:Agent>
    </dc:creator>
   </cc:Work>
  </rdf:RDF>
 </metadata>
 <defs>
  <style type="text/css">*{stroke-linejoin: round; stroke-linecap: butt}</style>
 </defs>
 <g id="figure_1">
  <g id="patch_1">
   <path d="M 0 296.39952 
L 584.21296 296.39952 
L 584.21296 0 
L 0 0 
z
" style="fill: #ffffff"/>
  </g>
  <g id="axes_1">
   <g id="patch_2">
    <path d="M 38.078281 167.726059 
L 275.333818 167.726059 
L 275.333818 41.127855 
L 38.078281 41.127855 
z
" style="fill: #ffffff"/>
   </g>
   <g id="matplotlib.axis_1">
    <g id="xtick_1">
     <g id="line2d_1">
      <defs>
       <path id="m2e5fdfb577" d="M 0 0 
L 0 6 
" style="stroke: #262626; stroke-width: 1.25"/>
      </defs>
      <g>
       <use xlink:href="#m2e5fdfb577" x="48.861094" y="167.726059" style="fill: #262626; stroke: #262626; stroke-width: 1.25"/>
      </g>
     </g>
     <g id="text_1">
      <!-- 0 -->
      <g style="fill: #262626" transform="translate(45.802579 185.099653) scale(0.11 -0.11)">
       <defs>
        <path id="ArialMT-30" d="M 266 2259 
Q 266 3072 433 3567 
Q 600 4063 929 4331 
Q 1259 4600 1759 4600 
Q 2128 4600 2406 4451 
Q 2684 4303 2865 4023 
Q 3047 3744 3150 3342 
Q 3253 2941 3253 2259 
Q 3253 1453 3087 958 
Q 2922 463 2592 192 
Q 2263 -78 1759 -78 
Q 1097 -78 719 397 
Q 266 969 266 2259 
z
M 844 2259 
Q 844 1131 1108 757 
Q 1372 384 1759 384 
Q 2147 384 2411 759 
Q 2675 1134 2675 2259 
Q 2675 3391 2411 3762 
Q 2147 4134 1753 4134 
Q 1366 4134 1134 3806 
Q 844 3388 844 2259 
z
" transform="scale(0.015625)"/>
       </defs>
       <use xlink:href="#ArialMT-30"/>
      </g>
     </g>
    </g>
    <g id="xtick_2">
     <g id="line2d_2">
      <g>
       <use xlink:href="#m2e5fdfb577" x="98.20395" y="167.726059" style="fill: #262626; stroke: #262626; stroke-width: 1.25"/>
      </g>
     </g>
     <g id="text_2">
      <!-- 1000 -->
      <g style="fill: #262626" transform="translate(85.969888 185.099653) scale(0.11 -0.11)">
       <defs>
        <path id="ArialMT-31" d="M 2384 0 
L 1822 0 
L 1822 3584 
Q 1619 3391 1289 3197 
Q 959 3003 697 2906 
L 697 3450 
Q 1169 3672 1522 3987 
Q 1875 4303 2022 4600 
L 2384 4600 
L 2384 0 
z
" transform="scale(0.015625)"/>
       </defs>
       <use xlink:href="#ArialMT-31"/>
       <use xlink:href="#ArialMT-30" x="55.615234"/>
       <use xlink:href="#ArialMT-30" x="111.230469"/>
       <use xlink:href="#ArialMT-30" x="166.845703"/>
      </g>
     </g>
    </g>
    <g id="xtick_3">
     <g id="line2d_3">
      <g>
       <use xlink:href="#m2e5fdfb577" x="147.546807" y="167.726059" style="fill: #262626; stroke: #262626; stroke-width: 1.25"/>
      </g>
     </g>
     <g id="text_3">
      <!-- 2000 -->
      <g style="fill: #262626" transform="translate(135.312744 185.099653) scale(0.11 -0.11)">
       <defs>
        <path id="ArialMT-32" d="M 3222 541 
L 3222 0 
L 194 0 
Q 188 203 259 391 
Q 375 700 629 1000 
Q 884 1300 1366 1694 
Q 2113 2306 2375 2664 
Q 2638 3022 2638 3341 
Q 2638 3675 2398 3904 
Q 2159 4134 1775 4134 
Q 1369 4134 1125 3890 
Q 881 3647 878 3216 
L 300 3275 
Q 359 3922 746 4261 
Q 1134 4600 1788 4600 
Q 2447 4600 2831 4234 
Q 3216 3869 3216 3328 
Q 3216 3053 3103 2787 
Q 2991 2522 2730 2228 
Q 2469 1934 1863 1422 
Q 1356 997 1212 845 
Q 1069 694 975 541 
L 3222 541 
z
" transform="scale(0.015625)"/>
       </defs>
       <use xlink:href="#ArialMT-32"/>
       <use xlink:href="#ArialMT-30" x="55.615234"/>
       <use xlink:href="#ArialMT-30" x="111.230469"/>
       <use xlink:href="#ArialMT-30" x="166.845703"/>
      </g>
     </g>
    </g>
    <g id="xtick_4">
     <g id="line2d_4">
      <g>
       <use xlink:href="#m2e5fdfb577" x="196.889663" y="167.726059" style="fill: #262626; stroke: #262626; stroke-width: 1.25"/>
      </g>
     </g>
     <g id="text_4">
      <!-- 3000 -->
      <g style="fill: #262626" transform="translate(184.655601 185.099653) scale(0.11 -0.11)">
       <defs>
        <path id="ArialMT-33" d="M 269 1209 
L 831 1284 
Q 928 806 1161 595 
Q 1394 384 1728 384 
Q 2125 384 2398 659 
Q 2672 934 2672 1341 
Q 2672 1728 2419 1979 
Q 2166 2231 1775 2231 
Q 1616 2231 1378 2169 
L 1441 2663 
Q 1497 2656 1531 2656 
Q 1891 2656 2178 2843 
Q 2466 3031 2466 3422 
Q 2466 3731 2256 3934 
Q 2047 4138 1716 4138 
Q 1388 4138 1169 3931 
Q 950 3725 888 3313 
L 325 3413 
Q 428 3978 793 4289 
Q 1159 4600 1703 4600 
Q 2078 4600 2393 4439 
Q 2709 4278 2876 4000 
Q 3044 3722 3044 3409 
Q 3044 3113 2884 2869 
Q 2725 2625 2413 2481 
Q 2819 2388 3044 2092 
Q 3269 1797 3269 1353 
Q 3269 753 2831 336 
Q 2394 -81 1725 -81 
Q 1122 -81 723 278 
Q 325 638 269 1209 
z
" transform="scale(0.015625)"/>
       </defs>
       <use xlink:href="#ArialMT-33"/>
       <use xlink:href="#ArialMT-30" x="55.615234"/>
       <use xlink:href="#ArialMT-30" x="111.230469"/>
       <use xlink:href="#ArialMT-30" x="166.845703"/>
      </g>
     </g>
    </g>
    <g id="xtick_5">
     <g id="line2d_5">
      <g>
       <use xlink:href="#m2e5fdfb577" x="246.232519" y="167.726059" style="fill: #262626; stroke: #262626; stroke-width: 1.25"/>
      </g>
     </g>
     <g id="text_5">
      <!-- 4000 -->
      <g style="fill: #262626" transform="translate(233.998457 185.099653) scale(0.11 -0.11)">
       <defs>
        <path id="ArialMT-34" d="M 2069 0 
L 2069 1097 
L 81 1097 
L 81 1613 
L 2172 4581 
L 2631 4581 
L 2631 1613 
L 3250 1613 
L 3250 1097 
L 2631 1097 
L 2631 0 
L 2069 0 
z
M 2069 1613 
L 2069 3678 
L 634 1613 
L 2069 1613 
z
" transform="scale(0.015625)"/>
       </defs>
       <use xlink:href="#ArialMT-34"/>
       <use xlink:href="#ArialMT-30" x="55.615234"/>
       <use xlink:href="#ArialMT-30" x="111.230469"/>
       <use xlink:href="#ArialMT-30" x="166.845703"/>
      </g>
     </g>
    </g>
    <g id="xtick_6">
     <g id="line2d_6">
      <defs>
       <path id="m4c8a5db313" d="M 0 0 
L 0 4 
" style="stroke: #262626"/>
      </defs>
      <g>
       <use xlink:href="#m4c8a5db313" x="73.532522" y="167.726059" style="fill: #262626; stroke: #262626"/>
      </g>
     </g>
    </g>
    <g id="xtick_7">
     <g id="line2d_7">
      <g>
       <use xlink:href="#m4c8a5db313" x="122.875379" y="167.726059" style="fill: #262626; stroke: #262626"/>
      </g>
     </g>
    </g>
    <g id="xtick_8">
     <g id="line2d_8">
      <g>
       <use xlink:href="#m4c8a5db313" x="172.218235" y="167.726059" style="fill: #262626; stroke: #262626"/>
      </g>
     </g>
    </g>
    <g id="xtick_9">
     <g id="line2d_9">
      <g>
       <use xlink:href="#m4c8a5db313" x="221.561091" y="167.726059" style="fill: #262626; stroke: #262626"/>
      </g>
     </g>
    </g>
    <g id="xtick_10">
     <g id="line2d_10">
      <g>
       <use xlink:href="#m4c8a5db313" x="270.903947" y="167.726059" style="fill: #262626; stroke: #262626"/>
      </g>
     </g>
    </g>
    <g id="text_6">
     <!-- Time (s) -->
     <g style="fill: #262626" transform="translate(134.936362 200.021528) scale(0.12 -0.12)">
      <defs>
       <path id="ArialMT-54" d="M 1659 0 
L 1659 4041 
L 150 4041 
L 150 4581 
L 3781 4581 
L 3781 4041 
L 2266 4041 
L 2266 0 
L 1659 0 
z
" transform="scale(0.015625)"/>
       <path id="ArialMT-69" d="M 425 3934 
L 425 4581 
L 988 4581 
L 988 3934 
L 425 3934 
z
M 425 0 
L 425 3319 
L 988 3319 
L 988 0 
L 425 0 
z
" transform="scale(0.015625)"/>
       <path id="ArialMT-6d" d="M 422 0 
L 422 3319 
L 925 3319 
L 925 2853 
Q 1081 3097 1340 3245 
Q 1600 3394 1931 3394 
Q 2300 3394 2536 3241 
Q 2772 3088 2869 2813 
Q 3263 3394 3894 3394 
Q 4388 3394 4653 3120 
Q 4919 2847 4919 2278 
L 4919 0 
L 4359 0 
L 4359 2091 
Q 4359 2428 4304 2576 
Q 4250 2725 4106 2815 
Q 3963 2906 3769 2906 
Q 3419 2906 3187 2673 
Q 2956 2441 2956 1928 
L 2956 0 
L 2394 0 
L 2394 2156 
Q 2394 2531 2256 2718 
Q 2119 2906 1806 2906 
Q 1569 2906 1367 2781 
Q 1166 2656 1075 2415 
Q 984 2175 984 1722 
L 984 0 
L 422 0 
z
" transform="scale(0.015625)"/>
       <path id="ArialMT-65" d="M 2694 1069 
L 3275 997 
Q 3138 488 2766 206 
Q 2394 -75 1816 -75 
Q 1088 -75 661 373 
Q 234 822 234 1631 
Q 234 2469 665 2931 
Q 1097 3394 1784 3394 
Q 2450 3394 2872 2941 
Q 3294 2488 3294 1666 
Q 3294 1616 3291 1516 
L 816 1516 
Q 847 969 1125 678 
Q 1403 388 1819 388 
Q 2128 388 2347 550 
Q 2566 713 2694 1069 
z
M 847 1978 
L 2700 1978 
Q 2663 2397 2488 2606 
Q 2219 2931 1791 2931 
Q 1403 2931 1139 2672 
Q 875 2413 847 1978 
z
" transform="scale(0.015625)"/>
       <path id="ArialMT-20" transform="scale(0.015625)"/>
       <path id="ArialMT-28" d="M 1497 -1347 
Q 1031 -759 709 28 
Q 388 816 388 1659 
Q 388 2403 628 3084 
Q 909 3875 1497 4659 
L 1900 4659 
Q 1522 4009 1400 3731 
Q 1209 3300 1100 2831 
Q 966 2247 966 1656 
Q 966 153 1900 -1347 
L 1497 -1347 
z
" transform="scale(0.015625)"/>
       <path id="ArialMT-73" d="M 197 991 
L 753 1078 
Q 800 744 1014 566 
Q 1228 388 1613 388 
Q 2000 388 2187 545 
Q 2375 703 2375 916 
Q 2375 1106 2209 1216 
Q 2094 1291 1634 1406 
Q 1016 1563 777 1677 
Q 538 1791 414 1992 
Q 291 2194 291 2438 
Q 291 2659 392 2848 
Q 494 3038 669 3163 
Q 800 3259 1026 3326 
Q 1253 3394 1513 3394 
Q 1903 3394 2198 3281 
Q 2494 3169 2634 2976 
Q 2775 2784 2828 2463 
L 2278 2388 
Q 2241 2644 2061 2787 
Q 1881 2931 1553 2931 
Q 1166 2931 1000 2803 
Q 834 2675 834 2503 
Q 834 2394 903 2306 
Q 972 2216 1119 2156 
Q 1203 2125 1616 2013 
Q 2213 1853 2448 1751 
Q 2684 1650 2818 1456 
Q 2953 1263 2953 975 
Q 2953 694 2789 445 
Q 2625 197 2315 61 
Q 2006 -75 1616 -75 
Q 969 -75 630 194 
Q 291 463 197 991 
z
" transform="scale(0.015625)"/>
       <path id="ArialMT-29" d="M 791 -1347 
L 388 -1347 
Q 1322 153 1322 1656 
Q 1322 2244 1188 2822 
Q 1081 3291 891 3722 
Q 769 4003 388 4659 
L 791 4659 
Q 1378 3875 1659 3084 
Q 1900 2403 1900 1659 
Q 1900 816 1576 28 
Q 1253 -759 791 -1347 
z
" transform="scale(0.015625)"/>
      </defs>
      <use xlink:href="#ArialMT-54"/>
      <use xlink:href="#ArialMT-69" x="57.333984"/>
      <use xlink:href="#ArialMT-6d" x="79.550781"/>
      <use xlink:href="#ArialMT-65" x="162.851562"/>
      <use xlink:href="#ArialMT-20" x="218.466797"/>
      <use xlink:href="#ArialMT-28" x="246.25"/>
      <use xlink:href="#ArialMT-73" x="279.550781"/>
      <use xlink:href="#ArialMT-29" x="329.550781"/>
     </g>
    </g>
   </g>
   <g id="matplotlib.axis_2">
    <g id="ytick_1">
     <g id="line2d_11">
      <defs>
       <path id="m8e0b5aaa6e" d="M 0 0 
L -6 0 
" style="stroke: #262626; stroke-width: 1.25"/>
      </defs>
      <g>
       <use xlink:href="#m8e0b5aaa6e" x="38.078281" y="161.971596" style="fill: #262626; stroke: #262626; stroke-width: 1.25"/>
      </g>
     </g>
     <g id="text_7">
      <!-- 0 -->
      <g style="fill: #262626" transform="translate(22.46125 165.908392) scale(0.11 -0.11)">
       <use xlink:href="#ArialMT-30"/>
      </g>
     </g>
    </g>
    <g id="ytick_2">
     <g id="line2d_12">
      <g>
       <use xlink:href="#m8e0b5aaa6e" x="38.078281" y="116.165672" style="fill: #262626; stroke: #262626; stroke-width: 1.25"/>
      </g>
     </g>
     <g id="text_8">
      <!-- 2 -->
      <g style="fill: #262626" transform="translate(22.46125 120.102469) scale(0.11 -0.11)">
       <use xlink:href="#ArialMT-32"/>
      </g>
     </g>
    </g>
    <g id="ytick_3">
     <g id="line2d_13">
      <g>
       <use xlink:href="#m8e0b5aaa6e" x="38.078281" y="70.359749" style="fill: #262626; stroke: #262626; stroke-width: 1.25"/>
      </g>
     </g>
     <g id="text_9">
      <!-- 4 -->
      <g style="fill: #262626" transform="translate(22.46125 74.296546) scale(0.11 -0.11)">
       <use xlink:href="#ArialMT-34"/>
      </g>
     </g>
    </g>
    <g id="ytick_4">
     <g id="line2d_14">
      <defs>
       <path id="m98002c0b5c" d="M 0 0 
L -4 0 
" style="stroke: #262626"/>
      </defs>
      <g>
       <use xlink:href="#m98002c0b5c" x="38.078281" y="139.068634" style="fill: #262626; stroke: #262626"/>
      </g>
     </g>
    </g>
    <g id="ytick_5">
     <g id="line2d_15">
      <g>
       <use xlink:href="#m98002c0b5c" x="38.078281" y="93.262711" style="fill: #262626; stroke: #262626"/>
      </g>
     </g>
    </g>
    <g id="ytick_6">
     <g id="line2d_16">
      <g>
       <use xlink:href="#m98002c0b5c" x="38.078281" y="47.456787" style="fill: #262626; stroke: #262626"/>
      </g>
     </g>
    </g>
    <g id="text_10">
     <!-- Concentration (M) -->
     <g style="fill: #262626" transform="translate(15.935625 152.44102) rotate(-90) scale(0.12 -0.12)">
      <defs>
       <path id="ArialMT-43" d="M 3763 1606 
L 4369 1453 
Q 4178 706 3683 314 
Q 3188 -78 2472 -78 
Q 1731 -78 1267 223 
Q 803 525 561 1097 
Q 319 1669 319 2325 
Q 319 3041 592 3573 
Q 866 4106 1370 4382 
Q 1875 4659 2481 4659 
Q 3169 4659 3637 4309 
Q 4106 3959 4291 3325 
L 3694 3184 
Q 3534 3684 3231 3912 
Q 2928 4141 2469 4141 
Q 1941 4141 1586 3887 
Q 1231 3634 1087 3207 
Q 944 2781 944 2328 
Q 944 1744 1114 1308 
Q 1284 872 1643 656 
Q 2003 441 2422 441 
Q 2931 441 3284 734 
Q 3638 1028 3763 1606 
z
" transform="scale(0.015625)"/>
       <path id="ArialMT-6f" d="M 213 1659 
Q 213 2581 725 3025 
Q 1153 3394 1769 3394 
Q 2453 3394 2887 2945 
Q 3322 2497 3322 1706 
Q 3322 1066 3130 698 
Q 2938 331 2570 128 
Q 2203 -75 1769 -75 
Q 1072 -75 642 372 
Q 213 819 213 1659 
z
M 791 1659 
Q 791 1022 1069 705 
Q 1347 388 1769 388 
Q 2188 388 2466 706 
Q 2744 1025 2744 1678 
Q 2744 2294 2464 2611 
Q 2184 2928 1769 2928 
Q 1347 2928 1069 2612 
Q 791 2297 791 1659 
z
" transform="scale(0.015625)"/>
       <path id="ArialMT-6e" d="M 422 0 
L 422 3319 
L 928 3319 
L 928 2847 
Q 1294 3394 1984 3394 
Q 2284 3394 2536 3286 
Q 2788 3178 2913 3003 
Q 3038 2828 3088 2588 
Q 3119 2431 3119 2041 
L 3119 0 
L 2556 0 
L 2556 2019 
Q 2556 2363 2490 2533 
Q 2425 2703 2258 2804 
Q 2091 2906 1866 2906 
Q 1506 2906 1245 2678 
Q 984 2450 984 1813 
L 984 0 
L 422 0 
z
" transform="scale(0.015625)"/>
       <path id="ArialMT-63" d="M 2588 1216 
L 3141 1144 
Q 3050 572 2676 248 
Q 2303 -75 1759 -75 
Q 1078 -75 664 370 
Q 250 816 250 1647 
Q 250 2184 428 2587 
Q 606 2991 970 3192 
Q 1334 3394 1763 3394 
Q 2303 3394 2647 3120 
Q 2991 2847 3088 2344 
L 2541 2259 
Q 2463 2594 2264 2762 
Q 2066 2931 1784 2931 
Q 1359 2931 1093 2626 
Q 828 2322 828 1663 
Q 828 994 1084 691 
Q 1341 388 1753 388 
Q 2084 388 2306 591 
Q 2528 794 2588 1216 
z
" transform="scale(0.015625)"/>
       <path id="ArialMT-74" d="M 1650 503 
L 1731 6 
Q 1494 -44 1306 -44 
Q 1000 -44 831 53 
Q 663 150 594 308 
Q 525 466 525 972 
L 525 2881 
L 113 2881 
L 113 3319 
L 525 3319 
L 525 4141 
L 1084 4478 
L 1084 3319 
L 1650 3319 
L 1650 2881 
L 1084 2881 
L 1084 941 
Q 1084 700 1114 631 
Q 1144 563 1211 522 
Q 1278 481 1403 481 
Q 1497 481 1650 503 
z
" transform="scale(0.015625)"/>
       <path id="ArialMT-72" d="M 416 0 
L 416 3319 
L 922 3319 
L 922 2816 
Q 1116 3169 1280 3281 
Q 1444 3394 1641 3394 
Q 1925 3394 2219 3213 
L 2025 2691 
Q 1819 2813 1613 2813 
Q 1428 2813 1281 2702 
Q 1134 2591 1072 2394 
Q 978 2094 978 1738 
L 978 0 
L 416 0 
z
" transform="scale(0.015625)"/>
       <path id="ArialMT-61" d="M 2588 409 
Q 2275 144 1986 34 
Q 1697 -75 1366 -75 
Q 819 -75 525 192 
Q 231 459 231 875 
Q 231 1119 342 1320 
Q 453 1522 633 1644 
Q 813 1766 1038 1828 
Q 1203 1872 1538 1913 
Q 2219 1994 2541 2106 
Q 2544 2222 2544 2253 
Q 2544 2597 2384 2738 
Q 2169 2928 1744 2928 
Q 1347 2928 1158 2789 
Q 969 2650 878 2297 
L 328 2372 
Q 403 2725 575 2942 
Q 747 3159 1072 3276 
Q 1397 3394 1825 3394 
Q 2250 3394 2515 3294 
Q 2781 3194 2906 3042 
Q 3031 2891 3081 2659 
Q 3109 2516 3109 2141 
L 3109 1391 
Q 3109 606 3145 398 
Q 3181 191 3288 0 
L 2700 0 
Q 2613 175 2588 409 
z
M 2541 1666 
Q 2234 1541 1622 1453 
Q 1275 1403 1131 1340 
Q 988 1278 909 1158 
Q 831 1038 831 891 
Q 831 666 1001 516 
Q 1172 366 1500 366 
Q 1825 366 2078 508 
Q 2331 650 2450 897 
Q 2541 1088 2541 1459 
L 2541 1666 
z
" transform="scale(0.015625)"/>
       <path id="ArialMT-4d" d="M 475 0 
L 475 4581 
L 1388 4581 
L 2472 1338 
Q 2622 884 2691 659 
Q 2769 909 2934 1394 
L 4031 4581 
L 4847 4581 
L 4847 0 
L 4263 0 
L 4263 3834 
L 2931 0 
L 2384 0 
L 1059 3900 
L 1059 0 
L 475 0 
z
" transform="scale(0.015625)"/>
      </defs>
      <use xlink:href="#ArialMT-43"/>
      <use xlink:href="#ArialMT-6f" x="72.216797"/>
      <use xlink:href="#ArialMT-6e" x="127.832031"/>
      <use xlink:href="#ArialMT-63" x="183.447266"/>
      <use xlink:href="#ArialMT-65" x="233.447266"/>
      <use xlink:href="#ArialMT-6e" x="289.0625"/>
      <use xlink:href="#ArialMT-74" x="344.677734"/>
      <use xlink:href="#ArialMT-72" x="372.460938"/>
      <use xlink:href="#ArialMT-61" x="405.761719"/>
      <use xlink:href="#ArialMT-74" x="461.376953"/>
      <use xlink:href="#ArialMT-69" x="489.160156"/>
      <use xlink:href="#ArialMT-6f" x="511.376953"/>
      <use xlink:href="#ArialMT-6e" x="566.992188"/>
      <use xlink:href="#ArialMT-20" x="622.607422"/>
      <use xlink:href="#ArialMT-28" x="650.390625"/>
      <use xlink:href="#ArialMT-4d" x="683.691406"/>
      <use xlink:href="#ArialMT-29" x="766.992188"/>
     </g>
    </g>
    <g id="text_11">
     <!-- 1e−5 -->
     <g style="fill: #262626" transform="translate(38.078281 38.127855) scale(0.11 -0.11)">
      <defs>
       <path id="ArialMT-2212" d="M 3381 1997 
L 356 1997 
L 356 2522 
L 3381 2522 
L 3381 1997 
z
" transform="scale(0.015625)"/>
       <path id="ArialMT-35" d="M 266 1200 
L 856 1250 
Q 922 819 1161 601 
Q 1400 384 1738 384 
Q 2144 384 2425 690 
Q 2706 997 2706 1503 
Q 2706 1984 2436 2262 
Q 2166 2541 1728 2541 
Q 1456 2541 1237 2417 
Q 1019 2294 894 2097 
L 366 2166 
L 809 4519 
L 3088 4519 
L 3088 3981 
L 1259 3981 
L 1013 2750 
Q 1425 3038 1878 3038 
Q 2478 3038 2890 2622 
Q 3303 2206 3303 1553 
Q 3303 931 2941 478 
Q 2500 -78 1738 -78 
Q 1113 -78 717 272 
Q 322 622 266 1200 
z
" transform="scale(0.015625)"/>
      </defs>
      <use xlink:href="#ArialMT-31"/>
      <use xlink:href="#ArialMT-65" x="55.615234"/>
      <use xlink:href="#ArialMT-2212" x="111.230469"/>
      <use xlink:href="#ArialMT-35" x="169.628906"/>
     </g>
    </g>
   </g>
   <g id="line2d_17">
    <path d="M 48.862624 46.882319 
L 51.83859 50.398908 
L 54.813076 53.290784 
L 57.787513 55.660055 
L 60.762739 57.618904 
L 63.737176 59.235191 
L 66.712402 60.571821 
L 69.686839 61.67235 
L 72.661276 62.579379 
L 77.122955 63.649734 
L 81.584635 64.448186 
L 86.046315 65.055257 
L 91.997507 65.636472 
L 99.435203 66.125402 
L 111.336058 66.515397 
L 124.724946 66.714685 
L 151.501143 66.830213 
L 236.288355 66.858913 
L 264.549476 66.858679 
L 264.549476 66.858679 
" clip-path="url(#p65f6bfca13)" style="fill: none; stroke: #346aa9; stroke-width: 1.5; stroke-linecap: round"/>
   </g>
   <g id="line2d_18">
    <path d="M 48.862624 161.971596 
L 51.83859 158.455007 
L 54.813076 155.563131 
L 57.787513 153.19386 
L 60.762739 151.23501 
L 63.737176 149.618724 
L 66.712402 148.282094 
L 69.686839 147.181564 
L 72.661276 146.274536 
L 77.122955 145.20418 
L 81.584635 144.405728 
L 86.046315 143.798658 
L 91.997507 143.217442 
L 99.435203 142.728512 
L 111.336058 142.338517 
L 124.724946 142.13923 
L 151.501143 142.023702 
L 236.288355 141.995001 
L 264.549476 141.995235 
L 264.549476 141.995235 
" clip-path="url(#p65f6bfca13)" style="fill: none; stroke: #e16203; stroke-width: 1.5; stroke-linecap: round"/>
   </g>
   <g id="patch_3">
    <path d="M 38.078281 167.726059 
L 38.078281 41.127855 
" style="fill: none; stroke: #262626; stroke-width: 1.25; stroke-linejoin: miter; stroke-linecap: square"/>
   </g>
   <g id="patch_4">
    <path d="M 275.333818 167.726059 
L 275.333818 41.127855 
" style="fill: none; stroke: #262626; stroke-width: 1.25; stroke-linejoin: miter; stroke-linecap: square"/>
   </g>
   <g id="patch_5">
    <path d="M 38.078281 167.726059 
L 275.333818 167.726059 
" style="fill: none; stroke: #262626; stroke-width: 1.25; stroke-linejoin: miter; stroke-linecap: square"/>
   </g>
   <g id="patch_6">
    <path d="M 38.078281 41.127855 
L 275.333818 41.127855 
" style="fill: none; stroke: #262626; stroke-width: 1.25; stroke-linejoin: miter; stroke-linecap: square"/>
   </g>
   <g id="text_12">
    <!-- Concentrations over time -->
    <g style="fill: #262626" transform="translate(90.013237 35.127855) scale(0.12 -0.12)">
     <defs>
      <path id="ArialMT-76" d="M 1344 0 
L 81 3319 
L 675 3319 
L 1388 1331 
Q 1503 1009 1600 663 
Q 1675 925 1809 1294 
L 2547 3319 
L 3125 3319 
L 1869 0 
L 1344 0 
z
" transform="scale(0.015625)"/>
     </defs>
     <use xlink:href="#ArialMT-43"/>
     <use xlink:href="#ArialMT-6f" x="72.216797"/>
     <use xlink:href="#ArialMT-6e" x="127.832031"/>
     <use xlink:href="#ArialMT-63" x="183.447266"/>
     <use xlink:href="#ArialMT-65" x="233.447266"/>
     <use xlink:href="#ArialMT-6e" x="289.0625"/>
     <use xlink:href="#ArialMT-74" x="344.677734"/>
     <use xlink:href="#ArialMT-72" x="372.460938"/>
     <use xlink:href="#ArialMT-61" x="405.761719"/>
     <use xlink:href="#ArialMT-74" x="461.376953"/>
     <use xlink:href="#ArialMT-69" x="489.160156"/>
     <use xlink:href="#ArialMT-6f" x="511.376953"/>
     <use xlink:href="#ArialMT-6e" x="566.992188"/>
     <use xlink:href="#ArialMT-73" x="622.607422"/>
     <use xlink:href="#ArialMT-20" x="672.607422"/>
     <use xlink:href="#ArialMT-6f" x="700.390625"/>
     <use xlink:href="#ArialMT-76" x="756.005859"/>
     <use xlink:href="#ArialMT-65" x="806.005859"/>
     <use xlink:href="#ArialMT-72" x="861.621094"/>
     <use xlink:href="#ArialMT-20" x="894.921875"/>
     <use xlink:href="#ArialMT-74" x="922.705078"/>
     <use xlink:href="#ArialMT-69" x="950.488281"/>
     <use xlink:href="#ArialMT-6d" x="972.705078"/>
     <use xlink:href="#ArialMT-65" x="1056.005859"/>
    </g>
   </g>
   <g id="legend_1">
    <g id="line2d_19">
     <path d="M 190.609756 95.640707 
L 201.609756 95.640707 
L 212.609756 95.640707 
" style="fill: none; stroke: #346aa9; stroke-width: 1.5; stroke-linecap: round"/>
    </g>
    <g id="text_13">
     <!-- Reactant -->
     <g style="fill: #262626" transform="translate(221.409756 99.490707) scale(0.11 -0.11)">
      <defs>
       <path id="ArialMT-52" d="M 503 0 
L 503 4581 
L 2534 4581 
Q 3147 4581 3465 4457 
Q 3784 4334 3975 4021 
Q 4166 3709 4166 3331 
Q 4166 2844 3850 2509 
Q 3534 2175 2875 2084 
Q 3116 1969 3241 1856 
Q 3506 1613 3744 1247 
L 4541 0 
L 3778 0 
L 3172 953 
Q 2906 1366 2734 1584 
Q 2563 1803 2427 1890 
Q 2291 1978 2150 2013 
Q 2047 2034 1813 2034 
L 1109 2034 
L 1109 0 
L 503 0 
z
M 1109 2559 
L 2413 2559 
Q 2828 2559 3062 2645 
Q 3297 2731 3419 2920 
Q 3541 3109 3541 3331 
Q 3541 3656 3305 3865 
Q 3069 4075 2559 4075 
L 1109 4075 
L 1109 2559 
z
" transform="scale(0.015625)"/>
      </defs>
      <use xlink:href="#ArialMT-52"/>
      <use xlink:href="#ArialMT-65" x="72.216797"/>
      <use xlink:href="#ArialMT-61" x="127.832031"/>
      <use xlink:href="#ArialMT-63" x="183.447266"/>
      <use xlink:href="#ArialMT-74" x="233.447266"/>
      <use xlink:href="#ArialMT-61" x="261.230469"/>
      <use xlink:href="#ArialMT-6e" x="316.845703"/>
      <use xlink:href="#ArialMT-74" x="372.460938"/>
     </g>
    </g>
    <g id="line2d_20">
     <path d="M 190.609756 111.200551 
L 201.609756 111.200551 
L 212.609756 111.200551 
" style="fill: none; stroke: #e16203; stroke-width: 1.5; stroke-linecap: round"/>
    </g>
    <g id="text_14">
     <!-- Product -->
     <g style="fill: #262626" transform="translate(221.409756 115.050551) scale(0.11 -0.11)">
      <defs>
       <path id="ArialMT-50" d="M 494 0 
L 494 4581 
L 2222 4581 
Q 2678 4581 2919 4538 
Q 3256 4481 3484 4323 
Q 3713 4166 3852 3881 
Q 3991 3597 3991 3256 
Q 3991 2672 3619 2267 
Q 3247 1863 2275 1863 
L 1100 1863 
L 1100 0 
L 494 0 
z
M 1100 2403 
L 2284 2403 
Q 2872 2403 3119 2622 
Q 3366 2841 3366 3238 
Q 3366 3525 3220 3729 
Q 3075 3934 2838 4000 
Q 2684 4041 2272 4041 
L 1100 4041 
L 1100 2403 
z
" transform="scale(0.015625)"/>
       <path id="ArialMT-64" d="M 2575 0 
L 2575 419 
Q 2259 -75 1647 -75 
Q 1250 -75 917 144 
Q 584 363 401 755 
Q 219 1147 219 1656 
Q 219 2153 384 2558 
Q 550 2963 881 3178 
Q 1213 3394 1622 3394 
Q 1922 3394 2156 3267 
Q 2391 3141 2538 2938 
L 2538 4581 
L 3097 4581 
L 3097 0 
L 2575 0 
z
M 797 1656 
Q 797 1019 1065 703 
Q 1334 388 1700 388 
Q 2069 388 2326 689 
Q 2584 991 2584 1609 
Q 2584 2291 2321 2609 
Q 2059 2928 1675 2928 
Q 1300 2928 1048 2622 
Q 797 2316 797 1656 
z
" transform="scale(0.015625)"/>
       <path id="ArialMT-75" d="M 2597 0 
L 2597 488 
Q 2209 -75 1544 -75 
Q 1250 -75 995 37 
Q 741 150 617 320 
Q 494 491 444 738 
Q 409 903 409 1263 
L 409 3319 
L 972 3319 
L 972 1478 
Q 972 1038 1006 884 
Q 1059 663 1231 536 
Q 1403 409 1656 409 
Q 1909 409 2131 539 
Q 2353 669 2445 892 
Q 2538 1116 2538 1541 
L 2538 3319 
L 3100 3319 
L 3100 0 
L 2597 0 
z
" transform="scale(0.015625)"/>
      </defs>
      <use xlink:href="#ArialMT-50"/>
      <use xlink:href="#ArialMT-72" x="66.699219"/>
      <use xlink:href="#ArialMT-6f" x="100"/>
      <use xlink:href="#ArialMT-64" x="155.615234"/>
      <use xlink:href="#ArialMT-75" x="211.230469"/>
      <use xlink:href="#ArialMT-63" x="266.845703"/>
      <use xlink:href="#ArialMT-74" x="316.845703"/>
     </g>
    </g>
   </g>
  </g>
  <g id="axes_2">
   <g id="patch_7">
    <path d="M 339.757423 167.726059 
L 577.01296 167.726059 
L 577.01296 41.127855 
L 339.757423 41.127855 
z
" style="fill: #ffffff"/>
   </g>
   <g id="matplotlib.axis_3">
    <g id="xtick_11">
     <g id="line2d_21">
      <g>
       <use xlink:href="#m2e5fdfb577" x="350.540236" y="167.726059" style="fill: #262626; stroke: #262626; stroke-width: 1.25"/>
      </g>
     </g>
    </g>
    <g id="xtick_12">
     <g id="line2d_22">
      <g>
       <use xlink:href="#m2e5fdfb577" x="399.883093" y="167.726059" style="fill: #262626; stroke: #262626; stroke-width: 1.25"/>
      </g>
     </g>
    </g>
    <g id="xtick_13">
     <g id="line2d_23">
      <g>
       <use xlink:href="#m2e5fdfb577" x="449.225949" y="167.726059" style="fill: #262626; stroke: #262626; stroke-width: 1.25"/>
      </g>
     </g>
    </g>
    <g id="xtick_14">
     <g id="line2d_24">
      <g>
       <use xlink:href="#m2e5fdfb577" x="498.568805" y="167.726059" style="fill: #262626; stroke: #262626; stroke-width: 1.25"/>
      </g>
     </g>
    </g>
    <g id="xtick_15">
     <g id="line2d_25">
      <g>
       <use xlink:href="#m2e5fdfb577" x="547.911661" y="167.726059" style="fill: #262626; stroke: #262626; stroke-width: 1.25"/>
      </g>
     </g>
    </g>
    <g id="xtick_16">
     <g id="line2d_26">
      <g>
       <use xlink:href="#m4c8a5db313" x="375.211664" y="167.726059" style="fill: #262626; stroke: #262626"/>
      </g>
     </g>
    </g>
    <g id="xtick_17">
     <g id="line2d_27">
      <g>
       <use xlink:href="#m4c8a5db313" x="424.554521" y="167.726059" style="fill: #262626; stroke: #262626"/>
      </g>
     </g>
    </g>
    <g id="xtick_18">
     <g id="line2d_28">
      <g>
       <use xlink:href="#m4c8a5db313" x="473.897377" y="167.726059" style="fill: #262626; stroke: #262626"/>
      </g>
     </g>
    </g>
    <g id="xtick_19">
     <g id="line2d_29">
      <g>
       <use xlink:href="#m4c8a5db313" x="523.240233" y="167.726059" style="fill: #262626; stroke: #262626"/>
      </g>
     </g>
    </g>
    <g id="xtick_20">
     <g id="line2d_30">
      <g>
       <use xlink:href="#m4c8a5db313" x="572.58309" y="167.726059" style="fill: #262626; stroke: #262626"/>
      </g>
     </g>
    </g>
   </g>
   <g id="matplotlib.axis_4">
    <g id="ytick_7">
     <g id="line2d_31">
      <g>
       <use xlink:href="#m8e0b5aaa6e" x="339.757423" y="145.821971" style="fill: #262626; stroke: #262626; stroke-width: 1.25"/>
      </g>
     </g>
     <g id="text_15">
      <!-- 0.024 -->
      <g style="fill: #262626" transform="translate(302.733361 149.758768) scale(0.11 -0.11)">
       <defs>
        <path id="ArialMT-2e" d="M 581 0 
L 581 641 
L 1222 641 
L 1222 0 
L 581 0 
z
" transform="scale(0.015625)"/>
       </defs>
       <use xlink:href="#ArialMT-30"/>
       <use xlink:href="#ArialMT-2e" x="55.615234"/>
       <use xlink:href="#ArialMT-30" x="83.398438"/>
       <use xlink:href="#ArialMT-32" x="139.013672"/>
       <use xlink:href="#ArialMT-34" x="194.628906"/>
      </g>
     </g>
    </g>
    <g id="ytick_8">
     <g id="line2d_32">
      <g>
       <use xlink:href="#m8e0b5aaa6e" x="339.757423" y="108.696398" style="fill: #262626; stroke: #262626; stroke-width: 1.25"/>
      </g>
     </g>
     <g id="text_16">
      <!-- 0.026 -->
      <g style="fill: #262626" transform="translate(302.733361 112.633195) scale(0.11 -0.11)">
       <defs>
        <path id="ArialMT-36" d="M 3184 3459 
L 2625 3416 
Q 2550 3747 2413 3897 
Q 2184 4138 1850 4138 
Q 1581 4138 1378 3988 
Q 1113 3794 959 3422 
Q 806 3050 800 2363 
Q 1003 2672 1297 2822 
Q 1591 2972 1913 2972 
Q 2475 2972 2870 2558 
Q 3266 2144 3266 1488 
Q 3266 1056 3080 686 
Q 2894 316 2569 119 
Q 2244 -78 1831 -78 
Q 1128 -78 684 439 
Q 241 956 241 2144 
Q 241 3472 731 4075 
Q 1159 4600 1884 4600 
Q 2425 4600 2770 4297 
Q 3116 3994 3184 3459 
z
M 888 1484 
Q 888 1194 1011 928 
Q 1134 663 1356 523 
Q 1578 384 1822 384 
Q 2178 384 2434 671 
Q 2691 959 2691 1453 
Q 2691 1928 2437 2201 
Q 2184 2475 1800 2475 
Q 1419 2475 1153 2201 
Q 888 1928 888 1484 
z
" transform="scale(0.015625)"/>
       </defs>
       <use xlink:href="#ArialMT-30"/>
       <use xlink:href="#ArialMT-2e" x="55.615234"/>
       <use xlink:href="#ArialMT-30" x="83.398438"/>
       <use xlink:href="#ArialMT-32" x="139.013672"/>
       <use xlink:href="#ArialMT-36" x="194.628906"/>
      </g>
     </g>
    </g>
    <g id="ytick_9">
     <g id="line2d_33">
      <g>
       <use xlink:href="#m8e0b5aaa6e" x="339.757423" y="71.570825" style="fill: #262626; stroke: #262626; stroke-width: 1.25"/>
      </g>
     </g>
     <g id="text_17">
      <!-- 0.028 -->
      <g style="fill: #262626" transform="translate(302.733361 75.507622) scale(0.11 -0.11)">
       <defs>
        <path id="ArialMT-38" d="M 1131 2484 
Q 781 2613 612 2850 
Q 444 3088 444 3419 
Q 444 3919 803 4259 
Q 1163 4600 1759 4600 
Q 2359 4600 2725 4251 
Q 3091 3903 3091 3403 
Q 3091 3084 2923 2848 
Q 2756 2613 2416 2484 
Q 2838 2347 3058 2040 
Q 3278 1734 3278 1309 
Q 3278 722 2862 322 
Q 2447 -78 1769 -78 
Q 1091 -78 675 323 
Q 259 725 259 1325 
Q 259 1772 486 2073 
Q 713 2375 1131 2484 
z
M 1019 3438 
Q 1019 3113 1228 2906 
Q 1438 2700 1772 2700 
Q 2097 2700 2305 2904 
Q 2513 3109 2513 3406 
Q 2513 3716 2298 3927 
Q 2084 4138 1766 4138 
Q 1444 4138 1231 3931 
Q 1019 3725 1019 3438 
z
M 838 1322 
Q 838 1081 952 856 
Q 1066 631 1291 507 
Q 1516 384 1775 384 
Q 2178 384 2440 643 
Q 2703 903 2703 1303 
Q 2703 1709 2433 1975 
Q 2163 2241 1756 2241 
Q 1359 2241 1098 1978 
Q 838 1716 838 1322 
z
" transform="scale(0.015625)"/>
       </defs>
       <use xlink:href="#ArialMT-30"/>
       <use xlink:href="#ArialMT-2e" x="55.615234"/>
       <use xlink:href="#ArialMT-30" x="83.398438"/>
       <use xlink:href="#ArialMT-32" x="139.013672"/>
       <use xlink:href="#ArialMT-38" x="194.628906"/>
      </g>
     </g>
    </g>
    <g id="ytick_10">
     <g id="line2d_34">
      <g>
       <use xlink:href="#m98002c0b5c" x="339.757423" y="164.384758" style="fill: #262626; stroke: #262626"/>
      </g>
     </g>
    </g>
    <g id="ytick_11">
     <g id="line2d_35">
      <g>
       <use xlink:href="#m98002c0b5c" x="339.757423" y="127.259185" style="fill: #262626; stroke: #262626"/>
      </g>
     </g>
    </g>
    <g id="ytick_12">
     <g id="line2d_36">
      <g>
       <use xlink:href="#m98002c0b5c" x="339.757423" y="90.133612" style="fill: #262626; stroke: #262626"/>
      </g>
     </g>
    </g>
    <g id="ytick_13">
     <g id="line2d_37">
      <g>
       <use xlink:href="#m98002c0b5c" x="339.757423" y="53.008038" style="fill: #262626; stroke: #262626"/>
      </g>
     </g>
    </g>
    <g id="text_18">
     <!-- Absorbance at $\lambda_{irr}$ -->
     <g style="fill: #262626" transform="translate(296.348361 153.146957) rotate(-90) scale(0.12 -0.12)">
      <defs>
       <path id="ArialMT-41" d="M -9 0 
L 1750 4581 
L 2403 4581 
L 4278 0 
L 3588 0 
L 3053 1388 
L 1138 1388 
L 634 0 
L -9 0 
z
M 1313 1881 
L 2866 1881 
L 2388 3150 
Q 2169 3728 2063 4100 
Q 1975 3659 1816 3225 
L 1313 1881 
z
" transform="scale(0.015625)"/>
       <path id="ArialMT-62" d="M 941 0 
L 419 0 
L 419 4581 
L 981 4581 
L 981 2947 
Q 1338 3394 1891 3394 
Q 2197 3394 2470 3270 
Q 2744 3147 2920 2923 
Q 3097 2700 3197 2384 
Q 3297 2069 3297 1709 
Q 3297 856 2875 390 
Q 2453 -75 1863 -75 
Q 1275 -75 941 416 
L 941 0 
z
M 934 1684 
Q 934 1088 1097 822 
Q 1363 388 1816 388 
Q 2184 388 2453 708 
Q 2722 1028 2722 1663 
Q 2722 2313 2464 2622 
Q 2206 2931 1841 2931 
Q 1472 2931 1203 2611 
Q 934 2291 934 1684 
z
" transform="scale(0.015625)"/>
       <path id="DejaVuSans-Oblique-3bb" d="M 2350 4316 
L 3125 0 
L 2516 0 
L 2038 2588 
L 328 0 
L -281 0 
L 1903 3356 
L 1794 3975 
Q 1725 4369 1391 4369 
L 1091 4369 
L 1184 4863 
L 1550 4856 
Q 2253 4847 2350 4316 
z
" transform="scale(0.015625)"/>
       <path id="DejaVuSans-Oblique-69" d="M 1172 4863 
L 1747 4863 
L 1606 4134 
L 1031 4134 
L 1172 4863 
z
M 909 3500 
L 1484 3500 
L 800 0 
L 225 0 
L 909 3500 
z
" transform="scale(0.015625)"/>
       <path id="DejaVuSans-Oblique-72" d="M 2853 2969 
Q 2766 3016 2653 3041 
Q 2541 3066 2413 3066 
Q 1953 3066 1609 2717 
Q 1266 2369 1153 1784 
L 800 0 
L 225 0 
L 909 3500 
L 1484 3500 
L 1375 2956 
Q 1603 3259 1920 3421 
Q 2238 3584 2597 3584 
Q 2691 3584 2781 3573 
Q 2872 3563 2963 3538 
L 2853 2969 
z
" transform="scale(0.015625)"/>
      </defs>
      <use xlink:href="#ArialMT-41" transform="translate(0 0.015625)"/>
      <use xlink:href="#ArialMT-62" transform="translate(66.699219 0.015625)"/>
      <use xlink:href="#ArialMT-73" transform="translate(122.314453 0.015625)"/>
      <use xlink:href="#ArialMT-6f" transform="translate(172.314453 0.015625)"/>
      <use xlink:href="#ArialMT-72" transform="translate(227.929688 0.015625)"/>
      <use xlink:href="#ArialMT-62" transform="translate(261.230469 0.015625)"/>
      <use xlink:href="#ArialMT-61" transform="translate(316.845703 0.015625)"/>
      <use xlink:href="#ArialMT-6e" transform="translate(372.460938 0.015625)"/>
      <use xlink:href="#ArialMT-63" transform="translate(428.076172 0.015625)"/>
      <use xlink:href="#ArialMT-65" transform="translate(478.076172 0.015625)"/>
      <use xlink:href="#ArialMT-20" transform="translate(533.691406 0.015625)"/>
      <use xlink:href="#ArialMT-61" transform="translate(561.474609 0.015625)"/>
      <use xlink:href="#ArialMT-74" transform="translate(617.089844 0.015625)"/>
      <use xlink:href="#ArialMT-20" transform="translate(644.873047 0.015625)"/>
      <use xlink:href="#DejaVuSans-Oblique-3bb" transform="translate(672.65625 0.015625)"/>
      <use xlink:href="#DejaVuSans-Oblique-69" transform="translate(731.835938 -16.390625) scale(0.7)"/>
      <use xlink:href="#DejaVuSans-Oblique-72" transform="translate(751.28418 -16.390625) scale(0.7)"/>
      <use xlink:href="#DejaVuSans-Oblique-72" transform="translate(780.063477 -16.390625) scale(0.7)"/>
     </g>
    </g>
   </g>
   <g id="line2d_38">
    <path d="M 350.541766 161.971596 
L 352.02896 156.217132 
L 353.517732 140.253135 
L 355.004975 134.498671 
L 356.492218 130.971742 
L 357.979412 122.618488 
L 359.466655 115.564629 
L 360.953849 122.247232 
L 362.441881 97.001843 
L 363.929075 104.798213 
L 365.416318 100.528772 
L 366.903561 108.325142 
L 368.391544 96.073703 
L 369.878738 98.11561 
L 371.365981 91.804262 
L 372.853224 89.3911 
L 374.340418 90.876123 
L 375.827661 85.121659 
L 377.314904 82.522869 
L 378.802097 86.049799 
L 380.28934 86.049799 
L 381.776534 79.552823 
L 383.263777 87.534821 
L 384.75102 82.151613 
L 386.238214 88.834216 
L 387.725457 77.510917 
L 389.21423 71.385197 
L 390.701423 79.367195 
L 392.189456 79.552823 
L 393.676649 77.325289 
L 395.163892 77.882172 
L 396.651876 75.46901 
L 398.139119 76.211522 
L 399.627102 72.498964 
L 401.114345 72.87022 
L 402.601539 81.965985 
L 404.088782 81.780358 
L 405.576025 69.714546 
L 407.063218 79.367195 
L 408.551991 83.265381 
L 410.040764 65.07385 
L 411.528007 77.139661 
L 413.0152 79.738451 
L 414.502443 78.439056 
L 415.990427 83.079753 
L 418.965653 67.487012 
L 420.453636 84.564776 
L 421.942409 73.983987 
L 423.429652 81.780358 
L 424.916845 83.079753 
L 426.404088 76.025894 
L 427.891331 79.552823 
L 429.378525 76.211522 
L 430.865768 80.109707 
L 432.352962 77.139661 
L 433.840994 66.187617 
L 435.328188 77.325289 
L 436.816221 70.457058 
L 438.303414 73.612731 
L 439.790657 76.211522 
L 441.277851 73.983987 
L 442.766624 73.241476 
L 444.253867 72.684592 
L 445.74111 73.612731 
L 447.228303 77.882172 
L 448.715546 66.7445 
L 450.20353 78.0678 
L 451.691513 83.079753 
L 453.180285 72.498964 
L 454.667528 71.570825 
L 456.155512 65.816361 
L 457.642755 68.043896 
L 459.129948 67.487012 
L 460.617981 54.493061 
L 462.105964 68.229523 
L 463.593158 75.46901 
L 465.080401 68.229523 
L 466.567644 71.942081 
L 468.054837 74.726499 
L 469.54208 68.043896 
L 471.030853 74.726499 
L 472.518047 69.528918 
L 474.00529 69.900174 
L 475.492533 70.828314 
L 476.979727 65.816361 
L 478.46697 73.612731 
L 479.954953 70.27143 
L 481.442196 60.433153 
L 482.929389 76.211522 
L 484.416633 59.690642 
L 485.904616 77.325289 
L 487.392648 77.139661 
L 488.879842 71.013941 
L 490.367085 73.798359 
L 491.855858 65.816361 
L 493.343051 68.415151 
L 494.830294 60.247525 
L 496.317537 62.103804 
L 497.804731 77.325289 
L 499.291974 57.834363 
L 500.779168 65.259478 
L 502.26794 71.942081 
L 503.755973 57.463107 
L 505.243956 64.14571 
L 506.73115 61.361292 
L 508.218393 69.343291 
L 509.705636 70.828314 
L 511.193619 63.217571 
L 512.680862 61.54692 
L 514.168056 68.229523 
L 515.655299 61.918176 
L 517.143282 59.319386 
L 518.632055 62.47506 
L 520.119298 74.726499 
L 521.606491 68.043896 
L 523.093734 67.67264 
L 524.581718 67.115756 
L 526.068961 66.001989 
L 527.556154 59.690642 
L 529.043397 59.876269 
L 530.53138 59.133758 
L 532.018623 58.576874 
L 533.505817 60.433153 
L 534.99306 62.103804 
L 536.480303 59.319386 
L 537.967497 65.445105 
L 539.45474 55.049945 
L 540.941983 61.54692 
L 542.429177 51.894271 
L 543.91642 72.87022 
L 545.403613 62.47506 
L 546.890856 60.804409 
L 548.378099 68.600779 
L 549.865293 62.846315 
L 551.352536 61.54692 
L 552.842049 54.678689 
L 554.329292 62.660687 
L 555.816535 57.091851 
L 557.303729 63.031943 
L 558.790972 58.94813 
L 560.278215 67.115756 
L 561.765408 55.421201 
L 563.253392 58.391247 
L 564.741424 46.882319 
L 566.228618 54.307433 
L 566.228618 54.307433 
" clip-path="url(#p5c58d96efb)" style="fill: none; stroke: #e16203; stroke-opacity: 0.5; stroke-width: 8; stroke-linecap: round"/>
   </g>
   <g id="line2d_39">
    <path d="M 350.541766 160.313953 
L 352.02896 151.667722 
L 353.517732 143.817878 
L 355.004975 136.707525 
L 356.492218 130.252286 
L 357.979412 124.420876 
L 359.466655 119.1382 
L 360.953849 114.331416 
L 362.441881 109.949371 
L 363.929075 105.976734 
L 365.416318 102.367485 
L 366.903561 99.081199 
L 368.391544 96.097445 
L 369.878738 93.39249 
L 371.365981 90.934938 
L 372.853224 88.703417 
L 375.827661 84.842514 
L 378.802097 81.659167 
L 381.776534 79.04705 
L 384.75102 76.873458 
L 387.725457 75.065957 
L 390.701423 73.577535 
L 393.676649 72.339514 
L 396.651876 71.321208 
L 401.114345 70.045978 
L 407.063218 68.995904 
L 413.0152 68.216539 
L 418.965653 67.692558 
L 426.404088 67.281694 
L 436.816221 66.967514 
L 453.180285 66.739761 
L 481.442196 66.632263 
L 566.228618 66.606225 
L 566.228618 66.606225 
" clip-path="url(#p5c58d96efb)" style="fill: none; stroke-dasharray: 5.55,2.4; stroke-dashoffset: 0; stroke: #346aa9; stroke-width: 1.5"/>
   </g>
   <g id="patch_8">
    <path d="M 339.757423 167.726059 
L 339.757423 41.127855 
" style="fill: none; stroke: #262626; stroke-width: 1.25; stroke-linejoin: miter; stroke-linecap: square"/>
   </g>
   <g id="patch_9">
    <path d="M 577.01296 167.726059 
L 577.01296 41.127855 
" style="fill: none; stroke: #262626; stroke-width: 1.25; stroke-linejoin: miter; stroke-linecap: square"/>
   </g>
   <g id="patch_10">
    <path d="M 339.757423 167.726059 
L 577.01296 167.726059 
" style="fill: none; stroke: #262626; stroke-width: 1.25; stroke-linejoin: miter; stroke-linecap: square"/>
   </g>
   <g id="patch_11">
    <path d="M 339.757423 41.127855 
L 577.01296 41.127855 
" style="fill: none; stroke: #262626; stroke-width: 1.25; stroke-linejoin: miter; stroke-linecap: square"/>
   </g>
   <g id="text_19">
    <!-- Fit vs Experimental -->
    <g style="fill: #262626" transform="translate(407.373004 35.127855) scale(0.12 -0.12)">
     <defs>
      <path id="ArialMT-46" d="M 525 0 
L 525 4581 
L 3616 4581 
L 3616 4041 
L 1131 4041 
L 1131 2622 
L 3281 2622 
L 3281 2081 
L 1131 2081 
L 1131 0 
L 525 0 
z
" transform="scale(0.015625)"/>
      <path id="ArialMT-45" d="M 506 0 
L 506 4581 
L 3819 4581 
L 3819 4041 
L 1113 4041 
L 1113 2638 
L 3647 2638 
L 3647 2100 
L 1113 2100 
L 1113 541 
L 3925 541 
L 3925 0 
L 506 0 
z
" transform="scale(0.015625)"/>
      <path id="ArialMT-78" d="M 47 0 
L 1259 1725 
L 138 3319 
L 841 3319 
L 1350 2541 
Q 1494 2319 1581 2169 
Q 1719 2375 1834 2534 
L 2394 3319 
L 3066 3319 
L 1919 1756 
L 3153 0 
L 2463 0 
L 1781 1031 
L 1600 1309 
L 728 0 
L 47 0 
z
" transform="scale(0.015625)"/>
      <path id="ArialMT-70" d="M 422 -1272 
L 422 3319 
L 934 3319 
L 934 2888 
Q 1116 3141 1344 3267 
Q 1572 3394 1897 3394 
Q 2322 3394 2647 3175 
Q 2972 2956 3137 2557 
Q 3303 2159 3303 1684 
Q 3303 1175 3120 767 
Q 2938 359 2589 142 
Q 2241 -75 1856 -75 
Q 1575 -75 1351 44 
Q 1128 163 984 344 
L 984 -1272 
L 422 -1272 
z
M 931 1641 
Q 931 1000 1190 694 
Q 1450 388 1819 388 
Q 2194 388 2461 705 
Q 2728 1022 2728 1688 
Q 2728 2322 2467 2637 
Q 2206 2953 1844 2953 
Q 1484 2953 1207 2617 
Q 931 2281 931 1641 
z
" transform="scale(0.015625)"/>
      <path id="ArialMT-6c" d="M 409 0 
L 409 4581 
L 972 4581 
L 972 0 
L 409 0 
z
" transform="scale(0.015625)"/>
     </defs>
     <use xlink:href="#ArialMT-46"/>
     <use xlink:href="#ArialMT-69" x="61.083984"/>
     <use xlink:href="#ArialMT-74" x="83.300781"/>
     <use xlink:href="#ArialMT-20" x="111.083984"/>
     <use xlink:href="#ArialMT-76" x="138.867188"/>
     <use xlink:href="#ArialMT-73" x="188.867188"/>
     <use xlink:href="#ArialMT-20" x="238.867188"/>
     <use xlink:href="#ArialMT-45" x="266.650391"/>
     <use xlink:href="#ArialMT-78" x="333.349609"/>
     <use xlink:href="#ArialMT-70" x="383.349609"/>
     <use xlink:href="#ArialMT-65" x="438.964844"/>
     <use xlink:href="#ArialMT-72" x="494.580078"/>
     <use xlink:href="#ArialMT-69" x="527.880859"/>
     <use xlink:href="#ArialMT-6d" x="550.097656"/>
     <use xlink:href="#ArialMT-65" x="633.398438"/>
     <use xlink:href="#ArialMT-6e" x="689.013672"/>
     <use xlink:href="#ArialMT-74" x="744.628906"/>
     <use xlink:href="#ArialMT-61" x="772.412109"/>
     <use xlink:href="#ArialMT-6c" x="828.027344"/>
    </g>
   </g>
   <g id="legend_2">
    <g id="line2d_40">
     <path d="M 355.419679 112.622591 
L 366.419679 112.622591 
L 377.419679 112.622591 
" style="fill: none; stroke: #e16203; stroke-opacity: 0.5; stroke-width: 8; stroke-linecap: round"/>
    </g>
    <g id="text_20">
     <!-- Experimental Data -->
     <g style="fill: #262626" transform="translate(386.219679 116.472591) scale(0.11 -0.11)">
      <defs>
       <path id="ArialMT-44" d="M 494 0 
L 494 4581 
L 2072 4581 
Q 2606 4581 2888 4516 
Q 3281 4425 3559 4188 
Q 3922 3881 4101 3404 
Q 4281 2928 4281 2316 
Q 4281 1794 4159 1391 
Q 4038 988 3847 723 
Q 3656 459 3429 307 
Q 3203 156 2883 78 
Q 2563 0 2147 0 
L 494 0 
z
M 1100 541 
L 2078 541 
Q 2531 541 2789 625 
Q 3047 709 3200 863 
Q 3416 1078 3536 1442 
Q 3656 1806 3656 2325 
Q 3656 3044 3420 3430 
Q 3184 3816 2847 3947 
Q 2603 4041 2063 4041 
L 1100 4041 
L 1100 541 
z
" transform="scale(0.015625)"/>
      </defs>
      <use xlink:href="#ArialMT-45"/>
      <use xlink:href="#ArialMT-78" x="66.699219"/>
      <use xlink:href="#ArialMT-70" x="116.699219"/>
      <use xlink:href="#ArialMT-65" x="172.314453"/>
      <use xlink:href="#ArialMT-72" x="227.929688"/>
      <use xlink:href="#ArialMT-69" x="261.230469"/>
      <use xlink:href="#ArialMT-6d" x="283.447266"/>
      <use xlink:href="#ArialMT-65" x="366.748047"/>
      <use xlink:href="#ArialMT-6e" x="422.363281"/>
      <use xlink:href="#ArialMT-74" x="477.978516"/>
      <use xlink:href="#ArialMT-61" x="505.761719"/>
      <use xlink:href="#ArialMT-6c" x="561.376953"/>
      <use xlink:href="#ArialMT-20" x="583.59375"/>
      <use xlink:href="#ArialMT-44" x="611.376953"/>
      <use xlink:href="#ArialMT-61" x="683.59375"/>
      <use xlink:href="#ArialMT-74" x="739.208984"/>
      <use xlink:href="#ArialMT-61" x="766.992188"/>
     </g>
    </g>
    <g id="line2d_41">
     <path d="M 355.419679 141.079247 
L 366.419679 141.079247 
L 377.419679 141.079247 
" style="fill: none; stroke-dasharray: 5.55,2.4; stroke-dashoffset: 0; stroke: #346aa9; stroke-width: 1.5"/>
    </g>
    <g id="text_21">
     <!-- Fit: -->
     <g style="fill: #262626" transform="translate(386.219679 132.032434) scale(0.11 -0.11)">
      <defs>
       <path id="ArialMT-3a" d="M 578 2678 
L 578 3319 
L 1219 3319 
L 1219 2678 
L 578 2678 
z
M 578 0 
L 578 641 
L 1219 641 
L 1219 0 
L 578 0 
z
" transform="scale(0.015625)"/>
      </defs>
      <use xlink:href="#ArialMT-46"/>
      <use xlink:href="#ArialMT-69" x="61.083984"/>
      <use xlink:href="#ArialMT-74" x="83.300781"/>
      <use xlink:href="#ArialMT-3a" x="111.083984"/>
     </g>
     <!-- QY_RtoP: 0.210 ± 0.003                     -->
     <g style="fill: #262626" transform="translate(386.219679 143.836122) scale(0.11 -0.11)">
      <defs>
       <path id="ArialMT-51" d="M 3966 491 
Q 4388 200 4744 66 
L 4566 -356 
Q 4072 -178 3581 206 
Q 3072 -78 2456 -78 
Q 1834 -78 1328 222 
Q 822 522 548 1065 
Q 275 1609 275 2291 
Q 275 2969 550 3525 
Q 825 4081 1333 4372 
Q 1841 4663 2469 4663 
Q 3103 4663 3612 4361 
Q 4122 4059 4389 3517 
Q 4656 2975 4656 2294 
Q 4656 1728 4484 1276 
Q 4313 825 3966 491 
z
M 2631 1266 
Q 3156 1119 3497 828 
Q 4031 1316 4031 2294 
Q 4031 2850 3842 3265 
Q 3653 3681 3289 3911 
Q 2925 4141 2472 4141 
Q 1794 4141 1347 3677 
Q 900 3213 900 2291 
Q 900 1397 1342 919 
Q 1784 441 2472 441 
Q 2797 441 3084 563 
Q 2800 747 2484 825 
L 2631 1266 
z
" transform="scale(0.015625)"/>
       <path id="ArialMT-59" d="M 1784 0 
L 1784 1941 
L 19 4581 
L 756 4581 
L 1659 3200 
Q 1909 2813 2125 2425 
Q 2331 2784 2625 3234 
L 3513 4581 
L 4219 4581 
L 2391 1941 
L 2391 0 
L 1784 0 
z
" transform="scale(0.015625)"/>
       <path id="ArialMT-5f" d="M -97 -1272 
L -97 -866 
L 3631 -866 
L 3631 -1272 
L -97 -1272 
z
" transform="scale(0.015625)"/>
       <path id="ArialMT-b1" d="M 1491 813 
L 1491 2072 
L 244 2072 
L 244 2594 
L 1491 2594 
L 1491 3841 
L 2022 3841 
L 2022 2594 
L 3269 2594 
L 3269 2072 
L 2022 2072 
L 2022 813 
L 1491 813 
z
M 3269 0 
L 244 0 
L 244 525 
L 3269 525 
L 3269 0 
z
" transform="scale(0.015625)"/>
      </defs>
      <use xlink:href="#ArialMT-51"/>
      <use xlink:href="#ArialMT-59" x="77.783203"/>
      <use xlink:href="#ArialMT-5f" x="144.482422"/>
      <use xlink:href="#ArialMT-52" x="200.097656"/>
      <use xlink:href="#ArialMT-74" x="272.314453"/>
      <use xlink:href="#ArialMT-6f" x="300.097656"/>
      <use xlink:href="#ArialMT-50" x="355.712891"/>
      <use xlink:href="#ArialMT-3a" x="422.412109"/>
      <use xlink:href="#ArialMT-20" x="450.195312"/>
      <use xlink:href="#ArialMT-30" x="477.978516"/>
      <use xlink:href="#ArialMT-2e" x="533.59375"/>
      <use xlink:href="#ArialMT-32" x="561.376953"/>
      <use xlink:href="#ArialMT-31" x="616.992188"/>
      <use xlink:href="#ArialMT-30" x="672.607422"/>
      <use xlink:href="#ArialMT-20" x="728.222656"/>
      <use xlink:href="#ArialMT-b1" x="756.005859"/>
      <use xlink:href="#ArialMT-20" x="810.888672"/>
      <use xlink:href="#ArialMT-30" x="838.671875"/>
      <use xlink:href="#ArialMT-2e" x="894.287109"/>
      <use xlink:href="#ArialMT-30" x="922.070312"/>
      <use xlink:href="#ArialMT-30" x="977.685547"/>
      <use xlink:href="#ArialMT-33" x="1033.300781"/>
      <use xlink:href="#ArialMT-20" x="1088.916016"/>
      <use xlink:href="#ArialMT-20" x="1116.699219"/>
      <use xlink:href="#ArialMT-20" x="1144.482422"/>
      <use xlink:href="#ArialMT-20" x="1172.265625"/>
      <use xlink:href="#ArialMT-20" x="1200.048828"/>
      <use xlink:href="#ArialMT-20" x="1227.832031"/>
      <use xlink:href="#ArialMT-20" x="1255.615234"/>
      <use xlink:href="#ArialMT-20" x="1283.398438"/>
      <use xlink:href="#ArialMT-20" x="1311.181641"/>
      <use xlink:href="#ArialMT-20" x="1338.964844"/>
      <use xlink:href="#ArialMT-20" x="1366.748047"/>
      <use xlink:href="#ArialMT-20" x="1394.53125"/>
      <use xlink:href="#ArialMT-20" x="1422.314453"/>
      <use xlink:href="#ArialMT-20" x="1450.097656"/>
      <use xlink:href="#ArialMT-20" x="1477.880859"/>
      <use xlink:href="#ArialMT-20" x="1505.664062"/>
      <use xlink:href="#ArialMT-20" x="1533.447266"/>
      <use xlink:href="#ArialMT-20" x="1561.230469"/>
      <use xlink:href="#ArialMT-20" x="1589.013672"/>
      <use xlink:href="#ArialMT-20" x="1616.796875"/>
     </g>
     <!-- QY_PtoR: 0.393 ± 0.006 -->
     <g style="fill: #262626" transform="translate(386.219679 155.639809) scale(0.11 -0.11)">
      <defs>
       <path id="ArialMT-39" d="M 350 1059 
L 891 1109 
Q 959 728 1153 556 
Q 1347 384 1650 384 
Q 1909 384 2104 503 
Q 2300 622 2425 820 
Q 2550 1019 2634 1356 
Q 2719 1694 2719 2044 
Q 2719 2081 2716 2156 
Q 2547 1888 2255 1720 
Q 1963 1553 1622 1553 
Q 1053 1553 659 1965 
Q 266 2378 266 3053 
Q 266 3750 677 4175 
Q 1088 4600 1706 4600 
Q 2153 4600 2523 4359 
Q 2894 4119 3086 3673 
Q 3278 3228 3278 2384 
Q 3278 1506 3087 986 
Q 2897 466 2520 194 
Q 2144 -78 1638 -78 
Q 1100 -78 759 220 
Q 419 519 350 1059 
z
M 2653 3081 
Q 2653 3566 2395 3850 
Q 2138 4134 1775 4134 
Q 1400 4134 1122 3828 
Q 844 3522 844 3034 
Q 844 2597 1108 2323 
Q 1372 2050 1759 2050 
Q 2150 2050 2401 2323 
Q 2653 2597 2653 3081 
z
" transform="scale(0.015625)"/>
      </defs>
      <use xlink:href="#ArialMT-51"/>
      <use xlink:href="#ArialMT-59" x="77.783203"/>
      <use xlink:href="#ArialMT-5f" x="144.482422"/>
      <use xlink:href="#ArialMT-50" x="200.097656"/>
      <use xlink:href="#ArialMT-74" x="266.796875"/>
      <use xlink:href="#ArialMT-6f" x="294.580078"/>
      <use xlink:href="#ArialMT-52" x="350.195312"/>
      <use xlink:href="#ArialMT-3a" x="422.412109"/>
      <use xlink:href="#ArialMT-20" x="450.195312"/>
      <use xlink:href="#ArialMT-30" x="477.978516"/>
      <use xlink:href="#ArialMT-2e" x="533.59375"/>
      <use xlink:href="#ArialMT-33" x="561.376953"/>
      <use xlink:href="#ArialMT-39" x="616.992188"/>
      <use xlink:href="#ArialMT-33" x="672.607422"/>
      <use xlink:href="#ArialMT-20" x="728.222656"/>
      <use xlink:href="#ArialMT-b1" x="756.005859"/>
      <use xlink:href="#ArialMT-20" x="810.888672"/>
      <use xlink:href="#ArialMT-30" x="838.671875"/>
      <use xlink:href="#ArialMT-2e" x="894.287109"/>
      <use xlink:href="#ArialMT-30" x="922.070312"/>
      <use xlink:href="#ArialMT-30" x="977.685547"/>
      <use xlink:href="#ArialMT-36" x="1033.300781"/>
     </g>
    </g>
   </g>
  </g>
  <g id="axes_3">
   <g id="patch_12">
    <path d="M 339.757423 254.378426 
L 577.01296 254.378426 
L 577.01296 212.179025 
L 339.757423 212.179025 
z
" style="fill: #ffffff"/>
   </g>
   <g id="matplotlib.axis_5">
    <g id="xtick_21">
     <g id="line2d_42">
      <g>
       <use xlink:href="#m2e5fdfb577" x="350.540236" y="254.378426" style="fill: #262626; stroke: #262626; stroke-width: 1.25"/>
      </g>
     </g>
     <g id="text_22">
      <!-- 0 -->
      <g style="fill: #262626" transform="translate(347.481721 271.75202) scale(0.11 -0.11)">
       <use xlink:href="#ArialMT-30"/>
      </g>
     </g>
    </g>
    <g id="xtick_22">
     <g id="line2d_43">
      <g>
       <use xlink:href="#m2e5fdfb577" x="399.883093" y="254.378426" style="fill: #262626; stroke: #262626; stroke-width: 1.25"/>
      </g>
     </g>
     <g id="text_23">
      <!-- 1000 -->
      <g style="fill: #262626" transform="translate(387.64903 271.75202) scale(0.11 -0.11)">
       <use xlink:href="#ArialMT-31"/>
       <use xlink:href="#ArialMT-30" x="55.615234"/>
       <use xlink:href="#ArialMT-30" x="111.230469"/>
       <use xlink:href="#ArialMT-30" x="166.845703"/>
      </g>
     </g>
    </g>
    <g id="xtick_23">
     <g id="line2d_44">
      <g>
       <use xlink:href="#m2e5fdfb577" x="449.225949" y="254.378426" style="fill: #262626; stroke: #262626; stroke-width: 1.25"/>
      </g>
     </g>
     <g id="text_24">
      <!-- 2000 -->
      <g style="fill: #262626" transform="translate(436.991886 271.75202) scale(0.11 -0.11)">
       <use xlink:href="#ArialMT-32"/>
       <use xlink:href="#ArialMT-30" x="55.615234"/>
       <use xlink:href="#ArialMT-30" x="111.230469"/>
       <use xlink:href="#ArialMT-30" x="166.845703"/>
      </g>
     </g>
    </g>
    <g id="xtick_24">
     <g id="line2d_45">
      <g>
       <use xlink:href="#m2e5fdfb577" x="498.568805" y="254.378426" style="fill: #262626; stroke: #262626; stroke-width: 1.25"/>
      </g>
     </g>
     <g id="text_25">
      <!-- 3000 -->
      <g style="fill: #262626" transform="translate(486.334743 271.75202) scale(0.11 -0.11)">
       <use xlink:href="#ArialMT-33"/>
       <use xlink:href="#ArialMT-30" x="55.615234"/>
       <use xlink:href="#ArialMT-30" x="111.230469"/>
       <use xlink:href="#ArialMT-30" x="166.845703"/>
      </g>
     </g>
    </g>
    <g id="xtick_25">
     <g id="line2d_46">
      <g>
       <use xlink:href="#m2e5fdfb577" x="547.911661" y="254.378426" style="fill: #262626; stroke: #262626; stroke-width: 1.25"/>
      </g>
     </g>
     <g id="text_26">
      <!-- 4000 -->
      <g style="fill: #262626" transform="translate(535.677599 271.75202) scale(0.11 -0.11)">
       <use xlink:href="#ArialMT-34"/>
       <use xlink:href="#ArialMT-30" x="55.615234"/>
       <use xlink:href="#ArialMT-30" x="111.230469"/>
       <use xlink:href="#ArialMT-30" x="166.845703"/>
      </g>
     </g>
    </g>
    <g id="xtick_26">
     <g id="line2d_47">
      <g>
       <use xlink:href="#m4c8a5db313" x="375.211664" y="254.378426" style="fill: #262626; stroke: #262626"/>
      </g>
     </g>
    </g>
    <g id="xtick_27">
     <g id="line2d_48">
      <g>
       <use xlink:href="#m4c8a5db313" x="424.554521" y="254.378426" style="fill: #262626; stroke: #262626"/>
      </g>
     </g>
    </g>
    <g id="xtick_28">
     <g id="line2d_49">
      <g>
       <use xlink:href="#m4c8a5db313" x="473.897377" y="254.378426" style="fill: #262626; stroke: #262626"/>
      </g>
     </g>
    </g>
    <g id="xtick_29">
     <g id="line2d_50">
      <g>
       <use xlink:href="#m4c8a5db313" x="523.240233" y="254.378426" style="fill: #262626; stroke: #262626"/>
      </g>
     </g>
    </g>
    <g id="xtick_30">
     <g id="line2d_51">
      <g>
       <use xlink:href="#m4c8a5db313" x="572.58309" y="254.378426" style="fill: #262626; stroke: #262626"/>
      </g>
     </g>
    </g>
    <g id="text_27">
     <!-- Time (s) -->
     <g style="fill: #262626" transform="translate(436.615504 286.673895) scale(0.12 -0.12)">
      <use xlink:href="#ArialMT-54"/>
      <use xlink:href="#ArialMT-69" x="57.333984"/>
      <use xlink:href="#ArialMT-6d" x="79.550781"/>
      <use xlink:href="#ArialMT-65" x="162.851562"/>
      <use xlink:href="#ArialMT-20" x="218.466797"/>
      <use xlink:href="#ArialMT-28" x="246.25"/>
      <use xlink:href="#ArialMT-73" x="279.550781"/>
      <use xlink:href="#ArialMT-29" x="329.550781"/>
     </g>
    </g>
   </g>
   <g id="matplotlib.axis_6">
    <g id="ytick_14">
     <g id="line2d_52">
      <g>
       <use xlink:href="#m8e0b5aaa6e" x="339.757423" y="251.248146" style="fill: #262626; stroke: #262626; stroke-width: 1.25"/>
      </g>
     </g>
     <g id="text_28">
      <!-- −0.001 -->
      <g style="fill: #262626" transform="translate(296.308673 255.184943) scale(0.11 -0.11)">
       <use xlink:href="#ArialMT-2212"/>
       <use xlink:href="#ArialMT-30" x="58.398438"/>
       <use xlink:href="#ArialMT-2e" x="114.013672"/>
       <use xlink:href="#ArialMT-30" x="141.796875"/>
       <use xlink:href="#ArialMT-30" x="197.412109"/>
       <use xlink:href="#ArialMT-31" x="253.027344"/>
      </g>
     </g>
    </g>
    <g id="ytick_15">
     <g id="line2d_53">
      <g>
       <use xlink:href="#m8e0b5aaa6e" x="339.757423" y="231.866255" style="fill: #262626; stroke: #262626; stroke-width: 1.25"/>
      </g>
     </g>
     <g id="text_29">
      <!-- 0.000 -->
      <g style="fill: #262626" transform="translate(302.733361 235.803052) scale(0.11 -0.11)">
       <use xlink:href="#ArialMT-30"/>
       <use xlink:href="#ArialMT-2e" x="55.615234"/>
       <use xlink:href="#ArialMT-30" x="83.398438"/>
       <use xlink:href="#ArialMT-30" x="139.013672"/>
       <use xlink:href="#ArialMT-30" x="194.628906"/>
      </g>
     </g>
    </g>
    <g id="ytick_16">
     <g id="line2d_54">
      <g>
       <use xlink:href="#m8e0b5aaa6e" x="339.757423" y="212.484364" style="fill: #262626; stroke: #262626; stroke-width: 1.25"/>
      </g>
     </g>
     <g id="text_30">
      <!-- 0.001 -->
      <g style="fill: #262626" transform="translate(302.733361 216.421161) scale(0.11 -0.11)">
       <use xlink:href="#ArialMT-30"/>
       <use xlink:href="#ArialMT-2e" x="55.615234"/>
       <use xlink:href="#ArialMT-30" x="83.398438"/>
       <use xlink:href="#ArialMT-30" x="139.013672"/>
       <use xlink:href="#ArialMT-31" x="194.628906"/>
      </g>
     </g>
    </g>
    <g id="ytick_17">
     <g id="line2d_55">
      <g>
       <use xlink:href="#m98002c0b5c" x="339.757423" y="241.557201" style="fill: #262626; stroke: #262626"/>
      </g>
     </g>
    </g>
    <g id="ytick_18">
     <g id="line2d_56">
      <g>
       <use xlink:href="#m98002c0b5c" x="339.757423" y="222.175309" style="fill: #262626; stroke: #262626"/>
      </g>
     </g>
    </g>
    <g id="text_31">
     <!-- Residuals Abs -->
     <g style="fill: #262626" transform="translate(289.923673 271.299976) rotate(-90) scale(0.12 -0.12)">
      <use xlink:href="#ArialMT-52"/>
      <use xlink:href="#ArialMT-65" x="72.216797"/>
      <use xlink:href="#ArialMT-73" x="127.832031"/>
      <use xlink:href="#ArialMT-69" x="177.832031"/>
      <use xlink:href="#ArialMT-64" x="200.048828"/>
      <use xlink:href="#ArialMT-75" x="255.664062"/>
      <use xlink:href="#ArialMT-61" x="311.279297"/>
      <use xlink:href="#ArialMT-6c" x="366.894531"/>
      <use xlink:href="#ArialMT-73" x="389.111328"/>
      <use xlink:href="#ArialMT-20" x="439.111328"/>
      <use xlink:href="#ArialMT-41" x="461.394531"/>
      <use xlink:href="#ArialMT-62" x="528.09375"/>
      <use xlink:href="#ArialMT-73" x="583.708984"/>
     </g>
    </g>
   </g>
   <g id="line2d_57">
    <path d="M 350.541766 230.135467 
L 352.02896 227.026881 
L 353.517732 235.426484 
L 355.004975 233.952645 
L 356.492218 230.849096 
L 357.979412 233.447285 
L 359.466655 235.270442 
L 360.953849 223.254365 
L 362.441881 245.025579 
L 363.929075 232.729805 
L 365.416318 233.415604 
L 366.903561 221.844124 
L 368.391544 231.524707 
L 369.878738 226.574587 
L 371.365981 230.606199 
L 372.853224 230.806006 
L 374.340418 227.153978 
L 375.827661 231.255055 
L 377.314904 232.236516 
L 378.802097 226.988654 
L 380.28934 225.572451 
L 381.776534 231.071131 
L 383.263777 221.565097 
L 384.75102 226.11077 
L 386.238214 218.15644 
L 387.725457 229.095082 
L 389.21423 234.688808 
L 390.701423 225.626201 
L 392.189456 224.766868 
L 393.676649 226.486841 
L 395.163892 225.358193 
L 396.651876 227.383423 
L 398.139119 226.161312 
L 399.627102 229.632302 
L 401.114345 228.805783 
L 402.601539 219.011852 
L 404.088782 218.927082 
L 405.576025 231.264946 
L 407.063218 220.944229 
L 408.551991 216.649873 
L 410.040764 235.437407 
L 411.528007 222.649672 
L 413.0152 219.763701 
L 414.502443 220.964915 
L 415.990427 215.980852 
L 418.965653 232.029464 
L 420.453636 214.097179 
L 421.942409 225.053306 
L 423.429652 216.830888 
L 424.916845 215.401565 
L 426.404088 222.703212 
L 427.891331 218.962662 
L 429.378525 222.397837 
L 430.865768 218.278498 
L 432.352962 221.334884 
L 433.840994 232.729886 
L 435.328188 221.064698 
L 436.816221 228.202662 
L 438.303414 224.876837 
L 439.790657 222.134879 
L 441.277851 224.434627 
L 442.766624 225.186211 
L 444.253867 225.746298 
L 445.74111 224.757447 
L 447.228303 220.281359 
L 448.715546 231.893744 
L 450.20353 220.055536 
L 451.691513 214.808676 
L 453.180285 225.844001 
L 454.667528 226.801713 
L 456.155512 232.799614 
L 457.642755 230.464211 
L 459.129948 231.036995 
L 460.617981 244.596546 
L 462.105964 230.246992 
L 463.593158 222.681638 
L 465.080401 230.234667 
L 466.567644 226.35289 
L 468.054837 223.440717 
L 469.54208 230.413818 
L 471.030853 223.432403 
L 472.518047 228.855696 
L 474.00529 228.464707 
L 475.492533 227.492546 
L 476.979727 232.722875 
L 478.46697 224.579984 
L 479.954953 228.066474 
L 481.442196 238.336792 
L 482.929389 221.860264 
L 484.416633 239.108391 
L 485.904616 220.694001 
L 487.392648 220.886391 
L 488.879842 227.281124 
L 490.367085 224.372645 
L 491.855858 232.705756 
L 493.343051 229.991287 
L 494.830294 238.518409 
L 496.317537 236.579405 
L 497.804731 220.685517 
L 499.291974 241.03582 
L 500.779168 233.282436 
L 502.26794 226.304382 
L 503.755973 241.421738 
L 505.243956 234.443786 
L 506.73115 237.35027 
L 508.218393 229.015291 
L 509.705636 227.464007 
L 511.193619 235.409882 
L 512.680862 237.153585 
L 514.168056 230.175471 
L 515.655299 236.764713 
L 517.143282 239.47761 
L 518.632055 236.182154 
L 520.119298 223.389605 
L 521.606491 230.366618 
L 523.093734 230.753821 
L 524.581718 231.334875 
L 526.068961 232.49742 
L 527.556154 239.086928 
L 529.043397 238.892807 
L 530.53138 239.667813 
L 532.018623 240.249034 
L 533.505817 238.310642 
L 534.99306 236.566102 
L 536.480303 239.473249 
L 537.967497 233.077121 
L 539.45474 243.93091 
L 540.941983 237.147211 
L 542.429177 247.22579 
L 543.91642 225.324282 
L 545.403613 236.178204 
L 546.890856 237.922669 
L 548.378099 229.782403 
L 549.865293 235.790951 
L 551.352536 237.147878 
L 552.842049 244.319406 
L 554.329292 235.985454 
L 555.816535 241.800315 
L 557.303729 235.598402 
L 558.790972 239.862327 
L 560.278215 231.334212 
L 561.765408 243.544728 
L 563.253392 240.443558 
L 564.741424 252.460272 
L 566.228618 244.707464 
L 566.228618 244.707464 
" clip-path="url(#pa938b46c55)" style="fill: none; stroke: #e16203; stroke-width: 1.5; stroke-linecap: round"/>
   </g>
   <g id="patch_13">
    <path d="M 339.757423 254.378426 
L 339.757423 212.179025 
" style="fill: none; stroke: #262626; stroke-width: 1.25; stroke-linejoin: miter; stroke-linecap: square"/>
   </g>
   <g id="patch_14">
    <path d="M 577.01296 254.378426 
L 577.01296 212.179025 
" style="fill: none; stroke: #262626; stroke-width: 1.25; stroke-linejoin: miter; stroke-linecap: square"/>
   </g>
   <g id="patch_15">
    <path d="M 339.757423 254.378426 
L 577.01296 254.378426 
" style="fill: none; stroke: #262626; stroke-width: 1.25; stroke-linejoin: miter; stroke-linecap: square"/>
   </g>
   <g id="patch_16">
    <path d="M 339.757423 212.179025 
L 577.01296 212.179025 
" style="fill: none; stroke: #262626; stroke-width: 1.25; stroke-linejoin: miter; stroke-linecap: square"/>
   </g>
  </g>
  <g id="axes_4"/>
  <g id="text_32">
   <!-- 455 nm irradiation: Integration Method -->
   <g style="fill: #262626" transform="translate(170.53776 17.50725) scale(0.144 -0.144)">
    <defs>
     <path id="ArialMT-49" d="M 597 0 
L 597 4581 
L 1203 4581 
L 1203 0 
L 597 0 
z
" transform="scale(0.015625)"/>
     <path id="ArialMT-67" d="M 319 -275 
L 866 -356 
Q 900 -609 1056 -725 
Q 1266 -881 1628 -881 
Q 2019 -881 2231 -725 
Q 2444 -569 2519 -288 
Q 2563 -116 2559 434 
Q 2191 0 1641 0 
Q 956 0 581 494 
Q 206 988 206 1678 
Q 206 2153 378 2554 
Q 550 2956 876 3175 
Q 1203 3394 1644 3394 
Q 2231 3394 2613 2919 
L 2613 3319 
L 3131 3319 
L 3131 450 
Q 3131 -325 2973 -648 
Q 2816 -972 2473 -1159 
Q 2131 -1347 1631 -1347 
Q 1038 -1347 672 -1080 
Q 306 -813 319 -275 
z
M 784 1719 
Q 784 1066 1043 766 
Q 1303 466 1694 466 
Q 2081 466 2343 764 
Q 2606 1063 2606 1700 
Q 2606 2309 2336 2618 
Q 2066 2928 1684 2928 
Q 1309 2928 1046 2623 
Q 784 2319 784 1719 
z
" transform="scale(0.015625)"/>
     <path id="ArialMT-68" d="M 422 0 
L 422 4581 
L 984 4581 
L 984 2938 
Q 1378 3394 1978 3394 
Q 2347 3394 2619 3248 
Q 2891 3103 3008 2847 
Q 3125 2591 3125 2103 
L 3125 0 
L 2563 0 
L 2563 2103 
Q 2563 2525 2380 2717 
Q 2197 2909 1863 2909 
Q 1613 2909 1392 2779 
Q 1172 2650 1078 2428 
Q 984 2206 984 1816 
L 984 0 
L 422 0 
z
" transform="scale(0.015625)"/>
    </defs>
    <use xlink:href="#ArialMT-34"/>
    <use xlink:href="#ArialMT-35" x="55.615234"/>
    <use xlink:href="#ArialMT-35" x="111.230469"/>
    <use xlink:href="#ArialMT-20" x="166.845703"/>
    <use xlink:href="#ArialMT-6e" x="194.628906"/>
    <use xlink:href="#ArialMT-6d" x="250.244141"/>
    <use xlink:href="#ArialMT-20" x="333.544922"/>
    <use xlink:href="#ArialMT-69" x="361.328125"/>
    <use xlink:href="#ArialMT-72" x="383.544922"/>
    <use xlink:href="#ArialMT-72" x="416.845703"/>
    <use xlink:href="#ArialMT-61" x="450.146484"/>
    <use xlink:href="#ArialMT-64" x="505.761719"/>
    <use xlink:href="#ArialMT-69" x="561.376953"/>
    <use xlink:href="#ArialMT-61" x="583.59375"/>
    <use xlink:href="#ArialMT-74" x="639.208984"/>
    <use xlink:href="#ArialMT-69" x="666.992188"/>
    <use xlink:href="#ArialMT-6f" x="689.208984"/>
    <use xlink:href="#ArialMT-6e" x="744.824219"/>
    <use xlink:href="#ArialMT-3a" x="800.439453"/>
    <use xlink:href="#ArialMT-20" x="828.222656"/>
    <use xlink:href="#ArialMT-49" x="856.005859"/>
    <use xlink:href="#ArialMT-6e" x="883.789062"/>
    <use xlink:href="#ArialMT-74" x="939.404297"/>
    <use xlink:href="#ArialMT-65" x="967.1875"/>
    <use xlink:href="#ArialMT-67" x="1022.802734"/>
    <use xlink:href="#ArialMT-72" x="1078.417969"/>
    <use xlink:href="#ArialMT-61" x="1111.71875"/>
    <use xlink:href="#ArialMT-74" x="1167.333984"/>
    <use xlink:href="#ArialMT-69" x="1195.117188"/>
    <use xlink:href="#ArialMT-6f" x="1217.333984"/>
    <use xlink:href="#ArialMT-6e" x="1272.949219"/>
    <use xlink:href="#ArialMT-20" x="1328.564453"/>
    <use xlink:href="#ArialMT-4d" x="1356.347656"/>
    <use xlink:href="#ArialMT-65" x="1439.648438"/>
    <use xlink:href="#ArialMT-74" x="1495.263672"/>
    <use xlink:href="#ArialMT-68" x="1523.046875"/>
    <use xlink:href="#ArialMT-6f" x="1578.662109"/>
    <use xlink:href="#ArialMT-64" x="1634.277344"/>
   </g>
  </g>
 </g>
 <defs>
  <clipPath id="p65f6bfca13">
   <rect x="38.078281" y="41.127855" width="237.255537" height="126.598204"/>
  </clipPath>
  <clipPath id="p5c58d96efb">
   <rect x="339.757423" y="41.127855" width="237.255537" height="126.598204"/>
  </clipPath>
  <clipPath id="pa938b46c55">
   <rect x="339.757423" y="212.179025" width="237.255537" height="42.199401"/>
  </clipPath>
 </defs>
</svg>
