<?xml version="1.0" encoding="utf-8" standalone="no"?>
<!DOCTYPE svg PUBLIC "-//W3C//DTD SVG 1.1//EN"
  "http://www.w3.org/Graphics/SVG/1.1/DTD/svg11.dtd">
<svg xmlns:xlink="http://www.w3.org/1999/xlink" width="584.39952pt" height="296.39952pt" viewBox="0 0 584.39952 296.39952" xmlns="http://www.w3.org/2000/svg" version="1.1">
 <metadata>
  <rdf:RDF xmlns:dc="http://purl.org/dc/elements/1.1/" xmlns:cc="http://creativecommons.org/ns#" xmlns:rdf="http://www.w3.org/1999/02/22-rdf-syntax-ns#">
   <cc:Work>
    <dc:type rdf:resource="http://purl.org/dc/dcmitype/StillImage"/>
    <dc:date>2024-12-17T17:26:02.765123</dc:date>
    <dc:format>image/svg+xml</dc:format>
    <dc:creator>
     <cc:Agent>
      <dc:title>Matplotlib v3.8.4, https://matplotlib.org/</dc:title>
     </cc:Agent>
    </dc:creator>
   </cc:Work>
  </rdf:RDF>
 </metadata>
 <defs>
  <style type="text/css">*{stroke-linejoin: round; stroke-linecap: butt}</style>
 </defs>
 <g id="figure_1">
  <g id="patch_1">
   <path d="M 0 296.39952 
L 584.39952 296.39952 
L 584.39952 0 
L 0 0 
z
" style="fill: #ffffff"/>
  </g>
  <g id="axes_1">
   <g id="patch_2">
    <path d="M 46.965625 175.738761 
L 284.429208 175.738761 
L 284.429208 39.932355 
L 46.965625 39.932355 
z
" style="fill: #ffffff"/>
   </g>
   <g id="matplotlib.axis_1">
    <g id="xtick_1">
     <g id="line2d_1">
      <defs>
       <path id="m51e5271ef1" d="M 0 0 
L 0 3.5 
" style="stroke: #000000; stroke-width: 0.8"/>
      </defs>
      <g>
       <use xlink:href="#m51e5271ef1" x="57.722718" y="175.738761" style="stroke: #000000; stroke-width: 0.8"/>
      </g>
     </g>
     <g id="text_1">
      <!-- 0 -->
      <g transform="translate(54.541468 190.337198) scale(0.1 -0.1)">
       <defs>
        <path id="DejaVuSans-30" d="M 2034 4250 
Q 1547 4250 1301 3770 
Q 1056 3291 1056 2328 
Q 1056 1369 1301 889 
Q 1547 409 2034 409 
Q 2525 409 2770 889 
Q 3016 1369 3016 2328 
Q 3016 3291 2770 3770 
Q 2525 4250 2034 4250 
z
M 2034 4750 
Q 2819 4750 3233 4129 
Q 3647 3509 3647 2328 
Q 3647 1150 3233 529 
Q 2819 -91 2034 -91 
Q 1250 -91 836 529 
Q 422 1150 422 2328 
Q 422 3509 836 4129 
Q 1250 4750 2034 4750 
z
" transform="scale(0.015625)"/>
       </defs>
       <use xlink:href="#DejaVuSans-30"/>
      </g>
     </g>
    </g>
    <g id="xtick_2">
     <g id="line2d_2">
      <g>
       <use xlink:href="#m51e5271ef1" x="115.986482" y="175.738761" style="stroke: #000000; stroke-width: 0.8"/>
      </g>
     </g>
     <g id="text_2">
      <!-- 100 -->
      <g transform="translate(106.442732 190.337198) scale(0.1 -0.1)">
       <defs>
        <path id="DejaVuSans-31" d="M 794 531 
L 1825 531 
L 1825 4091 
L 703 3866 
L 703 4441 
L 1819 4666 
L 2450 4666 
L 2450 531 
L 3481 531 
L 3481 0 
L 794 0 
L 794 531 
z
" transform="scale(0.015625)"/>
       </defs>
       <use xlink:href="#DejaVuSans-31"/>
       <use xlink:href="#DejaVuSans-30" x="63.623047"/>
       <use xlink:href="#DejaVuSans-30" x="127.246094"/>
      </g>
     </g>
    </g>
    <g id="xtick_3">
     <g id="line2d_3">
      <g>
       <use xlink:href="#m51e5271ef1" x="174.250245" y="175.738761" style="stroke: #000000; stroke-width: 0.8"/>
      </g>
     </g>
     <g id="text_3">
      <!-- 200 -->
      <g transform="translate(164.706495 190.337198) scale(0.1 -0.1)">
       <defs>
        <path id="DejaVuSans-32" d="M 1228 531 
L 3431 531 
L 3431 0 
L 469 0 
L 469 531 
Q 828 903 1448 1529 
Q 2069 2156 2228 2338 
Q 2531 2678 2651 2914 
Q 2772 3150 2772 3378 
Q 2772 3750 2511 3984 
Q 2250 4219 1831 4219 
Q 1534 4219 1204 4116 
Q 875 4013 500 3803 
L 500 4441 
Q 881 4594 1212 4672 
Q 1544 4750 1819 4750 
Q 2544 4750 2975 4387 
Q 3406 4025 3406 3419 
Q 3406 3131 3298 2873 
Q 3191 2616 2906 2266 
Q 2828 2175 2409 1742 
Q 1991 1309 1228 531 
z
" transform="scale(0.015625)"/>
       </defs>
       <use xlink:href="#DejaVuSans-32"/>
       <use xlink:href="#DejaVuSans-30" x="63.623047"/>
       <use xlink:href="#DejaVuSans-30" x="127.246094"/>
      </g>
     </g>
    </g>
    <g id="xtick_4">
     <g id="line2d_4">
      <g>
       <use xlink:href="#m51e5271ef1" x="232.514009" y="175.738761" style="stroke: #000000; stroke-width: 0.8"/>
      </g>
     </g>
     <g id="text_4">
      <!-- 300 -->
      <g transform="translate(222.970259 190.337198) scale(0.1 -0.1)">
       <defs>
        <path id="DejaVuSans-33" d="M 2597 2516 
Q 3050 2419 3304 2112 
Q 3559 1806 3559 1356 
Q 3559 666 3084 287 
Q 2609 -91 1734 -91 
Q 1441 -91 1130 -33 
Q 819 25 488 141 
L 488 750 
Q 750 597 1062 519 
Q 1375 441 1716 441 
Q 2309 441 2620 675 
Q 2931 909 2931 1356 
Q 2931 1769 2642 2001 
Q 2353 2234 1838 2234 
L 1294 2234 
L 1294 2753 
L 1863 2753 
Q 2328 2753 2575 2939 
Q 2822 3125 2822 3475 
Q 2822 3834 2567 4026 
Q 2313 4219 1838 4219 
Q 1578 4219 1281 4162 
Q 984 4106 628 3988 
L 628 4550 
Q 988 4650 1302 4700 
Q 1616 4750 1894 4750 
Q 2613 4750 3031 4423 
Q 3450 4097 3450 3541 
Q 3450 3153 3228 2886 
Q 3006 2619 2597 2516 
z
" transform="scale(0.015625)"/>
       </defs>
       <use xlink:href="#DejaVuSans-33"/>
       <use xlink:href="#DejaVuSans-30" x="63.623047"/>
       <use xlink:href="#DejaVuSans-30" x="127.246094"/>
      </g>
     </g>
    </g>
    <g id="xtick_5">
     <g id="line2d_5">
      <defs>
       <path id="mbc8765ebb2" d="M 0 0 
L 0 2 
" style="stroke: #000000; stroke-width: 0.6"/>
      </defs>
      <g>
       <use xlink:href="#mbc8765ebb2" x="86.8546" y="175.738761" style="stroke: #000000; stroke-width: 0.6"/>
      </g>
     </g>
    </g>
    <g id="xtick_6">
     <g id="line2d_6">
      <g>
       <use xlink:href="#mbc8765ebb2" x="145.118364" y="175.738761" style="stroke: #000000; stroke-width: 0.6"/>
      </g>
     </g>
    </g>
    <g id="xtick_7">
     <g id="line2d_7">
      <g>
       <use xlink:href="#mbc8765ebb2" x="203.382127" y="175.738761" style="stroke: #000000; stroke-width: 0.6"/>
      </g>
     </g>
    </g>
    <g id="xtick_8">
     <g id="line2d_8">
      <g>
       <use xlink:href="#mbc8765ebb2" x="261.645891" y="175.738761" style="stroke: #000000; stroke-width: 0.6"/>
      </g>
     </g>
    </g>
    <g id="text_5">
     <!-- Time (s) -->
     <g transform="translate(145.36851 204.015323) scale(0.1 -0.1)">
      <defs>
       <path id="DejaVuSans-54" d="M -19 4666 
L 3928 4666 
L 3928 4134 
L 2272 4134 
L 2272 0 
L 1638 0 
L 1638 4134 
L -19 4134 
L -19 4666 
z
" transform="scale(0.015625)"/>
       <path id="DejaVuSans-69" d="M 603 3500 
L 1178 3500 
L 1178 0 
L 603 0 
L 603 3500 
z
M 603 4863 
L 1178 4863 
L 1178 4134 
L 603 4134 
L 603 4863 
z
" transform="scale(0.015625)"/>
       <path id="DejaVuSans-6d" d="M 3328 2828 
Q 3544 3216 3844 3400 
Q 4144 3584 4550 3584 
Q 5097 3584 5394 3201 
Q 5691 2819 5691 2113 
L 5691 0 
L 5113 0 
L 5113 2094 
Q 5113 2597 4934 2840 
Q 4756 3084 4391 3084 
Q 3944 3084 3684 2787 
Q 3425 2491 3425 1978 
L 3425 0 
L 2847 0 
L 2847 2094 
Q 2847 2600 2669 2842 
Q 2491 3084 2119 3084 
Q 1678 3084 1418 2786 
Q 1159 2488 1159 1978 
L 1159 0 
L 581 0 
L 581 3500 
L 1159 3500 
L 1159 2956 
Q 1356 3278 1631 3431 
Q 1906 3584 2284 3584 
Q 2666 3584 2933 3390 
Q 3200 3197 3328 2828 
z
" transform="scale(0.015625)"/>
       <path id="DejaVuSans-65" d="M 3597 1894 
L 3597 1613 
L 953 1613 
Q 991 1019 1311 708 
Q 1631 397 2203 397 
Q 2534 397 2845 478 
Q 3156 559 3463 722 
L 3463 178 
Q 3153 47 2828 -22 
Q 2503 -91 2169 -91 
Q 1331 -91 842 396 
Q 353 884 353 1716 
Q 353 2575 817 3079 
Q 1281 3584 2069 3584 
Q 2775 3584 3186 3129 
Q 3597 2675 3597 1894 
z
M 3022 2063 
Q 3016 2534 2758 2815 
Q 2500 3097 2075 3097 
Q 1594 3097 1305 2825 
Q 1016 2553 972 2059 
L 3022 2063 
z
" transform="scale(0.015625)"/>
       <path id="DejaVuSans-20" transform="scale(0.015625)"/>
       <path id="DejaVuSans-28" d="M 1984 4856 
Q 1566 4138 1362 3434 
Q 1159 2731 1159 2009 
Q 1159 1288 1364 580 
Q 1569 -128 1984 -844 
L 1484 -844 
Q 1016 -109 783 600 
Q 550 1309 550 2009 
Q 550 2706 781 3412 
Q 1013 4119 1484 4856 
L 1984 4856 
z
" transform="scale(0.015625)"/>
       <path id="DejaVuSans-73" d="M 2834 3397 
L 2834 2853 
Q 2591 2978 2328 3040 
Q 2066 3103 1784 3103 
Q 1356 3103 1142 2972 
Q 928 2841 928 2578 
Q 928 2378 1081 2264 
Q 1234 2150 1697 2047 
L 1894 2003 
Q 2506 1872 2764 1633 
Q 3022 1394 3022 966 
Q 3022 478 2636 193 
Q 2250 -91 1575 -91 
Q 1294 -91 989 -36 
Q 684 19 347 128 
L 347 722 
Q 666 556 975 473 
Q 1284 391 1588 391 
Q 1994 391 2212 530 
Q 2431 669 2431 922 
Q 2431 1156 2273 1281 
Q 2116 1406 1581 1522 
L 1381 1569 
Q 847 1681 609 1914 
Q 372 2147 372 2553 
Q 372 3047 722 3315 
Q 1072 3584 1716 3584 
Q 2034 3584 2315 3537 
Q 2597 3491 2834 3397 
z
" transform="scale(0.015625)"/>
       <path id="DejaVuSans-29" d="M 513 4856 
L 1013 4856 
Q 1481 4119 1714 3412 
Q 1947 2706 1947 2009 
Q 1947 1309 1714 600 
Q 1481 -109 1013 -844 
L 513 -844 
Q 928 -128 1133 580 
Q 1338 1288 1338 2009 
Q 1338 2731 1133 3434 
Q 928 4138 513 4856 
z
" transform="scale(0.015625)"/>
      </defs>
      <use xlink:href="#DejaVuSans-54"/>
      <use xlink:href="#DejaVuSans-69" x="57.958984"/>
      <use xlink:href="#DejaVuSans-6d" x="85.742188"/>
      <use xlink:href="#DejaVuSans-65" x="183.154297"/>
      <use xlink:href="#DejaVuSans-20" x="244.677734"/>
      <use xlink:href="#DejaVuSans-28" x="276.464844"/>
      <use xlink:href="#DejaVuSans-73" x="315.478516"/>
      <use xlink:href="#DejaVuSans-29" x="367.578125"/>
     </g>
    </g>
   </g>
   <g id="matplotlib.axis_2">
    <g id="ytick_1">
     <g id="line2d_9">
      <defs>
       <path id="mf41c4264f5" d="M 0 0 
L -3.5 0 
" style="stroke: #000000; stroke-width: 0.8"/>
      </defs>
      <g>
       <use xlink:href="#mf41c4264f5" x="46.965625" y="169.565742" style="stroke: #000000; stroke-width: 0.8"/>
      </g>
     </g>
     <g id="text_6">
      <!-- 0 -->
      <g transform="translate(33.603125 173.364961) scale(0.1 -0.1)">
       <use xlink:href="#DejaVuSans-30"/>
      </g>
     </g>
    </g>
    <g id="ytick_2">
     <g id="line2d_10">
      <g>
       <use xlink:href="#mf41c4264f5" x="46.965625" y="144.873668" style="stroke: #000000; stroke-width: 0.8"/>
      </g>
     </g>
     <g id="text_7">
      <!-- 20 -->
      <g transform="translate(27.240625 148.672887) scale(0.1 -0.1)">
       <use xlink:href="#DejaVuSans-32"/>
       <use xlink:href="#DejaVuSans-30" x="63.623047"/>
      </g>
     </g>
    </g>
    <g id="ytick_3">
     <g id="line2d_11">
      <g>
       <use xlink:href="#mf41c4264f5" x="46.965625" y="120.181595" style="stroke: #000000; stroke-width: 0.8"/>
      </g>
     </g>
     <g id="text_8">
      <!-- 40 -->
      <g transform="translate(27.240625 123.980813) scale(0.1 -0.1)">
       <defs>
        <path id="DejaVuSans-34" d="M 2419 4116 
L 825 1625 
L 2419 1625 
L 2419 4116 
z
M 2253 4666 
L 3047 4666 
L 3047 1625 
L 3713 1625 
L 3713 1100 
L 3047 1100 
L 3047 0 
L 2419 0 
L 2419 1100 
L 313 1100 
L 313 1709 
L 2253 4666 
z
" transform="scale(0.015625)"/>
       </defs>
       <use xlink:href="#DejaVuSans-34"/>
       <use xlink:href="#DejaVuSans-30" x="63.623047"/>
      </g>
     </g>
    </g>
    <g id="ytick_4">
     <g id="line2d_12">
      <g>
       <use xlink:href="#mf41c4264f5" x="46.965625" y="95.489521" style="stroke: #000000; stroke-width: 0.8"/>
      </g>
     </g>
     <g id="text_9">
      <!-- 60 -->
      <g transform="translate(27.240625 99.28874) scale(0.1 -0.1)">
       <defs>
        <path id="DejaVuSans-36" d="M 2113 2584 
Q 1688 2584 1439 2293 
Q 1191 2003 1191 1497 
Q 1191 994 1439 701 
Q 1688 409 2113 409 
Q 2538 409 2786 701 
Q 3034 994 3034 1497 
Q 3034 2003 2786 2293 
Q 2538 2584 2113 2584 
z
M 3366 4563 
L 3366 3988 
Q 3128 4100 2886 4159 
Q 2644 4219 2406 4219 
Q 1781 4219 1451 3797 
Q 1122 3375 1075 2522 
Q 1259 2794 1537 2939 
Q 1816 3084 2150 3084 
Q 2853 3084 3261 2657 
Q 3669 2231 3669 1497 
Q 3669 778 3244 343 
Q 2819 -91 2113 -91 
Q 1303 -91 875 529 
Q 447 1150 447 2328 
Q 447 3434 972 4092 
Q 1497 4750 2381 4750 
Q 2619 4750 2861 4703 
Q 3103 4656 3366 4563 
z
" transform="scale(0.015625)"/>
       </defs>
       <use xlink:href="#DejaVuSans-36"/>
       <use xlink:href="#DejaVuSans-30" x="63.623047"/>
      </g>
     </g>
    </g>
    <g id="ytick_5">
     <g id="line2d_13">
      <g>
       <use xlink:href="#mf41c4264f5" x="46.965625" y="70.797447" style="stroke: #000000; stroke-width: 0.8"/>
      </g>
     </g>
     <g id="text_10">
      <!-- 80 -->
      <g transform="translate(27.240625 74.596666) scale(0.1 -0.1)">
       <defs>
        <path id="DejaVuSans-38" d="M 2034 2216 
Q 1584 2216 1326 1975 
Q 1069 1734 1069 1313 
Q 1069 891 1326 650 
Q 1584 409 2034 409 
Q 2484 409 2743 651 
Q 3003 894 3003 1313 
Q 3003 1734 2745 1975 
Q 2488 2216 2034 2216 
z
M 1403 2484 
Q 997 2584 770 2862 
Q 544 3141 544 3541 
Q 544 4100 942 4425 
Q 1341 4750 2034 4750 
Q 2731 4750 3128 4425 
Q 3525 4100 3525 3541 
Q 3525 3141 3298 2862 
Q 3072 2584 2669 2484 
Q 3125 2378 3379 2068 
Q 3634 1759 3634 1313 
Q 3634 634 3220 271 
Q 2806 -91 2034 -91 
Q 1263 -91 848 271 
Q 434 634 434 1313 
Q 434 1759 690 2068 
Q 947 2378 1403 2484 
z
M 1172 3481 
Q 1172 3119 1398 2916 
Q 1625 2713 2034 2713 
Q 2441 2713 2670 2916 
Q 2900 3119 2900 3481 
Q 2900 3844 2670 4047 
Q 2441 4250 2034 4250 
Q 1625 4250 1398 4047 
Q 1172 3844 1172 3481 
z
" transform="scale(0.015625)"/>
       </defs>
       <use xlink:href="#DejaVuSans-38"/>
       <use xlink:href="#DejaVuSans-30" x="63.623047"/>
      </g>
     </g>
    </g>
    <g id="ytick_6">
     <g id="line2d_14">
      <g>
       <use xlink:href="#mf41c4264f5" x="46.965625" y="46.105373" style="stroke: #000000; stroke-width: 0.8"/>
      </g>
     </g>
     <g id="text_11">
      <!-- 100 -->
      <g transform="translate(20.878125 49.904592) scale(0.1 -0.1)">
       <use xlink:href="#DejaVuSans-31"/>
       <use xlink:href="#DejaVuSans-30" x="63.623047"/>
       <use xlink:href="#DejaVuSans-30" x="127.246094"/>
      </g>
     </g>
    </g>
    <g id="ytick_7">
     <g id="line2d_15">
      <defs>
       <path id="m77398a4053" d="M 0 0 
L -2 0 
" style="stroke: #000000; stroke-width: 0.6"/>
      </defs>
      <g>
       <use xlink:href="#m77398a4053" x="46.965625" y="157.219705" style="stroke: #000000; stroke-width: 0.6"/>
      </g>
     </g>
    </g>
    <g id="ytick_8">
     <g id="line2d_16">
      <g>
       <use xlink:href="#m77398a4053" x="46.965625" y="132.527631" style="stroke: #000000; stroke-width: 0.6"/>
      </g>
     </g>
    </g>
    <g id="ytick_9">
     <g id="line2d_17">
      <g>
       <use xlink:href="#m77398a4053" x="46.965625" y="107.835558" style="stroke: #000000; stroke-width: 0.6"/>
      </g>
     </g>
    </g>
    <g id="ytick_10">
     <g id="line2d_18">
      <g>
       <use xlink:href="#m77398a4053" x="46.965625" y="83.143484" style="stroke: #000000; stroke-width: 0.6"/>
      </g>
     </g>
    </g>
    <g id="ytick_11">
     <g id="line2d_19">
      <g>
       <use xlink:href="#m77398a4053" x="46.965625" y="58.45141" style="stroke: #000000; stroke-width: 0.6"/>
      </g>
     </g>
    </g>
    <g id="text_12">
     <!-- Fraction (%) -->
     <g transform="translate(14.798437 138.036339) rotate(-90) scale(0.1 -0.1)">
      <defs>
       <path id="DejaVuSans-46" d="M 628 4666 
L 3309 4666 
L 3309 4134 
L 1259 4134 
L 1259 2759 
L 3109 2759 
L 3109 2228 
L 1259 2228 
L 1259 0 
L 628 0 
L 628 4666 
z
" transform="scale(0.015625)"/>
       <path id="DejaVuSans-72" d="M 2631 2963 
Q 2534 3019 2420 3045 
Q 2306 3072 2169 3072 
Q 1681 3072 1420 2755 
Q 1159 2438 1159 1844 
L 1159 0 
L 581 0 
L 581 3500 
L 1159 3500 
L 1159 2956 
Q 1341 3275 1631 3429 
Q 1922 3584 2338 3584 
Q 2397 3584 2469 3576 
Q 2541 3569 2628 3553 
L 2631 2963 
z
" transform="scale(0.015625)"/>
       <path id="DejaVuSans-61" d="M 2194 1759 
Q 1497 1759 1228 1600 
Q 959 1441 959 1056 
Q 959 750 1161 570 
Q 1363 391 1709 391 
Q 2188 391 2477 730 
Q 2766 1069 2766 1631 
L 2766 1759 
L 2194 1759 
z
M 3341 1997 
L 3341 0 
L 2766 0 
L 2766 531 
Q 2569 213 2275 61 
Q 1981 -91 1556 -91 
Q 1019 -91 701 211 
Q 384 513 384 1019 
Q 384 1609 779 1909 
Q 1175 2209 1959 2209 
L 2766 2209 
L 2766 2266 
Q 2766 2663 2505 2880 
Q 2244 3097 1772 3097 
Q 1472 3097 1187 3025 
Q 903 2953 641 2809 
L 641 3341 
Q 956 3463 1253 3523 
Q 1550 3584 1831 3584 
Q 2591 3584 2966 3190 
Q 3341 2797 3341 1997 
z
" transform="scale(0.015625)"/>
       <path id="DejaVuSans-63" d="M 3122 3366 
L 3122 2828 
Q 2878 2963 2633 3030 
Q 2388 3097 2138 3097 
Q 1578 3097 1268 2742 
Q 959 2388 959 1747 
Q 959 1106 1268 751 
Q 1578 397 2138 397 
Q 2388 397 2633 464 
Q 2878 531 3122 666 
L 3122 134 
Q 2881 22 2623 -34 
Q 2366 -91 2075 -91 
Q 1284 -91 818 406 
Q 353 903 353 1747 
Q 353 2603 823 3093 
Q 1294 3584 2113 3584 
Q 2378 3584 2631 3529 
Q 2884 3475 3122 3366 
z
" transform="scale(0.015625)"/>
       <path id="DejaVuSans-74" d="M 1172 4494 
L 1172 3500 
L 2356 3500 
L 2356 3053 
L 1172 3053 
L 1172 1153 
Q 1172 725 1289 603 
Q 1406 481 1766 481 
L 2356 481 
L 2356 0 
L 1766 0 
Q 1100 0 847 248 
Q 594 497 594 1153 
L 594 3053 
L 172 3053 
L 172 3500 
L 594 3500 
L 594 4494 
L 1172 4494 
z
" transform="scale(0.015625)"/>
       <path id="DejaVuSans-6f" d="M 1959 3097 
Q 1497 3097 1228 2736 
Q 959 2375 959 1747 
Q 959 1119 1226 758 
Q 1494 397 1959 397 
Q 2419 397 2687 759 
Q 2956 1122 2956 1747 
Q 2956 2369 2687 2733 
Q 2419 3097 1959 3097 
z
M 1959 3584 
Q 2709 3584 3137 3096 
Q 3566 2609 3566 1747 
Q 3566 888 3137 398 
Q 2709 -91 1959 -91 
Q 1206 -91 779 398 
Q 353 888 353 1747 
Q 353 2609 779 3096 
Q 1206 3584 1959 3584 
z
" transform="scale(0.015625)"/>
       <path id="DejaVuSans-6e" d="M 3513 2113 
L 3513 0 
L 2938 0 
L 2938 2094 
Q 2938 2591 2744 2837 
Q 2550 3084 2163 3084 
Q 1697 3084 1428 2787 
Q 1159 2491 1159 1978 
L 1159 0 
L 581 0 
L 581 3500 
L 1159 3500 
L 1159 2956 
Q 1366 3272 1645 3428 
Q 1925 3584 2291 3584 
Q 2894 3584 3203 3211 
Q 3513 2838 3513 2113 
z
" transform="scale(0.015625)"/>
       <path id="DejaVuSans-25" d="M 4653 2053 
Q 4381 2053 4226 1822 
Q 4072 1591 4072 1178 
Q 4072 772 4226 539 
Q 4381 306 4653 306 
Q 4919 306 5073 539 
Q 5228 772 5228 1178 
Q 5228 1588 5073 1820 
Q 4919 2053 4653 2053 
z
M 4653 2450 
Q 5147 2450 5437 2106 
Q 5728 1763 5728 1178 
Q 5728 594 5436 251 
Q 5144 -91 4653 -91 
Q 4153 -91 3862 251 
Q 3572 594 3572 1178 
Q 3572 1766 3864 2108 
Q 4156 2450 4653 2450 
z
M 1428 4353 
Q 1159 4353 1004 4120 
Q 850 3888 850 3481 
Q 850 3069 1003 2837 
Q 1156 2606 1428 2606 
Q 1700 2606 1854 2837 
Q 2009 3069 2009 3481 
Q 2009 3884 1853 4118 
Q 1697 4353 1428 4353 
z
M 4250 4750 
L 4750 4750 
L 1831 -91 
L 1331 -91 
L 4250 4750 
z
M 1428 4750 
Q 1922 4750 2215 4408 
Q 2509 4066 2509 3481 
Q 2509 2891 2217 2550 
Q 1925 2209 1428 2209 
Q 931 2209 642 2551 
Q 353 2894 353 3481 
Q 353 4063 643 4406 
Q 934 4750 1428 4750 
z
" transform="scale(0.015625)"/>
      </defs>
      <use xlink:href="#DejaVuSans-46"/>
      <use xlink:href="#DejaVuSans-72" x="50.269531"/>
      <use xlink:href="#DejaVuSans-61" x="91.382812"/>
      <use xlink:href="#DejaVuSans-63" x="152.662109"/>
      <use xlink:href="#DejaVuSans-74" x="207.642578"/>
      <use xlink:href="#DejaVuSans-69" x="246.851562"/>
      <use xlink:href="#DejaVuSans-6f" x="274.634766"/>
      <use xlink:href="#DejaVuSans-6e" x="335.816406"/>
      <use xlink:href="#DejaVuSans-20" x="399.195312"/>
      <use xlink:href="#DejaVuSans-28" x="430.982422"/>
      <use xlink:href="#DejaVuSans-25" x="469.996094"/>
      <use xlink:href="#DejaVuSans-29" x="565.015625"/>
     </g>
    </g>
   </g>
   <g id="line2d_20">
    <path d="M 57.759424 46.105373 
L 60.772826 54.487269 
L 63.786228 62.372551 
L 66.780985 69.736499 
L 69.776325 76.654558 
L 72.771083 83.134868 
L 75.775745 89.222093 
L 78.770503 94.89865 
L 81.793227 100.255683 
L 84.787984 105.216728 
L 87.783324 109.855056 
L 90.778664 114.182507 
L 93.773422 118.215317 
L 96.786824 121.995074 
L 99.782164 125.493906 
L 102.776921 128.749721 
L 105.772261 131.775574 
L 108.767601 134.58596 
L 111.762359 137.195577 
L 114.757699 139.620338 
L 117.771101 141.882298 
L 120.765858 143.96483 
L 123.761198 145.89514 
L 126.756538 147.685124 
L 129.760618 149.343676 
L 132.755958 150.883664 
L 135.750716 152.305427 
L 138.754795 153.624114 
L 141.750135 154.842044 
L 144.745476 155.970468 
L 147.740233 157.015019 
L 150.735573 157.982188 
L 153.730913 158.876899 
L 156.725671 159.703185 
L 159.72975 160.466978 
L 162.72509 161.170192 
L 165.72043 161.820171 
L 168.715188 162.420341 
L 171.71985 162.975598 
L 174.714608 163.48476 
L 177.709948 163.952331 
L 180.72335 164.385745 
L 183.718107 164.78308 
L 186.713447 165.149979 
L 189.708787 165.488924 
L 192.703545 165.8022 
L 195.698885 166.092028 
L 198.693642 166.360127 
L 201.688982 166.608239 
L 204.684322 166.837723 
L 207.67908 167.049727 
L 210.67442 167.251618 
L 213.66976 167.428655 
L 216.67384 167.594042 
L 219.668597 167.747126 
L 222.663937 167.888802 
L 225.659277 168.019376 
L 228.654035 168.139194 
L 231.649375 168.249437 
L 234.644715 168.351004 
L 237.639472 168.444536 
L 240.634813 168.530725 
L 243.62957 168.610194 
L 246.62491 168.683632 
L 249.62025 168.751462 
L 252.615008 168.813891 
L 255.610348 168.871434 
L 258.614427 168.924722 
L 261.609767 168.973942 
L 264.604525 169.01974 
L 267.609187 169.062647 
L 270.613267 169.102276 
L 273.635408 169.139004 
" clip-path="url(#pfe3f2e8bc6)" style="fill: none; stroke: #346aa9; stroke-width: 1.5; stroke-linecap: square"/>
   </g>
   <g id="line2d_21">
    <path d="M 57.759424 169.565742 
L 60.772826 161.183846 
L 63.786228 153.298565 
L 66.780985 145.934617 
L 69.776325 139.016557 
L 72.771083 132.536247 
L 75.775745 126.449022 
L 78.770503 120.772465 
L 81.793227 115.415432 
L 84.787984 110.454388 
L 87.783324 105.816059 
L 90.778664 101.488608 
L 93.773422 97.455798 
L 96.786824 93.676042 
L 99.782164 90.177209 
L 102.776921 86.921395 
L 105.772261 83.895542 
L 108.767601 81.085156 
L 111.762359 78.475539 
L 114.757699 76.050777 
L 117.771101 73.788817 
L 120.765858 71.706285 
L 123.761198 69.775976 
L 126.756538 67.985992 
L 129.760618 66.32744 
L 132.755958 64.787451 
L 135.750716 63.365689 
L 138.754795 62.047001 
L 141.750135 60.829072 
L 144.745476 59.700648 
L 147.740233 58.656097 
L 150.735573 57.688928 
L 153.730913 56.794217 
L 156.725671 55.967931 
L 159.72975 55.204138 
L 162.72509 54.500923 
L 165.72043 53.850945 
L 168.715188 53.250774 
L 171.71985 52.695517 
L 174.714608 52.186356 
L 177.709948 51.718785 
L 180.72335 51.28537 
L 183.718107 50.888035 
L 186.713447 50.521137 
L 189.708787 50.182192 
L 192.703545 49.868916 
L 195.698885 49.579088 
L 198.693642 49.310989 
L 201.688982 49.062877 
L 204.684322 48.833392 
L 207.67908 48.621389 
L 210.67442 48.419497 
L 213.66976 48.24246 
L 216.67384 48.077073 
L 219.668597 47.923989 
L 222.663937 47.782313 
L 225.659277 47.651739 
L 228.654035 47.531921 
L 231.649375 47.421679 
L 234.644715 47.320111 
L 237.639472 47.22658 
L 240.634813 47.140391 
L 243.62957 47.060921 
L 246.62491 46.987484 
L 249.62025 46.919654 
L 252.615008 46.857225 
L 255.610348 46.799682 
L 258.614427 46.746393 
L 261.609767 46.697174 
L 264.604525 46.651376 
L 267.609187 46.608468 
L 270.613267 46.56884 
L 273.635408 46.532112 
" clip-path="url(#pfe3f2e8bc6)" style="fill: none; stroke: #e16203; stroke-width: 1.5; stroke-linecap: square"/>
   </g>
   <g id="patch_3">
    <path d="M 46.965625 175.738761 
L 46.965625 39.932355 
" style="fill: none; stroke: #000000; stroke-width: 0.8; stroke-linejoin: miter; stroke-linecap: square"/>
   </g>
   <g id="patch_4">
    <path d="M 284.429208 175.738761 
L 284.429208 39.932355 
" style="fill: none; stroke: #000000; stroke-width: 0.8; stroke-linejoin: miter; stroke-linecap: square"/>
   </g>
   <g id="patch_5">
    <path d="M 46.965625 175.738761 
L 284.429208 175.738761 
" style="fill: none; stroke: #000000; stroke-width: 0.8; stroke-linejoin: miter; stroke-linecap: square"/>
   </g>
   <g id="patch_6">
    <path d="M 46.965625 39.932355 
L 284.429208 39.932355 
" style="fill: none; stroke: #000000; stroke-width: 0.8; stroke-linejoin: miter; stroke-linecap: square"/>
   </g>
   <g id="text_13">
    <!-- Conversion over time -->
    <g transform="translate(101.308041 33.932355) scale(0.12 -0.12)">
     <defs>
      <path id="DejaVuSans-43" d="M 4122 4306 
L 4122 3641 
Q 3803 3938 3442 4084 
Q 3081 4231 2675 4231 
Q 1875 4231 1450 3742 
Q 1025 3253 1025 2328 
Q 1025 1406 1450 917 
Q 1875 428 2675 428 
Q 3081 428 3442 575 
Q 3803 722 4122 1019 
L 4122 359 
Q 3791 134 3420 21 
Q 3050 -91 2638 -91 
Q 1578 -91 968 557 
Q 359 1206 359 2328 
Q 359 3453 968 4101 
Q 1578 4750 2638 4750 
Q 3056 4750 3426 4639 
Q 3797 4528 4122 4306 
z
" transform="scale(0.015625)"/>
      <path id="DejaVuSans-76" d="M 191 3500 
L 800 3500 
L 1894 563 
L 2988 3500 
L 3597 3500 
L 2284 0 
L 1503 0 
L 191 3500 
z
" transform="scale(0.015625)"/>
     </defs>
     <use xlink:href="#DejaVuSans-43"/>
     <use xlink:href="#DejaVuSans-6f" x="69.824219"/>
     <use xlink:href="#DejaVuSans-6e" x="131.005859"/>
     <use xlink:href="#DejaVuSans-76" x="194.384766"/>
     <use xlink:href="#DejaVuSans-65" x="253.564453"/>
     <use xlink:href="#DejaVuSans-72" x="315.087891"/>
     <use xlink:href="#DejaVuSans-73" x="356.201172"/>
     <use xlink:href="#DejaVuSans-69" x="408.300781"/>
     <use xlink:href="#DejaVuSans-6f" x="436.083984"/>
     <use xlink:href="#DejaVuSans-6e" x="497.265625"/>
     <use xlink:href="#DejaVuSans-20" x="560.644531"/>
     <use xlink:href="#DejaVuSans-6f" x="592.431641"/>
     <use xlink:href="#DejaVuSans-76" x="653.613281"/>
     <use xlink:href="#DejaVuSans-65" x="712.792969"/>
     <use xlink:href="#DejaVuSans-72" x="774.316406"/>
     <use xlink:href="#DejaVuSans-20" x="815.429688"/>
     <use xlink:href="#DejaVuSans-74" x="847.216797"/>
     <use xlink:href="#DejaVuSans-69" x="886.425781"/>
     <use xlink:href="#DejaVuSans-6d" x="914.208984"/>
     <use xlink:href="#DejaVuSans-65" x="1011.621094"/>
    </g>
   </g>
   <g id="legend_1">
    <g id="line2d_22">
     <path d="M 202.844833 99.75587 
L 212.844833 99.75587 
L 222.844833 99.75587 
" style="fill: none; stroke: #346aa9; stroke-width: 1.5; stroke-linecap: square"/>
    </g>
    <g id="text_14">
     <!-- Reactant -->
     <g transform="translate(230.844833 103.25587) scale(0.1 -0.1)">
      <defs>
       <path id="DejaVuSans-52" d="M 2841 2188 
Q 3044 2119 3236 1894 
Q 3428 1669 3622 1275 
L 4263 0 
L 3584 0 
L 2988 1197 
Q 2756 1666 2539 1819 
Q 2322 1972 1947 1972 
L 1259 1972 
L 1259 0 
L 628 0 
L 628 4666 
L 2053 4666 
Q 2853 4666 3247 4331 
Q 3641 3997 3641 3322 
Q 3641 2881 3436 2590 
Q 3231 2300 2841 2188 
z
M 1259 4147 
L 1259 2491 
L 2053 2491 
Q 2509 2491 2742 2702 
Q 2975 2913 2975 3322 
Q 2975 3731 2742 3939 
Q 2509 4147 2053 4147 
L 1259 4147 
z
" transform="scale(0.015625)"/>
      </defs>
      <use xlink:href="#DejaVuSans-52"/>
      <use xlink:href="#DejaVuSans-65" x="64.982422"/>
      <use xlink:href="#DejaVuSans-61" x="126.505859"/>
      <use xlink:href="#DejaVuSans-63" x="187.785156"/>
      <use xlink:href="#DejaVuSans-74" x="242.765625"/>
      <use xlink:href="#DejaVuSans-61" x="281.974609"/>
      <use xlink:href="#DejaVuSans-6e" x="343.253906"/>
      <use xlink:href="#DejaVuSans-74" x="406.632812"/>
     </g>
    </g>
    <g id="line2d_23">
     <path d="M 202.844833 114.433995 
L 212.844833 114.433995 
L 222.844833 114.433995 
" style="fill: none; stroke: #e16203; stroke-width: 1.5; stroke-linecap: square"/>
    </g>
    <g id="text_15">
     <!-- Product -->
     <g transform="translate(230.844833 117.933995) scale(0.1 -0.1)">
      <defs>
       <path id="DejaVuSans-50" d="M 1259 4147 
L 1259 2394 
L 2053 2394 
Q 2494 2394 2734 2622 
Q 2975 2850 2975 3272 
Q 2975 3691 2734 3919 
Q 2494 4147 2053 4147 
L 1259 4147 
z
M 628 4666 
L 2053 4666 
Q 2838 4666 3239 4311 
Q 3641 3956 3641 3272 
Q 3641 2581 3239 2228 
Q 2838 1875 2053 1875 
L 1259 1875 
L 1259 0 
L 628 0 
L 628 4666 
z
" transform="scale(0.015625)"/>
       <path id="DejaVuSans-64" d="M 2906 2969 
L 2906 4863 
L 3481 4863 
L 3481 0 
L 2906 0 
L 2906 525 
Q 2725 213 2448 61 
Q 2172 -91 1784 -91 
Q 1150 -91 751 415 
Q 353 922 353 1747 
Q 353 2572 751 3078 
Q 1150 3584 1784 3584 
Q 2172 3584 2448 3432 
Q 2725 3281 2906 2969 
z
M 947 1747 
Q 947 1113 1208 752 
Q 1469 391 1925 391 
Q 2381 391 2643 752 
Q 2906 1113 2906 1747 
Q 2906 2381 2643 2742 
Q 2381 3103 1925 3103 
Q 1469 3103 1208 2742 
Q 947 2381 947 1747 
z
" transform="scale(0.015625)"/>
       <path id="DejaVuSans-75" d="M 544 1381 
L 544 3500 
L 1119 3500 
L 1119 1403 
Q 1119 906 1312 657 
Q 1506 409 1894 409 
Q 2359 409 2629 706 
Q 2900 1003 2900 1516 
L 2900 3500 
L 3475 3500 
L 3475 0 
L 2900 0 
L 2900 538 
Q 2691 219 2414 64 
Q 2138 -91 1772 -91 
Q 1169 -91 856 284 
Q 544 659 544 1381 
z
M 1991 3584 
L 1991 3584 
z
" transform="scale(0.015625)"/>
      </defs>
      <use xlink:href="#DejaVuSans-50"/>
      <use xlink:href="#DejaVuSans-72" x="58.552734"/>
      <use xlink:href="#DejaVuSans-6f" x="97.416016"/>
      <use xlink:href="#DejaVuSans-64" x="158.597656"/>
      <use xlink:href="#DejaVuSans-75" x="222.074219"/>
      <use xlink:href="#DejaVuSans-63" x="285.453125"/>
      <use xlink:href="#DejaVuSans-74" x="340.433594"/>
     </g>
    </g>
   </g>
  </g>
  <g id="axes_2">
   <g id="patch_7">
    <path d="M 339.735938 175.738761 
L 577.19952 175.738761 
L 577.19952 39.932355 
L 339.735938 39.932355 
z
" style="fill: #ffffff"/>
   </g>
   <g id="matplotlib.axis_3">
    <g id="xtick_9">
     <g id="line2d_24">
      <g>
       <use xlink:href="#m51e5271ef1" x="350.493031" y="175.738761" style="stroke: #000000; stroke-width: 0.8"/>
      </g>
     </g>
    </g>
    <g id="xtick_10">
     <g id="line2d_25">
      <g>
       <use xlink:href="#m51e5271ef1" x="408.756794" y="175.738761" style="stroke: #000000; stroke-width: 0.8"/>
      </g>
     </g>
    </g>
    <g id="xtick_11">
     <g id="line2d_26">
      <g>
       <use xlink:href="#m51e5271ef1" x="467.020558" y="175.738761" style="stroke: #000000; stroke-width: 0.8"/>
      </g>
     </g>
    </g>
    <g id="xtick_12">
     <g id="line2d_27">
      <g>
       <use xlink:href="#m51e5271ef1" x="525.284322" y="175.738761" style="stroke: #000000; stroke-width: 0.8"/>
      </g>
     </g>
    </g>
    <g id="xtick_13">
     <g id="line2d_28">
      <g>
       <use xlink:href="#mbc8765ebb2" x="379.624912" y="175.738761" style="stroke: #000000; stroke-width: 0.6"/>
      </g>
     </g>
    </g>
    <g id="xtick_14">
     <g id="line2d_29">
      <g>
       <use xlink:href="#mbc8765ebb2" x="437.888676" y="175.738761" style="stroke: #000000; stroke-width: 0.6"/>
      </g>
     </g>
    </g>
    <g id="xtick_15">
     <g id="line2d_30">
      <g>
       <use xlink:href="#mbc8765ebb2" x="496.15244" y="175.738761" style="stroke: #000000; stroke-width: 0.6"/>
      </g>
     </g>
    </g>
    <g id="xtick_16">
     <g id="line2d_31">
      <g>
       <use xlink:href="#mbc8765ebb2" x="554.416204" y="175.738761" style="stroke: #000000; stroke-width: 0.6"/>
      </g>
     </g>
    </g>
   </g>
   <g id="matplotlib.axis_4">
    <g id="ytick_12">
     <g id="line2d_32">
      <g>
       <use xlink:href="#mf41c4264f5" x="339.735938" y="173.529818" style="stroke: #000000; stroke-width: 0.8"/>
      </g>
     </g>
     <g id="text_16">
      <!-- 0.00 -->
      <g transform="translate(310.470313 177.329037) scale(0.1 -0.1)">
       <defs>
        <path id="DejaVuSans-2e" d="M 684 794 
L 1344 794 
L 1344 0 
L 684 0 
L 684 794 
z
" transform="scale(0.015625)"/>
       </defs>
       <use xlink:href="#DejaVuSans-30"/>
       <use xlink:href="#DejaVuSans-2e" x="63.623047"/>
       <use xlink:href="#DejaVuSans-30" x="95.410156"/>
       <use xlink:href="#DejaVuSans-30" x="159.033203"/>
      </g>
     </g>
    </g>
    <g id="ytick_13">
     <g id="line2d_33">
      <g>
       <use xlink:href="#mf41c4264f5" x="339.735938" y="131.286896" style="stroke: #000000; stroke-width: 0.8"/>
      </g>
     </g>
     <g id="text_17">
      <!-- 0.01 -->
      <g transform="translate(310.470313 135.086115) scale(0.1 -0.1)">
       <use xlink:href="#DejaVuSans-30"/>
       <use xlink:href="#DejaVuSans-2e" x="63.623047"/>
       <use xlink:href="#DejaVuSans-30" x="95.410156"/>
       <use xlink:href="#DejaVuSans-31" x="159.033203"/>
      </g>
     </g>
    </g>
    <g id="ytick_14">
     <g id="line2d_34">
      <g>
       <use xlink:href="#mf41c4264f5" x="339.735938" y="89.043975" style="stroke: #000000; stroke-width: 0.8"/>
      </g>
     </g>
     <g id="text_18">
      <!-- 0.02 -->
      <g transform="translate(310.470313 92.843193) scale(0.1 -0.1)">
       <use xlink:href="#DejaVuSans-30"/>
       <use xlink:href="#DejaVuSans-2e" x="63.623047"/>
       <use xlink:href="#DejaVuSans-30" x="95.410156"/>
       <use xlink:href="#DejaVuSans-32" x="159.033203"/>
      </g>
     </g>
    </g>
    <g id="ytick_15">
     <g id="line2d_35">
      <g>
       <use xlink:href="#mf41c4264f5" x="339.735938" y="46.801053" style="stroke: #000000; stroke-width: 0.8"/>
      </g>
     </g>
     <g id="text_19">
      <!-- 0.03 -->
      <g transform="translate(310.470313 50.600272) scale(0.1 -0.1)">
       <use xlink:href="#DejaVuSans-30"/>
       <use xlink:href="#DejaVuSans-2e" x="63.623047"/>
       <use xlink:href="#DejaVuSans-30" x="95.410156"/>
       <use xlink:href="#DejaVuSans-33" x="159.033203"/>
      </g>
     </g>
    </g>
    <g id="ytick_16">
     <g id="line2d_36">
      <g>
       <use xlink:href="#m77398a4053" x="339.735938" y="152.408357" style="stroke: #000000; stroke-width: 0.6"/>
      </g>
     </g>
    </g>
    <g id="ytick_17">
     <g id="line2d_37">
      <g>
       <use xlink:href="#m77398a4053" x="339.735938" y="110.165435" style="stroke: #000000; stroke-width: 0.6"/>
      </g>
     </g>
    </g>
    <g id="ytick_18">
     <g id="line2d_38">
      <g>
       <use xlink:href="#m77398a4053" x="339.735938" y="67.922514" style="stroke: #000000; stroke-width: 0.6"/>
      </g>
     </g>
    </g>
    <g id="text_20">
     <!-- Absorbance at $\lambda_{irr}$ -->
     <g transform="translate(304.390625 152.535558) rotate(-90) scale(0.1 -0.1)">
      <defs>
       <path id="DejaVuSans-41" d="M 2188 4044 
L 1331 1722 
L 3047 1722 
L 2188 4044 
z
M 1831 4666 
L 2547 4666 
L 4325 0 
L 3669 0 
L 3244 1197 
L 1141 1197 
L 716 0 
L 50 0 
L 1831 4666 
z
" transform="scale(0.015625)"/>
       <path id="DejaVuSans-62" d="M 3116 1747 
Q 3116 2381 2855 2742 
Q 2594 3103 2138 3103 
Q 1681 3103 1420 2742 
Q 1159 2381 1159 1747 
Q 1159 1113 1420 752 
Q 1681 391 2138 391 
Q 2594 391 2855 752 
Q 3116 1113 3116 1747 
z
M 1159 2969 
Q 1341 3281 1617 3432 
Q 1894 3584 2278 3584 
Q 2916 3584 3314 3078 
Q 3713 2572 3713 1747 
Q 3713 922 3314 415 
Q 2916 -91 2278 -91 
Q 1894 -91 1617 61 
Q 1341 213 1159 525 
L 1159 0 
L 581 0 
L 581 4863 
L 1159 4863 
L 1159 2969 
z
" transform="scale(0.015625)"/>
       <path id="DejaVuSans-Oblique-3bb" d="M 2350 4316 
L 3125 0 
L 2516 0 
L 2038 2588 
L 328 0 
L -281 0 
L 1903 3356 
L 1794 3975 
Q 1725 4369 1391 4369 
L 1091 4369 
L 1184 4863 
L 1550 4856 
Q 2253 4847 2350 4316 
z
" transform="scale(0.015625)"/>
       <path id="DejaVuSans-Oblique-69" d="M 1172 4863 
L 1747 4863 
L 1606 4134 
L 1031 4134 
L 1172 4863 
z
M 909 3500 
L 1484 3500 
L 800 0 
L 225 0 
L 909 3500 
z
" transform="scale(0.015625)"/>
       <path id="DejaVuSans-Oblique-72" d="M 2853 2969 
Q 2766 3016 2653 3041 
Q 2541 3066 2413 3066 
Q 1953 3066 1609 2717 
Q 1266 2369 1153 1784 
L 800 0 
L 225 0 
L 909 3500 
L 1484 3500 
L 1375 2956 
Q 1603 3259 1920 3421 
Q 2238 3584 2597 3584 
Q 2691 3584 2781 3573 
Q 2872 3563 2963 3538 
L 2853 2969 
z
" transform="scale(0.015625)"/>
      </defs>
      <use xlink:href="#DejaVuSans-41" transform="translate(0 0.015625)"/>
      <use xlink:href="#DejaVuSans-62" transform="translate(68.408203 0.015625)"/>
      <use xlink:href="#DejaVuSans-73" transform="translate(131.884766 0.015625)"/>
      <use xlink:href="#DejaVuSans-6f" transform="translate(183.984375 0.015625)"/>
      <use xlink:href="#DejaVuSans-72" transform="translate(245.166016 0.015625)"/>
      <use xlink:href="#DejaVuSans-62" transform="translate(286.279297 0.015625)"/>
      <use xlink:href="#DejaVuSans-61" transform="translate(349.755859 0.015625)"/>
      <use xlink:href="#DejaVuSans-6e" transform="translate(411.035156 0.015625)"/>
      <use xlink:href="#DejaVuSans-63" transform="translate(474.414062 0.015625)"/>
      <use xlink:href="#DejaVuSans-65" transform="translate(529.394531 0.015625)"/>
      <use xlink:href="#DejaVuSans-20" transform="translate(590.917969 0.015625)"/>
      <use xlink:href="#DejaVuSans-61" transform="translate(622.705078 0.015625)"/>
      <use xlink:href="#DejaVuSans-74" transform="translate(683.984375 0.015625)"/>
      <use xlink:href="#DejaVuSans-20" transform="translate(723.193359 0.015625)"/>
      <use xlink:href="#DejaVuSans-Oblique-3bb" transform="translate(754.980469 0.015625)"/>
      <use xlink:href="#DejaVuSans-Oblique-69" transform="translate(814.160156 -16.390625) scale(0.7)"/>
      <use xlink:href="#DejaVuSans-Oblique-72" transform="translate(833.608398 -16.390625) scale(0.7)"/>
      <use xlink:href="#DejaVuSans-Oblique-72" transform="translate(862.387695 -16.390625) scale(0.7)"/>
     </g>
    </g>
   </g>
   <g id="line2d_39">
    <path d="M 350.529737 58.586828 
L 353.543139 69.31653 
L 356.55654 78.441001 
L 359.551298 81.60922 
L 362.546638 85.453326 
L 365.541395 92.465651 
L 368.546058 96.732186 
L 371.540815 104.547127 
L 374.563539 113.249169 
L 377.558297 113.84057 
L 380.553637 112.615525 
L 383.548977 118.825234 
L 386.543734 122.458126 
L 389.557136 126.724661 
L 392.552476 133.690518 
L 395.547234 134.438218 
L 398.542574 133.720089 
L 401.537914 138.096455 
L 404.532671 138.675183 
L 407.528011 141.074581 
L 410.541413 150.380697 
L 413.536171 145.066537 
L 416.531511 147.719393 
L 419.526851 150.54122 
L 422.530931 153.130711 
L 425.526271 153.481327 
L 428.521028 152.176021 
L 431.525108 151.859199 
L 434.520448 153.933327 
L 437.515788 156.197547 
L 440.510545 158.588496 
L 443.505886 159.484046 
L 446.501226 162.390359 
L 449.495983 161.216006 
L 452.500063 165.393831 
L 455.495403 166.014802 
L 458.490743 163.442208 
L 461.4855 161.04281 
L 464.490163 158.80816 
L 467.48492 165.440298 
L 470.48026 166.133082 
L 473.493662 162.825462 
L 476.48842 162.702957 
L 479.48376 163.911105 
L 482.4791 167.045529 
L 485.473857 169.565742 
L 488.469197 167.463734 
L 491.463955 165.038991 
L 494.459295 166.082391 
L 497.454635 165.621943 
L 500.449392 167.953752 
L 503.444732 162.660714 
L 506.440073 164.232151 
L 509.444152 167.822799 
L 512.43891 169.275956 
L 515.43425 162.98176 
L 518.42959 165.879625 
L 521.424347 166.095064 
L 524.419687 163.514021 
L 527.415027 165.098131 
L 530.409785 168.566275 
L 533.405125 167.57779 
L 536.399882 166.078166 
L 539.395223 164.675701 
L 542.390563 169.415357 
L 545.38532 163.982918 
L 548.38066 168.004444 
L 551.38474 167.527099 
L 554.38008 169.111208 
L 557.374837 167.945304 
L 560.3795 166.74138 
L 563.383579 169.53575 
L 566.405721 167.941079 
" clip-path="url(#p9c1cfeb7ad)" style="fill: none; stroke: #e16203; stroke-opacity: 0.5; stroke-width: 8; stroke-linecap: square"/>
   </g>
   <g id="line2d_40">
    <path d="M 350.529737 46.105373 
L 353.543139 54.011247 
L 356.55654 61.448709 
L 359.551298 68.394446 
L 362.546638 74.919616 
L 365.541395 81.031898 
L 368.546058 86.773419 
L 371.540815 92.127595 
L 374.563539 97.180392 
L 377.558297 101.85969 
L 380.553637 106.2346 
L 383.548977 110.316287 
L 386.543734 114.120067 
L 389.557136 117.685164 
L 392.552476 120.985292 
L 395.547234 124.056203 
L 398.542574 126.910213 
L 401.537914 129.560992 
L 404.532671 132.022404 
L 407.528011 134.309459 
L 410.541413 136.442958 
L 413.536171 138.40722 
L 416.531511 140.227904 
L 419.526851 141.916231 
L 422.530931 143.480591 
L 425.526271 144.933121 
L 428.521028 146.274139 
L 431.525108 147.517936 
L 434.520448 148.666697 
L 437.515788 149.731036 
L 440.510545 150.716265 
L 443.505886 151.628507 
L 446.501226 152.472406 
L 449.495983 153.251766 
L 452.500063 153.972182 
L 455.495403 154.63546 
L 458.490743 155.248524 
L 461.4855 155.81461 
L 464.490163 156.338333 
L 467.48492 156.818579 
L 470.48026 157.259595 
L 473.493662 157.668395 
L 476.48842 158.043165 
L 479.48376 158.389227 
L 482.4791 158.708922 
L 485.473857 159.004407 
L 488.469197 159.277775 
L 491.463955 159.530648 
L 494.459295 159.76467 
L 497.454635 159.981121 
L 500.449392 160.181085 
L 503.444732 160.37151 
L 506.440073 160.538493 
L 509.444152 160.694488 
L 512.43891 160.838878 
L 515.43425 160.972507 
L 518.42959 161.095666 
L 521.424347 161.208679 
L 524.419687 161.312661 
L 527.415027 161.40846 
L 530.409785 161.49668 
L 533.405125 161.577974 
L 536.399882 161.652931 
L 539.395223 161.722197 
L 542.390563 161.786175 
L 545.38532 161.845059 
L 548.38066 161.899334 
L 551.38474 161.949596 
L 554.38008 161.99602 
L 557.374837 162.039217 
L 560.3795 162.079688 
L 563.383579 162.117066 
L 566.405721 162.151708 
" clip-path="url(#p9c1cfeb7ad)" style="fill: none; stroke-dasharray: 5.55,2.4; stroke-dashoffset: 0; stroke: #346aa9; stroke-width: 1.5"/>
   </g>
   <g id="patch_8">
    <path d="M 339.735938 175.738761 
L 339.735938 39.932355 
" style="fill: none; stroke: #000000; stroke-width: 0.8; stroke-linejoin: miter; stroke-linecap: square"/>
   </g>
   <g id="patch_9">
    <path d="M 577.19952 175.738761 
L 577.19952 39.932355 
" style="fill: none; stroke: #000000; stroke-width: 0.8; stroke-linejoin: miter; stroke-linecap: square"/>
   </g>
   <g id="patch_10">
    <path d="M 339.735938 175.738761 
L 577.19952 175.738761 
" style="fill: none; stroke: #000000; stroke-width: 0.8; stroke-linejoin: miter; stroke-linecap: square"/>
   </g>
   <g id="patch_11">
    <path d="M 339.735938 39.932355 
L 577.19952 39.932355 
" style="fill: none; stroke: #000000; stroke-width: 0.8; stroke-linejoin: miter; stroke-linecap: square"/>
   </g>
   <g id="text_21">
    <!-- Fit vs Experimental -->
    <g transform="translate(400.930541 33.932355) scale(0.12 -0.12)">
     <defs>
      <path id="DejaVuSans-45" d="M 628 4666 
L 3578 4666 
L 3578 4134 
L 1259 4134 
L 1259 2753 
L 3481 2753 
L 3481 2222 
L 1259 2222 
L 1259 531 
L 3634 531 
L 3634 0 
L 628 0 
L 628 4666 
z
" transform="scale(0.015625)"/>
      <path id="DejaVuSans-78" d="M 3513 3500 
L 2247 1797 
L 3578 0 
L 2900 0 
L 1881 1375 
L 863 0 
L 184 0 
L 1544 1831 
L 300 3500 
L 978 3500 
L 1906 2253 
L 2834 3500 
L 3513 3500 
z
" transform="scale(0.015625)"/>
      <path id="DejaVuSans-70" d="M 1159 525 
L 1159 -1331 
L 581 -1331 
L 581 3500 
L 1159 3500 
L 1159 2969 
Q 1341 3281 1617 3432 
Q 1894 3584 2278 3584 
Q 2916 3584 3314 3078 
Q 3713 2572 3713 1747 
Q 3713 922 3314 415 
Q 2916 -91 2278 -91 
Q 1894 -91 1617 61 
Q 1341 213 1159 525 
z
M 3116 1747 
Q 3116 2381 2855 2742 
Q 2594 3103 2138 3103 
Q 1681 3103 1420 2742 
Q 1159 2381 1159 1747 
Q 1159 1113 1420 752 
Q 1681 391 2138 391 
Q 2594 391 2855 752 
Q 3116 1113 3116 1747 
z
" transform="scale(0.015625)"/>
      <path id="DejaVuSans-6c" d="M 603 4863 
L 1178 4863 
L 1178 0 
L 603 0 
L 603 4863 
z
" transform="scale(0.015625)"/>
     </defs>
     <use xlink:href="#DejaVuSans-46"/>
     <use xlink:href="#DejaVuSans-69" x="50.269531"/>
     <use xlink:href="#DejaVuSans-74" x="78.052734"/>
     <use xlink:href="#DejaVuSans-20" x="117.261719"/>
     <use xlink:href="#DejaVuSans-76" x="149.048828"/>
     <use xlink:href="#DejaVuSans-73" x="208.228516"/>
     <use xlink:href="#DejaVuSans-20" x="260.328125"/>
     <use xlink:href="#DejaVuSans-45" x="292.115234"/>
     <use xlink:href="#DejaVuSans-78" x="355.298828"/>
     <use xlink:href="#DejaVuSans-70" x="414.478516"/>
     <use xlink:href="#DejaVuSans-65" x="477.955078"/>
     <use xlink:href="#DejaVuSans-72" x="539.478516"/>
     <use xlink:href="#DejaVuSans-69" x="580.591797"/>
     <use xlink:href="#DejaVuSans-6d" x="608.375"/>
     <use xlink:href="#DejaVuSans-65" x="705.787109"/>
     <use xlink:href="#DejaVuSans-6e" x="767.310547"/>
     <use xlink:href="#DejaVuSans-74" x="830.689453"/>
     <use xlink:href="#DejaVuSans-61" x="869.898438"/>
     <use xlink:href="#DejaVuSans-6c" x="931.177734"/>
    </g>
   </g>
   <g id="legend_2">
    <g id="line2d_41">
     <path d="M 432.69952 53.030792 
L 442.69952 53.030792 
L 452.69952 53.030792 
" style="fill: none; stroke: #e16203; stroke-opacity: 0.5; stroke-width: 8; stroke-linecap: square"/>
    </g>
    <g id="text_22">
     <!-- Experimental Data -->
     <g transform="translate(460.69952 56.530792) scale(0.1 -0.1)">
      <defs>
       <path id="DejaVuSans-44" d="M 1259 4147 
L 1259 519 
L 2022 519 
Q 2988 519 3436 956 
Q 3884 1394 3884 2338 
Q 3884 3275 3436 3711 
Q 2988 4147 2022 4147 
L 1259 4147 
z
M 628 4666 
L 1925 4666 
Q 3281 4666 3915 4102 
Q 4550 3538 4550 2338 
Q 4550 1131 3912 565 
Q 3275 0 1925 0 
L 628 0 
L 628 4666 
z
" transform="scale(0.015625)"/>
      </defs>
      <use xlink:href="#DejaVuSans-45"/>
      <use xlink:href="#DejaVuSans-78" x="63.183594"/>
      <use xlink:href="#DejaVuSans-70" x="122.363281"/>
      <use xlink:href="#DejaVuSans-65" x="185.839844"/>
      <use xlink:href="#DejaVuSans-72" x="247.363281"/>
      <use xlink:href="#DejaVuSans-69" x="288.476562"/>
      <use xlink:href="#DejaVuSans-6d" x="316.259766"/>
      <use xlink:href="#DejaVuSans-65" x="413.671875"/>
      <use xlink:href="#DejaVuSans-6e" x="475.195312"/>
      <use xlink:href="#DejaVuSans-74" x="538.574219"/>
      <use xlink:href="#DejaVuSans-61" x="577.783203"/>
      <use xlink:href="#DejaVuSans-6c" x="639.0625"/>
      <use xlink:href="#DejaVuSans-20" x="666.845703"/>
      <use xlink:href="#DejaVuSans-44" x="698.632812"/>
      <use xlink:href="#DejaVuSans-61" x="775.634766"/>
      <use xlink:href="#DejaVuSans-74" x="836.914062"/>
      <use xlink:href="#DejaVuSans-61" x="876.123047"/>
     </g>
    </g>
    <g id="line2d_42">
     <path d="M 432.69952 79.946574 
L 442.69952 79.946574 
L 452.69952 79.946574 
" style="fill: none; stroke-dasharray: 5.55,2.4; stroke-dashoffset: 0; stroke: #346aa9; stroke-width: 1.5"/>
    </g>
    <g id="text_23">
     <!-- Fit: -->
     <g transform="translate(460.69952 71.208917) scale(0.1 -0.1)">
      <defs>
       <path id="DejaVuSans-3a" d="M 750 794 
L 1409 794 
L 1409 0 
L 750 0 
L 750 794 
z
M 750 3309 
L 1409 3309 
L 1409 2516 
L 750 2516 
L 750 3309 
z
" transform="scale(0.015625)"/>
      </defs>
      <use xlink:href="#DejaVuSans-46"/>
      <use xlink:href="#DejaVuSans-69" x="50.269531"/>
      <use xlink:href="#DejaVuSans-74" x="78.052734"/>
      <use xlink:href="#DejaVuSans-3a" x="117.261719"/>
     </g>
     <!-- $QY_{fwd}$: 1.000 ± 0.001 -->
     <g transform="translate(460.69952 82.40673) scale(0.1 -0.1)">
      <defs>
       <path id="DejaVuSans-Oblique-51" d="M 2309 -84 
Q 2275 -88 2237 -89 
Q 2200 -91 2125 -91 
Q 1250 -91 756 411 
Q 263 913 263 1797 
Q 263 2319 452 2844 
Q 641 3369 978 3788 
Q 1369 4269 1858 4509 
Q 2347 4750 2938 4750 
Q 3794 4750 4287 4245 
Q 4781 3741 4781 2869 
Q 4781 1928 4265 1147 
Q 3750 366 2919 44 
L 3553 -825 
L 2847 -825 
L 2309 -84 
z
M 2919 4238 
Q 2400 4238 2003 3986 
Q 1606 3734 1313 3219 
Q 1125 2891 1026 2522 
Q 928 2153 928 1778 
Q 928 1128 1239 775 
Q 1550 422 2119 422 
Q 2631 422 3032 676 
Q 3434 931 3719 1434 
Q 3909 1772 4009 2142 
Q 4109 2513 4109 2881 
Q 4109 3528 3796 3883 
Q 3484 4238 2919 4238 
z
" transform="scale(0.015625)"/>
       <path id="DejaVuSans-Oblique-59" d="M 403 4666 
L 1081 4666 
L 1953 2747 
L 3616 4666 
L 4325 4666 
L 2209 2222 
L 1778 0 
L 1147 0 
L 1575 2222 
L 403 4666 
z
" transform="scale(0.015625)"/>
       <path id="DejaVuSans-Oblique-66" d="M 3059 4863 
L 2969 4384 
L 2419 4384 
Q 2106 4384 1964 4261 
Q 1822 4138 1753 3809 
L 1691 3500 
L 2638 3500 
L 2553 3053 
L 1606 3053 
L 1013 0 
L 434 0 
L 1031 3053 
L 481 3053 
L 563 3500 
L 1113 3500 
L 1159 3744 
Q 1278 4363 1576 4613 
Q 1875 4863 2516 4863 
L 3059 4863 
z
" transform="scale(0.015625)"/>
       <path id="DejaVuSans-Oblique-77" d="M 544 3500 
L 1113 3500 
L 1259 684 
L 2566 3500 
L 3231 3500 
L 3425 684 
L 4666 3500 
L 5241 3500 
L 3641 0 
L 2969 0 
L 2797 2900 
L 1459 0 
L 781 0 
L 544 3500 
z
" transform="scale(0.015625)"/>
       <path id="DejaVuSans-Oblique-64" d="M 2675 525 
Q 2444 222 2128 65 
Q 1813 -91 1428 -91 
Q 903 -91 598 267 
Q 294 625 294 1247 
Q 294 1766 478 2236 
Q 663 2706 1013 3078 
Q 1244 3325 1534 3454 
Q 1825 3584 2144 3584 
Q 2481 3584 2739 3421 
Q 2997 3259 3138 2956 
L 3513 4863 
L 4091 4863 
L 3144 0 
L 2566 0 
L 2675 525 
z
M 891 1350 
Q 891 897 1095 644 
Q 1300 391 1663 391 
Q 1931 391 2161 520 
Q 2391 650 2566 903 
Q 2750 1166 2856 1509 
Q 2963 1853 2963 2188 
Q 2963 2622 2758 2865 
Q 2553 3109 2194 3109 
Q 1922 3109 1687 2981 
Q 1453 2853 1288 2613 
Q 1106 2353 998 2009 
Q 891 1666 891 1350 
z
" transform="scale(0.015625)"/>
       <path id="DejaVuSans-b1" d="M 2944 4013 
L 2944 2803 
L 4684 2803 
L 4684 2272 
L 2944 2272 
L 2944 1063 
L 2419 1063 
L 2419 2272 
L 678 2272 
L 678 2803 
L 2419 2803 
L 2419 4013 
L 2944 4013 
z
M 678 531 
L 4684 531 
L 4684 0 
L 678 0 
L 678 531 
z
" transform="scale(0.015625)"/>
      </defs>
      <use xlink:href="#DejaVuSans-Oblique-51" transform="translate(0 0.78125)"/>
      <use xlink:href="#DejaVuSans-Oblique-59" transform="translate(78.710938 0.78125)"/>
      <use xlink:href="#DejaVuSans-Oblique-66" transform="translate(139.794922 -15.625) scale(0.7)"/>
      <use xlink:href="#DejaVuSans-Oblique-77" transform="translate(164.438477 -15.625) scale(0.7)"/>
      <use xlink:href="#DejaVuSans-Oblique-64" transform="translate(221.689453 -15.625) scale(0.7)"/>
      <use xlink:href="#DejaVuSans-3a" transform="translate(268.857422 0.78125)"/>
      <use xlink:href="#DejaVuSans-20" transform="translate(302.548828 0.78125)"/>
      <use xlink:href="#DejaVuSans-31" transform="translate(334.335938 0.78125)"/>
      <use xlink:href="#DejaVuSans-2e" transform="translate(397.958984 0.78125)"/>
      <use xlink:href="#DejaVuSans-30" transform="translate(429.746094 0.78125)"/>
      <use xlink:href="#DejaVuSans-30" transform="translate(493.369141 0.78125)"/>
      <use xlink:href="#DejaVuSans-30" transform="translate(556.992188 0.78125)"/>
      <use xlink:href="#DejaVuSans-20" transform="translate(620.615234 0.78125)"/>
      <use xlink:href="#DejaVuSans-b1" transform="translate(652.402344 0.78125)"/>
      <use xlink:href="#DejaVuSans-20" transform="translate(736.191406 0.78125)"/>
      <use xlink:href="#DejaVuSans-30" transform="translate(767.978516 0.78125)"/>
      <use xlink:href="#DejaVuSans-2e" transform="translate(831.601562 0.78125)"/>
      <use xlink:href="#DejaVuSans-30" transform="translate(863.388672 0.78125)"/>
      <use xlink:href="#DejaVuSans-30" transform="translate(927.011719 0.78125)"/>
      <use xlink:href="#DejaVuSans-31" transform="translate(990.634766 0.78125)"/>
     </g>
     <!-- $QY_{bwd}$: 0.000 ± 0.048 -->
     <g transform="translate(460.69952 93.604542) scale(0.1 -0.1)">
      <defs>
       <path id="DejaVuSans-Oblique-62" d="M 3169 2138 
Q 3169 2591 2961 2847 
Q 2753 3103 2388 3103 
Q 2122 3103 1889 2973 
Q 1656 2844 1484 2597 
Q 1303 2338 1198 1995 
Q 1094 1653 1094 1313 
Q 1094 881 1298 636 
Q 1503 391 1863 391 
Q 2134 391 2365 517 
Q 2597 644 2772 891 
Q 2950 1147 3059 1487 
Q 3169 1828 3169 2138 
z
M 1381 2969 
Q 1594 3256 1914 3420 
Q 2234 3584 2584 3584 
Q 3122 3584 3439 3221 
Q 3756 2859 3756 2241 
Q 3756 1734 3570 1259 
Q 3384 784 3041 416 
Q 2816 172 2522 40 
Q 2228 -91 1906 -91 
Q 1566 -91 1316 65 
Q 1066 222 909 531 
L 806 0 
L 231 0 
L 1178 4863 
L 1753 4863 
L 1381 2969 
z
" transform="scale(0.015625)"/>
      </defs>
      <use xlink:href="#DejaVuSans-Oblique-51" transform="translate(0 0.78125)"/>
      <use xlink:href="#DejaVuSans-Oblique-59" transform="translate(78.710938 0.78125)"/>
      <use xlink:href="#DejaVuSans-Oblique-62" transform="translate(139.794922 -15.625) scale(0.7)"/>
      <use xlink:href="#DejaVuSans-Oblique-77" transform="translate(184.228516 -15.625) scale(0.7)"/>
      <use xlink:href="#DejaVuSans-Oblique-64" transform="translate(241.479492 -15.625) scale(0.7)"/>
      <use xlink:href="#DejaVuSans-3a" transform="translate(288.647461 0.78125)"/>
      <use xlink:href="#DejaVuSans-20" transform="translate(322.338867 0.78125)"/>
      <use xlink:href="#DejaVuSans-30" transform="translate(354.125977 0.78125)"/>
      <use xlink:href="#DejaVuSans-2e" transform="translate(417.749023 0.78125)"/>
      <use xlink:href="#DejaVuSans-30" transform="translate(449.536133 0.78125)"/>
      <use xlink:href="#DejaVuSans-30" transform="translate(513.15918 0.78125)"/>
      <use xlink:href="#DejaVuSans-30" transform="translate(576.782227 0.78125)"/>
      <use xlink:href="#DejaVuSans-20" transform="translate(640.405273 0.78125)"/>
      <use xlink:href="#DejaVuSans-b1" transform="translate(672.192383 0.78125)"/>
      <use xlink:href="#DejaVuSans-20" transform="translate(755.981445 0.78125)"/>
      <use xlink:href="#DejaVuSans-30" transform="translate(787.768555 0.78125)"/>
      <use xlink:href="#DejaVuSans-2e" transform="translate(851.391602 0.78125)"/>
      <use xlink:href="#DejaVuSans-30" transform="translate(883.178711 0.78125)"/>
      <use xlink:href="#DejaVuSans-34" transform="translate(946.801758 0.78125)"/>
      <use xlink:href="#DejaVuSans-38" transform="translate(1010.424805 0.78125)"/>
     </g>
    </g>
   </g>
  </g>
  <g id="axes_3">
   <g id="patch_12">
    <path d="M 339.735938 258.84327 
L 577.19952 258.84327 
L 577.19952 213.574468 
L 339.735938 213.574468 
z
" style="fill: #ffffff"/>
   </g>
   <g id="matplotlib.axis_5">
    <g id="xtick_17">
     <g id="line2d_43">
      <g>
       <use xlink:href="#m51e5271ef1" x="350.493031" y="258.84327" style="stroke: #000000; stroke-width: 0.8"/>
      </g>
     </g>
     <g id="text_24">
      <!-- 0 -->
      <g transform="translate(347.311781 273.441707) scale(0.1 -0.1)">
       <use xlink:href="#DejaVuSans-30"/>
      </g>
     </g>
    </g>
    <g id="xtick_18">
     <g id="line2d_44">
      <g>
       <use xlink:href="#m51e5271ef1" x="408.756794" y="258.84327" style="stroke: #000000; stroke-width: 0.8"/>
      </g>
     </g>
     <g id="text_25">
      <!-- 100 -->
      <g transform="translate(399.213044 273.441707) scale(0.1 -0.1)">
       <use xlink:href="#DejaVuSans-31"/>
       <use xlink:href="#DejaVuSans-30" x="63.623047"/>
       <use xlink:href="#DejaVuSans-30" x="127.246094"/>
      </g>
     </g>
    </g>
    <g id="xtick_19">
     <g id="line2d_45">
      <g>
       <use xlink:href="#m51e5271ef1" x="467.020558" y="258.84327" style="stroke: #000000; stroke-width: 0.8"/>
      </g>
     </g>
     <g id="text_26">
      <!-- 200 -->
      <g transform="translate(457.476808 273.441707) scale(0.1 -0.1)">
       <use xlink:href="#DejaVuSans-32"/>
       <use xlink:href="#DejaVuSans-30" x="63.623047"/>
       <use xlink:href="#DejaVuSans-30" x="127.246094"/>
      </g>
     </g>
    </g>
    <g id="xtick_20">
     <g id="line2d_46">
      <g>
       <use xlink:href="#m51e5271ef1" x="525.284322" y="258.84327" style="stroke: #000000; stroke-width: 0.8"/>
      </g>
     </g>
     <g id="text_27">
      <!-- 300 -->
      <g transform="translate(515.740572 273.441707) scale(0.1 -0.1)">
       <use xlink:href="#DejaVuSans-33"/>
       <use xlink:href="#DejaVuSans-30" x="63.623047"/>
       <use xlink:href="#DejaVuSans-30" x="127.246094"/>
      </g>
     </g>
    </g>
    <g id="xtick_21">
     <g id="line2d_47">
      <g>
       <use xlink:href="#mbc8765ebb2" x="379.624912" y="258.84327" style="stroke: #000000; stroke-width: 0.6"/>
      </g>
     </g>
    </g>
    <g id="xtick_22">
     <g id="line2d_48">
      <g>
       <use xlink:href="#mbc8765ebb2" x="437.888676" y="258.84327" style="stroke: #000000; stroke-width: 0.6"/>
      </g>
     </g>
    </g>
    <g id="xtick_23">
     <g id="line2d_49">
      <g>
       <use xlink:href="#mbc8765ebb2" x="496.15244" y="258.84327" style="stroke: #000000; stroke-width: 0.6"/>
      </g>
     </g>
    </g>
    <g id="xtick_24">
     <g id="line2d_50">
      <g>
       <use xlink:href="#mbc8765ebb2" x="554.416204" y="258.84327" style="stroke: #000000; stroke-width: 0.6"/>
      </g>
     </g>
    </g>
    <g id="text_28">
     <!-- Time (s) -->
     <g transform="translate(438.138823 287.119832) scale(0.1 -0.1)">
      <use xlink:href="#DejaVuSans-54"/>
      <use xlink:href="#DejaVuSans-69" x="57.958984"/>
      <use xlink:href="#DejaVuSans-6d" x="85.742188"/>
      <use xlink:href="#DejaVuSans-65" x="183.154297"/>
      <use xlink:href="#DejaVuSans-20" x="244.677734"/>
      <use xlink:href="#DejaVuSans-28" x="276.464844"/>
      <use xlink:href="#DejaVuSans-73" x="315.478516"/>
      <use xlink:href="#DejaVuSans-29" x="367.578125"/>
     </g>
    </g>
   </g>
   <g id="matplotlib.axis_6">
    <g id="ytick_19">
     <g id="line2d_51">
      <g>
       <use xlink:href="#mf41c4264f5" x="339.735938" y="239.098882" style="stroke: #000000; stroke-width: 0.8"/>
      </g>
     </g>
     <g id="text_29">
      <!-- 0.002 -->
      <g transform="translate(304.107813 242.898101) scale(0.1 -0.1)">
       <use xlink:href="#DejaVuSans-30"/>
       <use xlink:href="#DejaVuSans-2e" x="63.623047"/>
       <use xlink:href="#DejaVuSans-30" x="95.410156"/>
       <use xlink:href="#DejaVuSans-30" x="159.033203"/>
       <use xlink:href="#DejaVuSans-32" x="222.65625"/>
      </g>
     </g>
    </g>
    <g id="ytick_20">
     <g id="line2d_52">
      <g>
       <use xlink:href="#mf41c4264f5" x="339.735938" y="215.893413" style="stroke: #000000; stroke-width: 0.8"/>
      </g>
     </g>
     <g id="text_30">
      <!-- 0.004 -->
      <g transform="translate(304.107813 219.692632) scale(0.1 -0.1)">
       <use xlink:href="#DejaVuSans-30"/>
       <use xlink:href="#DejaVuSans-2e" x="63.623047"/>
       <use xlink:href="#DejaVuSans-30" x="95.410156"/>
       <use xlink:href="#DejaVuSans-30" x="159.033203"/>
       <use xlink:href="#DejaVuSans-34" x="222.65625"/>
      </g>
     </g>
    </g>
    <g id="ytick_21">
     <g id="line2d_53">
      <g>
       <use xlink:href="#m77398a4053" x="339.735938" y="250.701616" style="stroke: #000000; stroke-width: 0.6"/>
      </g>
     </g>
    </g>
    <g id="ytick_22">
     <g id="line2d_54">
      <g>
       <use xlink:href="#m77398a4053" x="339.735938" y="227.496148" style="stroke: #000000; stroke-width: 0.6"/>
      </g>
     </g>
    </g>
    <g id="text_31">
     <!-- Residuals Abs -->
     <g transform="translate(298.028125 270.717463) rotate(-90) scale(0.1 -0.1)">
      <use xlink:href="#DejaVuSans-52"/>
      <use xlink:href="#DejaVuSans-65" x="64.982422"/>
      <use xlink:href="#DejaVuSans-73" x="126.505859"/>
      <use xlink:href="#DejaVuSans-69" x="178.605469"/>
      <use xlink:href="#DejaVuSans-64" x="206.388672"/>
      <use xlink:href="#DejaVuSans-75" x="269.865234"/>
      <use xlink:href="#DejaVuSans-61" x="333.244141"/>
      <use xlink:href="#DejaVuSans-6c" x="394.523438"/>
      <use xlink:href="#DejaVuSans-73" x="422.306641"/>
      <use xlink:href="#DejaVuSans-20" x="474.40625"/>
      <use xlink:href="#DejaVuSans-41" x="506.193359"/>
      <use xlink:href="#DejaVuSans-62" x="574.601562"/>
      <use xlink:href="#DejaVuSans-73" x="638.078125"/>
     </g>
    </g>
   </g>
   <g id="line2d_55">
    <path d="M 350.529737 228.02192 
L 353.543139 220.265795 
L 356.55654 215.632141 
L 359.551298 226.007732 
L 362.546638 233.371731 
L 365.541395 230.89961 
L 368.546058 234.950909 
L 371.540815 228.192001 
L 374.563539 218.168732 
L 377.558297 229.396834 
L 380.553637 244.778059 
L 383.548977 238.933085 
L 386.543734 239.402459 
L 389.557136 237.475842 
L 392.552476 227.407293 
L 395.547234 233.788387 
L 398.542574 243.599872 
L 401.537914 238.860254 
L 404.532671 244.031366 
L 407.528011 243.722797 
L 410.541413 224.02199 
L 413.536171 244.013407 
L 416.531511 241.727707 
L 419.526851 238.614358 
L 422.530931 235.798661 
L 425.526271 238.825254 
L 428.521028 246.093833 
L 431.525108 250.380337 
L 434.520448 247.838661 
L 437.515788 244.542982 
L 440.510545 240.681934 
L 443.505886 240.72778 
L 446.501226 235.06301 
L 449.495983 240.429214 
L 452.500063 230.932855 
L 455.495403 231.049058 
L 458.490743 239.799009 
L 461.4855 247.944213 
L 464.490163 255.520554 
L 467.48492 238.623336 
L 470.48026 237.931815 
L 473.493662 248.139595 
L 476.48842 249.505442 
L 479.48376 247.137577 
L 482.4791 239.406446 
L 485.473857 233.295853 
L 488.469197 239.820227 
L 491.463955 247.174755 
L 494.459295 244.951659 
L 497.454635 246.810877 
L 500.449392 240.955402 
L 503.444732 256.016664 
L 506.440073 252.159094 
L 509.444152 242.725235 
L 512.43891 239.130486 
L 515.43425 256.785597 
L 518.42959 249.164397 
L 521.424347 248.883068 
L 524.419687 256.257942 
L 527.415027 252.170045 
L 530.409785 242.886511 
L 533.405125 245.82484 
L 536.399882 250.14969 
L 539.395223 254.192051 
L 542.390563 241.349509 
L 545.38532 256.432359 
L 548.38066 245.535632 
L 551.38474 246.984795 
L 554.38008 242.761281 
L 557.374837 246.082283 
L 560.3795 249.500222 
L 563.383579 241.927678 
L 566.405721 246.402861 
" clip-path="url(#p18c53c8ce6)" style="fill: none; stroke: #e16203; stroke-width: 1.5; stroke-linecap: square"/>
   </g>
   <g id="patch_13">
    <path d="M 339.735938 258.84327 
L 339.735938 213.574468 
" style="fill: none; stroke: #000000; stroke-width: 0.8; stroke-linejoin: miter; stroke-linecap: square"/>
   </g>
   <g id="patch_14">
    <path d="M 577.19952 258.84327 
L 577.19952 213.574468 
" style="fill: none; stroke: #000000; stroke-width: 0.8; stroke-linejoin: miter; stroke-linecap: square"/>
   </g>
   <g id="patch_15">
    <path d="M 339.735938 258.84327 
L 577.19952 258.84327 
" style="fill: none; stroke: #000000; stroke-width: 0.8; stroke-linejoin: miter; stroke-linecap: square"/>
   </g>
   <g id="patch_16">
    <path d="M 339.735938 213.574468 
L 577.19952 213.574468 
" style="fill: none; stroke: #000000; stroke-width: 0.8; stroke-linejoin: miter; stroke-linecap: square"/>
   </g>
  </g>
  <g id="axes_4"/>
  <g id="text_32">
   <!-- 455 nm irradiation: Integration Method -->
   <g transform="translate(175.06851 16.318125) scale(0.12 -0.12)">
    <defs>
     <path id="DejaVuSans-35" d="M 691 4666 
L 3169 4666 
L 3169 4134 
L 1269 4134 
L 1269 2991 
Q 1406 3038 1543 3061 
Q 1681 3084 1819 3084 
Q 2600 3084 3056 2656 
Q 3513 2228 3513 1497 
Q 3513 744 3044 326 
Q 2575 -91 1722 -91 
Q 1428 -91 1123 -41 
Q 819 9 494 109 
L 494 744 
Q 775 591 1075 516 
Q 1375 441 1709 441 
Q 2250 441 2565 725 
Q 2881 1009 2881 1497 
Q 2881 1984 2565 2268 
Q 2250 2553 1709 2553 
Q 1456 2553 1204 2497 
Q 953 2441 691 2322 
L 691 4666 
z
" transform="scale(0.015625)"/>
     <path id="DejaVuSans-49" d="M 628 4666 
L 1259 4666 
L 1259 0 
L 628 0 
L 628 4666 
z
" transform="scale(0.015625)"/>
     <path id="DejaVuSans-67" d="M 2906 1791 
Q 2906 2416 2648 2759 
Q 2391 3103 1925 3103 
Q 1463 3103 1205 2759 
Q 947 2416 947 1791 
Q 947 1169 1205 825 
Q 1463 481 1925 481 
Q 2391 481 2648 825 
Q 2906 1169 2906 1791 
z
M 3481 434 
Q 3481 -459 3084 -895 
Q 2688 -1331 1869 -1331 
Q 1566 -1331 1297 -1286 
Q 1028 -1241 775 -1147 
L 775 -588 
Q 1028 -725 1275 -790 
Q 1522 -856 1778 -856 
Q 2344 -856 2625 -561 
Q 2906 -266 2906 331 
L 2906 616 
Q 2728 306 2450 153 
Q 2172 0 1784 0 
Q 1141 0 747 490 
Q 353 981 353 1791 
Q 353 2603 747 3093 
Q 1141 3584 1784 3584 
Q 2172 3584 2450 3431 
Q 2728 3278 2906 2969 
L 2906 3500 
L 3481 3500 
L 3481 434 
z
" transform="scale(0.015625)"/>
     <path id="DejaVuSans-4d" d="M 628 4666 
L 1569 4666 
L 2759 1491 
L 3956 4666 
L 4897 4666 
L 4897 0 
L 4281 0 
L 4281 4097 
L 3078 897 
L 2444 897 
L 1241 4097 
L 1241 0 
L 628 0 
L 628 4666 
z
" transform="scale(0.015625)"/>
     <path id="DejaVuSans-68" d="M 3513 2113 
L 3513 0 
L 2938 0 
L 2938 2094 
Q 2938 2591 2744 2837 
Q 2550 3084 2163 3084 
Q 1697 3084 1428 2787 
Q 1159 2491 1159 1978 
L 1159 0 
L 581 0 
L 581 4863 
L 1159 4863 
L 1159 2956 
Q 1366 3272 1645 3428 
Q 1925 3584 2291 3584 
Q 2894 3584 3203 3211 
Q 3513 2838 3513 2113 
z
" transform="scale(0.015625)"/>
    </defs>
    <use xlink:href="#DejaVuSans-34"/>
    <use xlink:href="#DejaVuSans-35" x="63.623047"/>
    <use xlink:href="#DejaVuSans-35" x="127.246094"/>
    <use xlink:href="#DejaVuSans-20" x="190.869141"/>
    <use xlink:href="#DejaVuSans-6e" x="222.65625"/>
    <use xlink:href="#DejaVuSans-6d" x="286.035156"/>
    <use xlink:href="#DejaVuSans-20" x="383.447266"/>
    <use xlink:href="#DejaVuSans-69" x="415.234375"/>
    <use xlink:href="#DejaVuSans-72" x="443.017578"/>
    <use xlink:href="#DejaVuSans-72" x="482.380859"/>
    <use xlink:href="#DejaVuSans-61" x="523.494141"/>
    <use xlink:href="#DejaVuSans-64" x="584.773438"/>
    <use xlink:href="#DejaVuSans-69" x="648.25"/>
    <use xlink:href="#DejaVuSans-61" x="676.033203"/>
    <use xlink:href="#DejaVuSans-74" x="737.3125"/>
    <use xlink:href="#DejaVuSans-69" x="776.521484"/>
    <use xlink:href="#DejaVuSans-6f" x="804.304688"/>
    <use xlink:href="#DejaVuSans-6e" x="865.486328"/>
    <use xlink:href="#DejaVuSans-3a" x="928.865234"/>
    <use xlink:href="#DejaVuSans-20" x="962.556641"/>
    <use xlink:href="#DejaVuSans-49" x="994.34375"/>
    <use xlink:href="#DejaVuSans-6e" x="1023.835938"/>
    <use xlink:href="#DejaVuSans-74" x="1087.214844"/>
    <use xlink:href="#DejaVuSans-65" x="1126.423828"/>
    <use xlink:href="#DejaVuSans-67" x="1187.947266"/>
    <use xlink:href="#DejaVuSans-72" x="1251.423828"/>
    <use xlink:href="#DejaVuSans-61" x="1292.537109"/>
    <use xlink:href="#DejaVuSans-74" x="1353.816406"/>
    <use xlink:href="#DejaVuSans-69" x="1393.025391"/>
    <use xlink:href="#DejaVuSans-6f" x="1420.808594"/>
    <use xlink:href="#DejaVuSans-6e" x="1481.990234"/>
    <use xlink:href="#DejaVuSans-20" x="1545.369141"/>
    <use xlink:href="#DejaVuSans-4d" x="1577.15625"/>
    <use xlink:href="#DejaVuSans-65" x="1663.435547"/>
    <use xlink:href="#DejaVuSans-74" x="1724.958984"/>
    <use xlink:href="#DejaVuSans-68" x="1764.167969"/>
    <use xlink:href="#DejaVuSans-6f" x="1827.546875"/>
    <use xlink:href="#DejaVuSans-64" x="1888.728516"/>
   </g>
  </g>
 </g>
 <defs>
  <clipPath id="pfe3f2e8bc6">
   <rect x="46.965625" y="39.932355" width="237.463583" height="135.806406"/>
  </clipPath>
  <clipPath id="p9c1cfeb7ad">
   <rect x="339.735938" y="39.932355" width="237.463582" height="135.806406"/>
  </clipPath>
  <clipPath id="p18c53c8ce6">
   <rect x="339.735938" y="213.574468" width="237.463582" height="45.268802"/>
  </clipPath>
 </defs>
</svg>
