<?xml version="1.0" encoding="utf-8" standalone="no"?>
<!DOCTYPE svg PUBLIC "-//W3C//DTD SVG 1.1//EN"
  "http://www.w3.org/Graphics/SVG/1.1/DTD/svg11.dtd">
<svg xmlns:xlink="http://www.w3.org/1999/xlink" width="584.39952pt" height="296.39952pt" viewBox="0 0 584.39952 296.39952" xmlns="http://www.w3.org/2000/svg" version="1.1">
 <metadata>
  <rdf:RDF xmlns:dc="http://purl.org/dc/elements/1.1/" xmlns:cc="http://creativecommons.org/ns#" xmlns:rdf="http://www.w3.org/1999/02/22-rdf-syntax-ns#">
   <cc:Work>
    <dc:type rdf:resource="http://purl.org/dc/dcmitype/StillImage"/>
    <dc:date>2024-12-17T17:19:54.660262</dc:date>
    <dc:format>image/svg+xml</dc:format>
    <dc:creator>
     <cc:Agent>
      <dc:title>Matplotlib v3.8.4, https://matplotlib.org/</dc:title>
     </cc:Agent>
    </dc:creator>
   </cc:Work>
  </rdf:RDF>
 </metadata>
 <defs>
  <style type="text/css">*{stroke-linejoin: round; stroke-linecap: butt}</style>
 </defs>
 <g id="figure_1">
  <g id="patch_1">
   <path d="M 0 296.39952 
L 584.39952 296.39952 
L 584.39952 0 
L 0 0 
z
" style="fill: #ffffff"/>
  </g>
  <g id="axes_1">
   <g id="patch_2">
    <path d="M 46.965625 175.738761 
L 244.229447 175.738761 
L 244.229447 39.932355 
L 46.965625 39.932355 
z
" style="fill: #ffffff"/>
   </g>
   <g id="matplotlib.axis_1">
    <g id="xtick_1">
     <g id="line2d_1">
      <defs>
       <path id="m6b5df957e4" d="M 0 0 
L 0 3.5 
" style="stroke: #000000; stroke-width: 0.8"/>
      </defs>
      <g>
       <use xlink:href="#m6b5df957e4" x="55.90167" y="175.738761" style="stroke: #000000; stroke-width: 0.8"/>
      </g>
     </g>
     <g id="text_1">
      <!-- 0 -->
      <g transform="translate(52.72042 190.337198) scale(0.1 -0.1)">
       <defs>
        <path id="DejaVuSans-30" d="M 2034 4250 
Q 1547 4250 1301 3770 
Q 1056 3291 1056 2328 
Q 1056 1369 1301 889 
Q 1547 409 2034 409 
Q 2525 409 2770 889 
Q 3016 1369 3016 2328 
Q 3016 3291 2770 3770 
Q 2525 4250 2034 4250 
z
M 2034 4750 
Q 2819 4750 3233 4129 
Q 3647 3509 3647 2328 
Q 3647 1150 3233 529 
Q 2819 -91 2034 -91 
Q 1250 -91 836 529 
Q 422 1150 422 2328 
Q 422 3509 836 4129 
Q 1250 4750 2034 4750 
z
" transform="scale(0.015625)"/>
       </defs>
       <use xlink:href="#DejaVuSans-30"/>
      </g>
     </g>
    </g>
    <g id="xtick_2">
     <g id="line2d_2">
      <g>
       <use xlink:href="#m6b5df957e4" x="104.302072" y="175.738761" style="stroke: #000000; stroke-width: 0.8"/>
      </g>
     </g>
     <g id="text_2">
      <!-- 100 -->
      <g transform="translate(94.758322 190.337198) scale(0.1 -0.1)">
       <defs>
        <path id="DejaVuSans-31" d="M 794 531 
L 1825 531 
L 1825 4091 
L 703 3866 
L 703 4441 
L 1819 4666 
L 2450 4666 
L 2450 531 
L 3481 531 
L 3481 0 
L 794 0 
L 794 531 
z
" transform="scale(0.015625)"/>
       </defs>
       <use xlink:href="#DejaVuSans-31"/>
       <use xlink:href="#DejaVuSans-30" x="63.623047"/>
       <use xlink:href="#DejaVuSans-30" x="127.246094"/>
      </g>
     </g>
    </g>
    <g id="xtick_3">
     <g id="line2d_3">
      <g>
       <use xlink:href="#m6b5df957e4" x="152.702473" y="175.738761" style="stroke: #000000; stroke-width: 0.8"/>
      </g>
     </g>
     <g id="text_3">
      <!-- 200 -->
      <g transform="translate(143.158723 190.337198) scale(0.1 -0.1)">
       <defs>
        <path id="DejaVuSans-32" d="M 1228 531 
L 3431 531 
L 3431 0 
L 469 0 
L 469 531 
Q 828 903 1448 1529 
Q 2069 2156 2228 2338 
Q 2531 2678 2651 2914 
Q 2772 3150 2772 3378 
Q 2772 3750 2511 3984 
Q 2250 4219 1831 4219 
Q 1534 4219 1204 4116 
Q 875 4013 500 3803 
L 500 4441 
Q 881 4594 1212 4672 
Q 1544 4750 1819 4750 
Q 2544 4750 2975 4387 
Q 3406 4025 3406 3419 
Q 3406 3131 3298 2873 
Q 3191 2616 2906 2266 
Q 2828 2175 2409 1742 
Q 1991 1309 1228 531 
z
" transform="scale(0.015625)"/>
       </defs>
       <use xlink:href="#DejaVuSans-32"/>
       <use xlink:href="#DejaVuSans-30" x="63.623047"/>
       <use xlink:href="#DejaVuSans-30" x="127.246094"/>
      </g>
     </g>
    </g>
    <g id="xtick_4">
     <g id="line2d_4">
      <g>
       <use xlink:href="#m6b5df957e4" x="201.102875" y="175.738761" style="stroke: #000000; stroke-width: 0.8"/>
      </g>
     </g>
     <g id="text_4">
      <!-- 300 -->
      <g transform="translate(191.559125 190.337198) scale(0.1 -0.1)">
       <defs>
        <path id="DejaVuSans-33" d="M 2597 2516 
Q 3050 2419 3304 2112 
Q 3559 1806 3559 1356 
Q 3559 666 3084 287 
Q 2609 -91 1734 -91 
Q 1441 -91 1130 -33 
Q 819 25 488 141 
L 488 750 
Q 750 597 1062 519 
Q 1375 441 1716 441 
Q 2309 441 2620 675 
Q 2931 909 2931 1356 
Q 2931 1769 2642 2001 
Q 2353 2234 1838 2234 
L 1294 2234 
L 1294 2753 
L 1863 2753 
Q 2328 2753 2575 2939 
Q 2822 3125 2822 3475 
Q 2822 3834 2567 4026 
Q 2313 4219 1838 4219 
Q 1578 4219 1281 4162 
Q 984 4106 628 3988 
L 628 4550 
Q 988 4650 1302 4700 
Q 1616 4750 1894 4750 
Q 2613 4750 3031 4423 
Q 3450 4097 3450 3541 
Q 3450 3153 3228 2886 
Q 3006 2619 2597 2516 
z
" transform="scale(0.015625)"/>
       </defs>
       <use xlink:href="#DejaVuSans-33"/>
       <use xlink:href="#DejaVuSans-30" x="63.623047"/>
       <use xlink:href="#DejaVuSans-30" x="127.246094"/>
      </g>
     </g>
    </g>
    <g id="xtick_5">
     <g id="line2d_5">
      <defs>
       <path id="mb4c624a6ea" d="M 0 0 
L 0 2 
" style="stroke: #000000; stroke-width: 0.6"/>
      </defs>
      <g>
       <use xlink:href="#mb4c624a6ea" x="80.101871" y="175.738761" style="stroke: #000000; stroke-width: 0.6"/>
      </g>
     </g>
    </g>
    <g id="xtick_6">
     <g id="line2d_6">
      <g>
       <use xlink:href="#mb4c624a6ea" x="128.502272" y="175.738761" style="stroke: #000000; stroke-width: 0.6"/>
      </g>
     </g>
    </g>
    <g id="xtick_7">
     <g id="line2d_7">
      <g>
       <use xlink:href="#mb4c624a6ea" x="176.902674" y="175.738761" style="stroke: #000000; stroke-width: 0.6"/>
      </g>
     </g>
    </g>
    <g id="xtick_8">
     <g id="line2d_8">
      <g>
       <use xlink:href="#mb4c624a6ea" x="225.303075" y="175.738761" style="stroke: #000000; stroke-width: 0.6"/>
      </g>
     </g>
    </g>
    <g id="text_5">
     <!-- Time (s) -->
     <g transform="translate(125.26863 204.015323) scale(0.1 -0.1)">
      <defs>
       <path id="DejaVuSans-54" d="M -19 4666 
L 3928 4666 
L 3928 4134 
L 2272 4134 
L 2272 0 
L 1638 0 
L 1638 4134 
L -19 4134 
L -19 4666 
z
" transform="scale(0.015625)"/>
       <path id="DejaVuSans-69" d="M 603 3500 
L 1178 3500 
L 1178 0 
L 603 0 
L 603 3500 
z
M 603 4863 
L 1178 4863 
L 1178 4134 
L 603 4134 
L 603 4863 
z
" transform="scale(0.015625)"/>
       <path id="DejaVuSans-6d" d="M 3328 2828 
Q 3544 3216 3844 3400 
Q 4144 3584 4550 3584 
Q 5097 3584 5394 3201 
Q 5691 2819 5691 2113 
L 5691 0 
L 5113 0 
L 5113 2094 
Q 5113 2597 4934 2840 
Q 4756 3084 4391 3084 
Q 3944 3084 3684 2787 
Q 3425 2491 3425 1978 
L 3425 0 
L 2847 0 
L 2847 2094 
Q 2847 2600 2669 2842 
Q 2491 3084 2119 3084 
Q 1678 3084 1418 2786 
Q 1159 2488 1159 1978 
L 1159 0 
L 581 0 
L 581 3500 
L 1159 3500 
L 1159 2956 
Q 1356 3278 1631 3431 
Q 1906 3584 2284 3584 
Q 2666 3584 2933 3390 
Q 3200 3197 3328 2828 
z
" transform="scale(0.015625)"/>
       <path id="DejaVuSans-65" d="M 3597 1894 
L 3597 1613 
L 953 1613 
Q 991 1019 1311 708 
Q 1631 397 2203 397 
Q 2534 397 2845 478 
Q 3156 559 3463 722 
L 3463 178 
Q 3153 47 2828 -22 
Q 2503 -91 2169 -91 
Q 1331 -91 842 396 
Q 353 884 353 1716 
Q 353 2575 817 3079 
Q 1281 3584 2069 3584 
Q 2775 3584 3186 3129 
Q 3597 2675 3597 1894 
z
M 3022 2063 
Q 3016 2534 2758 2815 
Q 2500 3097 2075 3097 
Q 1594 3097 1305 2825 
Q 1016 2553 972 2059 
L 3022 2063 
z
" transform="scale(0.015625)"/>
       <path id="DejaVuSans-20" transform="scale(0.015625)"/>
       <path id="DejaVuSans-28" d="M 1984 4856 
Q 1566 4138 1362 3434 
Q 1159 2731 1159 2009 
Q 1159 1288 1364 580 
Q 1569 -128 1984 -844 
L 1484 -844 
Q 1016 -109 783 600 
Q 550 1309 550 2009 
Q 550 2706 781 3412 
Q 1013 4119 1484 4856 
L 1984 4856 
z
" transform="scale(0.015625)"/>
       <path id="DejaVuSans-73" d="M 2834 3397 
L 2834 2853 
Q 2591 2978 2328 3040 
Q 2066 3103 1784 3103 
Q 1356 3103 1142 2972 
Q 928 2841 928 2578 
Q 928 2378 1081 2264 
Q 1234 2150 1697 2047 
L 1894 2003 
Q 2506 1872 2764 1633 
Q 3022 1394 3022 966 
Q 3022 478 2636 193 
Q 2250 -91 1575 -91 
Q 1294 -91 989 -36 
Q 684 19 347 128 
L 347 722 
Q 666 556 975 473 
Q 1284 391 1588 391 
Q 1994 391 2212 530 
Q 2431 669 2431 922 
Q 2431 1156 2273 1281 
Q 2116 1406 1581 1522 
L 1381 1569 
Q 847 1681 609 1914 
Q 372 2147 372 2553 
Q 372 3047 722 3315 
Q 1072 3584 1716 3584 
Q 2034 3584 2315 3537 
Q 2597 3491 2834 3397 
z
" transform="scale(0.015625)"/>
       <path id="DejaVuSans-29" d="M 513 4856 
L 1013 4856 
Q 1481 4119 1714 3412 
Q 1947 2706 1947 2009 
Q 1947 1309 1714 600 
Q 1481 -109 1013 -844 
L 513 -844 
Q 928 -128 1133 580 
Q 1338 1288 1338 2009 
Q 1338 2731 1133 3434 
Q 928 4138 513 4856 
z
" transform="scale(0.015625)"/>
      </defs>
      <use xlink:href="#DejaVuSans-54"/>
      <use xlink:href="#DejaVuSans-69" x="57.958984"/>
      <use xlink:href="#DejaVuSans-6d" x="85.742188"/>
      <use xlink:href="#DejaVuSans-65" x="183.154297"/>
      <use xlink:href="#DejaVuSans-20" x="244.677734"/>
      <use xlink:href="#DejaVuSans-28" x="276.464844"/>
      <use xlink:href="#DejaVuSans-73" x="315.478516"/>
      <use xlink:href="#DejaVuSans-29" x="367.578125"/>
     </g>
    </g>
   </g>
   <g id="matplotlib.axis_2">
    <g id="ytick_1">
     <g id="line2d_9">
      <defs>
       <path id="medcf5dc1f5" d="M 0 0 
L -3.5 0 
" style="stroke: #000000; stroke-width: 0.8"/>
      </defs>
      <g>
       <use xlink:href="#medcf5dc1f5" x="46.965625" y="169.565742" style="stroke: #000000; stroke-width: 0.8"/>
      </g>
     </g>
     <g id="text_6">
      <!-- 0 -->
      <g transform="translate(33.603125 173.364961) scale(0.1 -0.1)">
       <use xlink:href="#DejaVuSans-30"/>
      </g>
     </g>
    </g>
    <g id="ytick_2">
     <g id="line2d_10">
      <g>
       <use xlink:href="#medcf5dc1f5" x="46.965625" y="144.873668" style="stroke: #000000; stroke-width: 0.8"/>
      </g>
     </g>
     <g id="text_7">
      <!-- 20 -->
      <g transform="translate(27.240625 148.672887) scale(0.1 -0.1)">
       <use xlink:href="#DejaVuSans-32"/>
       <use xlink:href="#DejaVuSans-30" x="63.623047"/>
      </g>
     </g>
    </g>
    <g id="ytick_3">
     <g id="line2d_11">
      <g>
       <use xlink:href="#medcf5dc1f5" x="46.965625" y="120.181595" style="stroke: #000000; stroke-width: 0.8"/>
      </g>
     </g>
     <g id="text_8">
      <!-- 40 -->
      <g transform="translate(27.240625 123.980813) scale(0.1 -0.1)">
       <defs>
        <path id="DejaVuSans-34" d="M 2419 4116 
L 825 1625 
L 2419 1625 
L 2419 4116 
z
M 2253 4666 
L 3047 4666 
L 3047 1625 
L 3713 1625 
L 3713 1100 
L 3047 1100 
L 3047 0 
L 2419 0 
L 2419 1100 
L 313 1100 
L 313 1709 
L 2253 4666 
z
" transform="scale(0.015625)"/>
       </defs>
       <use xlink:href="#DejaVuSans-34"/>
       <use xlink:href="#DejaVuSans-30" x="63.623047"/>
      </g>
     </g>
    </g>
    <g id="ytick_4">
     <g id="line2d_12">
      <g>
       <use xlink:href="#medcf5dc1f5" x="46.965625" y="95.489521" style="stroke: #000000; stroke-width: 0.8"/>
      </g>
     </g>
     <g id="text_9">
      <!-- 60 -->
      <g transform="translate(27.240625 99.28874) scale(0.1 -0.1)">
       <defs>
        <path id="DejaVuSans-36" d="M 2113 2584 
Q 1688 2584 1439 2293 
Q 1191 2003 1191 1497 
Q 1191 994 1439 701 
Q 1688 409 2113 409 
Q 2538 409 2786 701 
Q 3034 994 3034 1497 
Q 3034 2003 2786 2293 
Q 2538 2584 2113 2584 
z
M 3366 4563 
L 3366 3988 
Q 3128 4100 2886 4159 
Q 2644 4219 2406 4219 
Q 1781 4219 1451 3797 
Q 1122 3375 1075 2522 
Q 1259 2794 1537 2939 
Q 1816 3084 2150 3084 
Q 2853 3084 3261 2657 
Q 3669 2231 3669 1497 
Q 3669 778 3244 343 
Q 2819 -91 2113 -91 
Q 1303 -91 875 529 
Q 447 1150 447 2328 
Q 447 3434 972 4092 
Q 1497 4750 2381 4750 
Q 2619 4750 2861 4703 
Q 3103 4656 3366 4563 
z
" transform="scale(0.015625)"/>
       </defs>
       <use xlink:href="#DejaVuSans-36"/>
       <use xlink:href="#DejaVuSans-30" x="63.623047"/>
      </g>
     </g>
    </g>
    <g id="ytick_5">
     <g id="line2d_13">
      <g>
       <use xlink:href="#medcf5dc1f5" x="46.965625" y="70.797447" style="stroke: #000000; stroke-width: 0.8"/>
      </g>
     </g>
     <g id="text_10">
      <!-- 80 -->
      <g transform="translate(27.240625 74.596666) scale(0.1 -0.1)">
       <defs>
        <path id="DejaVuSans-38" d="M 2034 2216 
Q 1584 2216 1326 1975 
Q 1069 1734 1069 1313 
Q 1069 891 1326 650 
Q 1584 409 2034 409 
Q 2484 409 2743 651 
Q 3003 894 3003 1313 
Q 3003 1734 2745 1975 
Q 2488 2216 2034 2216 
z
M 1403 2484 
Q 997 2584 770 2862 
Q 544 3141 544 3541 
Q 544 4100 942 4425 
Q 1341 4750 2034 4750 
Q 2731 4750 3128 4425 
Q 3525 4100 3525 3541 
Q 3525 3141 3298 2862 
Q 3072 2584 2669 2484 
Q 3125 2378 3379 2068 
Q 3634 1759 3634 1313 
Q 3634 634 3220 271 
Q 2806 -91 2034 -91 
Q 1263 -91 848 271 
Q 434 634 434 1313 
Q 434 1759 690 2068 
Q 947 2378 1403 2484 
z
M 1172 3481 
Q 1172 3119 1398 2916 
Q 1625 2713 2034 2713 
Q 2441 2713 2670 2916 
Q 2900 3119 2900 3481 
Q 2900 3844 2670 4047 
Q 2441 4250 2034 4250 
Q 1625 4250 1398 4047 
Q 1172 3844 1172 3481 
z
" transform="scale(0.015625)"/>
       </defs>
       <use xlink:href="#DejaVuSans-38"/>
       <use xlink:href="#DejaVuSans-30" x="63.623047"/>
      </g>
     </g>
    </g>
    <g id="ytick_6">
     <g id="line2d_14">
      <g>
       <use xlink:href="#medcf5dc1f5" x="46.965625" y="46.105373" style="stroke: #000000; stroke-width: 0.8"/>
      </g>
     </g>
     <g id="text_11">
      <!-- 100 -->
      <g transform="translate(20.878125 49.904592) scale(0.1 -0.1)">
       <use xlink:href="#DejaVuSans-31"/>
       <use xlink:href="#DejaVuSans-30" x="63.623047"/>
       <use xlink:href="#DejaVuSans-30" x="127.246094"/>
      </g>
     </g>
    </g>
    <g id="ytick_7">
     <g id="line2d_15">
      <defs>
       <path id="mb24ff80798" d="M 0 0 
L -2 0 
" style="stroke: #000000; stroke-width: 0.6"/>
      </defs>
      <g>
       <use xlink:href="#mb24ff80798" x="46.965625" y="157.219705" style="stroke: #000000; stroke-width: 0.6"/>
      </g>
     </g>
    </g>
    <g id="ytick_8">
     <g id="line2d_16">
      <g>
       <use xlink:href="#mb24ff80798" x="46.965625" y="132.527631" style="stroke: #000000; stroke-width: 0.6"/>
      </g>
     </g>
    </g>
    <g id="ytick_9">
     <g id="line2d_17">
      <g>
       <use xlink:href="#mb24ff80798" x="46.965625" y="107.835558" style="stroke: #000000; stroke-width: 0.6"/>
      </g>
     </g>
    </g>
    <g id="ytick_10">
     <g id="line2d_18">
      <g>
       <use xlink:href="#mb24ff80798" x="46.965625" y="83.143484" style="stroke: #000000; stroke-width: 0.6"/>
      </g>
     </g>
    </g>
    <g id="ytick_11">
     <g id="line2d_19">
      <g>
       <use xlink:href="#mb24ff80798" x="46.965625" y="58.45141" style="stroke: #000000; stroke-width: 0.6"/>
      </g>
     </g>
    </g>
    <g id="text_12">
     <!-- Fraction (%) -->
     <g transform="translate(14.798437 138.036339) rotate(-90) scale(0.1 -0.1)">
      <defs>
       <path id="DejaVuSans-46" d="M 628 4666 
L 3309 4666 
L 3309 4134 
L 1259 4134 
L 1259 2759 
L 3109 2759 
L 3109 2228 
L 1259 2228 
L 1259 0 
L 628 0 
L 628 4666 
z
" transform="scale(0.015625)"/>
       <path id="DejaVuSans-72" d="M 2631 2963 
Q 2534 3019 2420 3045 
Q 2306 3072 2169 3072 
Q 1681 3072 1420 2755 
Q 1159 2438 1159 1844 
L 1159 0 
L 581 0 
L 581 3500 
L 1159 3500 
L 1159 2956 
Q 1341 3275 1631 3429 
Q 1922 3584 2338 3584 
Q 2397 3584 2469 3576 
Q 2541 3569 2628 3553 
L 2631 2963 
z
" transform="scale(0.015625)"/>
       <path id="DejaVuSans-61" d="M 2194 1759 
Q 1497 1759 1228 1600 
Q 959 1441 959 1056 
Q 959 750 1161 570 
Q 1363 391 1709 391 
Q 2188 391 2477 730 
Q 2766 1069 2766 1631 
L 2766 1759 
L 2194 1759 
z
M 3341 1997 
L 3341 0 
L 2766 0 
L 2766 531 
Q 2569 213 2275 61 
Q 1981 -91 1556 -91 
Q 1019 -91 701 211 
Q 384 513 384 1019 
Q 384 1609 779 1909 
Q 1175 2209 1959 2209 
L 2766 2209 
L 2766 2266 
Q 2766 2663 2505 2880 
Q 2244 3097 1772 3097 
Q 1472 3097 1187 3025 
Q 903 2953 641 2809 
L 641 3341 
Q 956 3463 1253 3523 
Q 1550 3584 1831 3584 
Q 2591 3584 2966 3190 
Q 3341 2797 3341 1997 
z
" transform="scale(0.015625)"/>
       <path id="DejaVuSans-63" d="M 3122 3366 
L 3122 2828 
Q 2878 2963 2633 3030 
Q 2388 3097 2138 3097 
Q 1578 3097 1268 2742 
Q 959 2388 959 1747 
Q 959 1106 1268 751 
Q 1578 397 2138 397 
Q 2388 397 2633 464 
Q 2878 531 3122 666 
L 3122 134 
Q 2881 22 2623 -34 
Q 2366 -91 2075 -91 
Q 1284 -91 818 406 
Q 353 903 353 1747 
Q 353 2603 823 3093 
Q 1294 3584 2113 3584 
Q 2378 3584 2631 3529 
Q 2884 3475 3122 3366 
z
" transform="scale(0.015625)"/>
       <path id="DejaVuSans-74" d="M 1172 4494 
L 1172 3500 
L 2356 3500 
L 2356 3053 
L 1172 3053 
L 1172 1153 
Q 1172 725 1289 603 
Q 1406 481 1766 481 
L 2356 481 
L 2356 0 
L 1766 0 
Q 1100 0 847 248 
Q 594 497 594 1153 
L 594 3053 
L 172 3053 
L 172 3500 
L 594 3500 
L 594 4494 
L 1172 4494 
z
" transform="scale(0.015625)"/>
       <path id="DejaVuSans-6f" d="M 1959 3097 
Q 1497 3097 1228 2736 
Q 959 2375 959 1747 
Q 959 1119 1226 758 
Q 1494 397 1959 397 
Q 2419 397 2687 759 
Q 2956 1122 2956 1747 
Q 2956 2369 2687 2733 
Q 2419 3097 1959 3097 
z
M 1959 3584 
Q 2709 3584 3137 3096 
Q 3566 2609 3566 1747 
Q 3566 888 3137 398 
Q 2709 -91 1959 -91 
Q 1206 -91 779 398 
Q 353 888 353 1747 
Q 353 2609 779 3096 
Q 1206 3584 1959 3584 
z
" transform="scale(0.015625)"/>
       <path id="DejaVuSans-6e" d="M 3513 2113 
L 3513 0 
L 2938 0 
L 2938 2094 
Q 2938 2591 2744 2837 
Q 2550 3084 2163 3084 
Q 1697 3084 1428 2787 
Q 1159 2491 1159 1978 
L 1159 0 
L 581 0 
L 581 3500 
L 1159 3500 
L 1159 2956 
Q 1366 3272 1645 3428 
Q 1925 3584 2291 3584 
Q 2894 3584 3203 3211 
Q 3513 2838 3513 2113 
z
" transform="scale(0.015625)"/>
       <path id="DejaVuSans-25" d="M 4653 2053 
Q 4381 2053 4226 1822 
Q 4072 1591 4072 1178 
Q 4072 772 4226 539 
Q 4381 306 4653 306 
Q 4919 306 5073 539 
Q 5228 772 5228 1178 
Q 5228 1588 5073 1820 
Q 4919 2053 4653 2053 
z
M 4653 2450 
Q 5147 2450 5437 2106 
Q 5728 1763 5728 1178 
Q 5728 594 5436 251 
Q 5144 -91 4653 -91 
Q 4153 -91 3862 251 
Q 3572 594 3572 1178 
Q 3572 1766 3864 2108 
Q 4156 2450 4653 2450 
z
M 1428 4353 
Q 1159 4353 1004 4120 
Q 850 3888 850 3481 
Q 850 3069 1003 2837 
Q 1156 2606 1428 2606 
Q 1700 2606 1854 2837 
Q 2009 3069 2009 3481 
Q 2009 3884 1853 4118 
Q 1697 4353 1428 4353 
z
M 4250 4750 
L 4750 4750 
L 1831 -91 
L 1331 -91 
L 4250 4750 
z
M 1428 4750 
Q 1922 4750 2215 4408 
Q 2509 4066 2509 3481 
Q 2509 2891 2217 2550 
Q 1925 2209 1428 2209 
Q 931 2209 642 2551 
Q 353 2894 353 3481 
Q 353 4063 643 4406 
Q 934 4750 1428 4750 
z
" transform="scale(0.015625)"/>
      </defs>
      <use xlink:href="#DejaVuSans-46"/>
      <use xlink:href="#DejaVuSans-72" x="50.269531"/>
      <use xlink:href="#DejaVuSans-61" x="91.382812"/>
      <use xlink:href="#DejaVuSans-63" x="152.662109"/>
      <use xlink:href="#DejaVuSans-74" x="207.642578"/>
      <use xlink:href="#DejaVuSans-69" x="246.851562"/>
      <use xlink:href="#DejaVuSans-6f" x="274.634766"/>
      <use xlink:href="#DejaVuSans-6e" x="335.816406"/>
      <use xlink:href="#DejaVuSans-20" x="399.195312"/>
      <use xlink:href="#DejaVuSans-28" x="430.982422"/>
      <use xlink:href="#DejaVuSans-25" x="469.996094"/>
      <use xlink:href="#DejaVuSans-29" x="565.015625"/>
     </g>
    </g>
   </g>
   <g id="line2d_20">
    <path d="M 55.932162 46.105373 
L 58.435431 54.466928 
L 60.9387 62.334298 
L 63.426481 69.682708 
L 65.914745 76.587302 
L 68.402526 83.056146 
L 70.898535 89.133693 
L 73.386315 94.802252 
L 75.897328 100.152708 
L 78.385109 105.108545 
L 80.873373 109.74286 
L 83.361638 114.06743 
L 85.849419 118.098333 
L 88.352687 121.877026 
L 90.840952 125.375526 
L 93.328733 128.631781 
L 95.816997 131.658679 
L 98.305262 134.470594 
L 100.793043 137.08212 
L 103.281307 139.509135 
L 105.784576 141.77381 
L 108.272357 143.859259 
L 110.760621 145.792621 
L 113.248886 147.585704 
L 115.744411 149.247245 
L 118.232675 150.790921 
L 120.720456 152.21628 
L 123.215981 153.538444 
L 125.704245 154.759688 
L 128.19251 155.891508 
L 130.68029 156.9394 
L 133.168555 157.909875 
L 135.65682 158.807885 
L 138.1446 159.637499 
L 140.640125 160.404603 
L 143.12839 161.110829 
L 145.616654 161.763748 
L 148.104435 162.366807 
L 150.600444 162.924934 
L 153.088224 163.436957 
L 155.576489 163.907242 
L 158.079758 164.343121 
L 160.567538 164.742776 
L 163.055803 165.111869 
L 165.544068 165.452886 
L 168.031848 165.768118 
L 170.520113 166.0598 
L 173.007894 166.329661 
L 175.496158 166.579455 
L 177.984423 166.810556 
L 180.472204 167.024129 
L 182.960468 167.221235 
L 185.448733 167.406307 
L 187.944258 167.572863 
L 190.432038 167.727122 
L 192.920303 167.869981 
L 195.408567 168.001743 
L 197.896348 168.122727 
L 200.384613 168.233992 
L 202.872877 168.336529 
L 205.360658 168.430974 
L 207.848923 168.518017 
L 210.336703 168.598273 
L 212.824968 168.672429 
L 215.313233 168.740973 
L 217.801013 168.80408 
L 220.289278 168.862246 
L 222.784803 168.916101 
L 225.273067 168.965824 
L 227.760848 169.012059 
L 230.256857 169.055398 
L 232.752381 169.095498 
L 235.26291 169.132672 
" clip-path="url(#p5deffe2b33)" style="fill: none; stroke: #346aa9; stroke-width: 1.5; stroke-linecap: square"/>
   </g>
   <g id="line2d_21">
    <path d="M 55.932162 169.565742 
L 58.435431 161.204188 
L 60.9387 153.336817 
L 63.426481 145.988408 
L 65.914745 139.083814 
L 68.402526 132.61497 
L 70.898535 126.537423 
L 73.386315 120.868863 
L 75.897328 115.518408 
L 78.385109 110.56257 
L 80.873373 105.928256 
L 83.361638 101.603686 
L 85.849419 97.572783 
L 88.352687 93.794089 
L 90.840952 90.29559 
L 93.328733 87.039334 
L 95.816997 84.012436 
L 98.305262 81.200521 
L 100.793043 78.588995 
L 103.281307 76.161981 
L 105.784576 73.897306 
L 108.272357 71.811856 
L 110.760621 69.878495 
L 113.248886 68.085411 
L 115.744411 66.423871 
L 118.232675 64.880195 
L 120.720456 63.454836 
L 123.215981 62.132671 
L 125.704245 60.911428 
L 128.19251 59.779607 
L 130.68029 58.731715 
L 133.168555 57.761241 
L 135.65682 56.863231 
L 138.1446 56.033616 
L 140.640125 55.266512 
L 143.12839 54.560286 
L 145.616654 53.907367 
L 148.104435 53.304308 
L 150.600444 52.746181 
L 153.088224 52.234158 
L 155.576489 51.763873 
L 158.079758 51.327995 
L 160.567538 50.92834 
L 163.055803 50.559247 
L 165.544068 50.21823 
L 168.031848 49.902998 
L 170.520113 49.611315 
L 173.007894 49.341454 
L 175.496158 49.09166 
L 177.984423 48.860559 
L 180.472204 48.646987 
L 182.960468 48.44988 
L 185.448733 48.264808 
L 187.944258 48.098252 
L 190.432038 47.943993 
L 192.920303 47.801135 
L 195.408567 47.669372 
L 197.896348 47.548388 
L 200.384613 47.437124 
L 202.872877 47.334586 
L 205.360658 47.240141 
L 207.848923 47.153099 
L 210.336703 47.072842 
L 212.824968 46.998687 
L 215.313233 46.930143 
L 217.801013 46.867036 
L 220.289278 46.808869 
L 222.784803 46.755014 
L 225.273067 46.705292 
L 227.760848 46.659057 
L 230.256857 46.615718 
L 232.752381 46.575618 
L 235.26291 46.538444 
" clip-path="url(#p5deffe2b33)" style="fill: none; stroke: #e16203; stroke-width: 1.5; stroke-linecap: square"/>
   </g>
   <g id="patch_3">
    <path d="M 46.965625 175.738761 
L 46.965625 39.932355 
" style="fill: none; stroke: #000000; stroke-width: 0.8; stroke-linejoin: miter; stroke-linecap: square"/>
   </g>
   <g id="patch_4">
    <path d="M 244.229447 175.738761 
L 244.229447 39.932355 
" style="fill: none; stroke: #000000; stroke-width: 0.8; stroke-linejoin: miter; stroke-linecap: square"/>
   </g>
   <g id="patch_5">
    <path d="M 46.965625 175.738761 
L 244.229447 175.738761 
" style="fill: none; stroke: #000000; stroke-width: 0.8; stroke-linejoin: miter; stroke-linecap: square"/>
   </g>
   <g id="patch_6">
    <path d="M 46.965625 39.932355 
L 244.229447 39.932355 
" style="fill: none; stroke: #000000; stroke-width: 0.8; stroke-linejoin: miter; stroke-linecap: square"/>
   </g>
   <g id="text_13">
    <!-- Conversion over time -->
    <g transform="translate(81.208161 33.932355) scale(0.12 -0.12)">
     <defs>
      <path id="DejaVuSans-43" d="M 4122 4306 
L 4122 3641 
Q 3803 3938 3442 4084 
Q 3081 4231 2675 4231 
Q 1875 4231 1450 3742 
Q 1025 3253 1025 2328 
Q 1025 1406 1450 917 
Q 1875 428 2675 428 
Q 3081 428 3442 575 
Q 3803 722 4122 1019 
L 4122 359 
Q 3791 134 3420 21 
Q 3050 -91 2638 -91 
Q 1578 -91 968 557 
Q 359 1206 359 2328 
Q 359 3453 968 4101 
Q 1578 4750 2638 4750 
Q 3056 4750 3426 4639 
Q 3797 4528 4122 4306 
z
" transform="scale(0.015625)"/>
      <path id="DejaVuSans-76" d="M 191 3500 
L 800 3500 
L 1894 563 
L 2988 3500 
L 3597 3500 
L 2284 0 
L 1503 0 
L 191 3500 
z
" transform="scale(0.015625)"/>
     </defs>
     <use xlink:href="#DejaVuSans-43"/>
     <use xlink:href="#DejaVuSans-6f" x="69.824219"/>
     <use xlink:href="#DejaVuSans-6e" x="131.005859"/>
     <use xlink:href="#DejaVuSans-76" x="194.384766"/>
     <use xlink:href="#DejaVuSans-65" x="253.564453"/>
     <use xlink:href="#DejaVuSans-72" x="315.087891"/>
     <use xlink:href="#DejaVuSans-73" x="356.201172"/>
     <use xlink:href="#DejaVuSans-69" x="408.300781"/>
     <use xlink:href="#DejaVuSans-6f" x="436.083984"/>
     <use xlink:href="#DejaVuSans-6e" x="497.265625"/>
     <use xlink:href="#DejaVuSans-20" x="560.644531"/>
     <use xlink:href="#DejaVuSans-6f" x="592.431641"/>
     <use xlink:href="#DejaVuSans-76" x="653.613281"/>
     <use xlink:href="#DejaVuSans-65" x="712.792969"/>
     <use xlink:href="#DejaVuSans-72" x="774.316406"/>
     <use xlink:href="#DejaVuSans-20" x="815.429688"/>
     <use xlink:href="#DejaVuSans-74" x="847.216797"/>
     <use xlink:href="#DejaVuSans-69" x="886.425781"/>
     <use xlink:href="#DejaVuSans-6d" x="914.208984"/>
     <use xlink:href="#DejaVuSans-65" x="1011.621094"/>
    </g>
   </g>
   <g id="legend_1">
    <g id="line2d_22">
     <path d="M 162.645072 99.75587 
L 172.645072 99.75587 
L 182.645072 99.75587 
" style="fill: none; stroke: #346aa9; stroke-width: 1.5; stroke-linecap: square"/>
    </g>
    <g id="text_14">
     <!-- Reactant -->
     <g transform="translate(190.645072 103.25587) scale(0.1 -0.1)">
      <defs>
       <path id="DejaVuSans-52" d="M 2841 2188 
Q 3044 2119 3236 1894 
Q 3428 1669 3622 1275 
L 4263 0 
L 3584 0 
L 2988 1197 
Q 2756 1666 2539 1819 
Q 2322 1972 1947 1972 
L 1259 1972 
L 1259 0 
L 628 0 
L 628 4666 
L 2053 4666 
Q 2853 4666 3247 4331 
Q 3641 3997 3641 3322 
Q 3641 2881 3436 2590 
Q 3231 2300 2841 2188 
z
M 1259 4147 
L 1259 2491 
L 2053 2491 
Q 2509 2491 2742 2702 
Q 2975 2913 2975 3322 
Q 2975 3731 2742 3939 
Q 2509 4147 2053 4147 
L 1259 4147 
z
" transform="scale(0.015625)"/>
      </defs>
      <use xlink:href="#DejaVuSans-52"/>
      <use xlink:href="#DejaVuSans-65" x="64.982422"/>
      <use xlink:href="#DejaVuSans-61" x="126.505859"/>
      <use xlink:href="#DejaVuSans-63" x="187.785156"/>
      <use xlink:href="#DejaVuSans-74" x="242.765625"/>
      <use xlink:href="#DejaVuSans-61" x="281.974609"/>
      <use xlink:href="#DejaVuSans-6e" x="343.253906"/>
      <use xlink:href="#DejaVuSans-74" x="406.632812"/>
     </g>
    </g>
    <g id="line2d_23">
     <path d="M 162.645072 114.433995 
L 172.645072 114.433995 
L 182.645072 114.433995 
" style="fill: none; stroke: #e16203; stroke-width: 1.5; stroke-linecap: square"/>
    </g>
    <g id="text_15">
     <!-- Product -->
     <g transform="translate(190.645072 117.933995) scale(0.1 -0.1)">
      <defs>
       <path id="DejaVuSans-50" d="M 1259 4147 
L 1259 2394 
L 2053 2394 
Q 2494 2394 2734 2622 
Q 2975 2850 2975 3272 
Q 2975 3691 2734 3919 
Q 2494 4147 2053 4147 
L 1259 4147 
z
M 628 4666 
L 2053 4666 
Q 2838 4666 3239 4311 
Q 3641 3956 3641 3272 
Q 3641 2581 3239 2228 
Q 2838 1875 2053 1875 
L 1259 1875 
L 1259 0 
L 628 0 
L 628 4666 
z
" transform="scale(0.015625)"/>
       <path id="DejaVuSans-64" d="M 2906 2969 
L 2906 4863 
L 3481 4863 
L 3481 0 
L 2906 0 
L 2906 525 
Q 2725 213 2448 61 
Q 2172 -91 1784 -91 
Q 1150 -91 751 415 
Q 353 922 353 1747 
Q 353 2572 751 3078 
Q 1150 3584 1784 3584 
Q 2172 3584 2448 3432 
Q 2725 3281 2906 2969 
z
M 947 1747 
Q 947 1113 1208 752 
Q 1469 391 1925 391 
Q 2381 391 2643 752 
Q 2906 1113 2906 1747 
Q 2906 2381 2643 2742 
Q 2381 3103 1925 3103 
Q 1469 3103 1208 2742 
Q 947 2381 947 1747 
z
" transform="scale(0.015625)"/>
       <path id="DejaVuSans-75" d="M 544 1381 
L 544 3500 
L 1119 3500 
L 1119 1403 
Q 1119 906 1312 657 
Q 1506 409 1894 409 
Q 2359 409 2629 706 
Q 2900 1003 2900 1516 
L 2900 3500 
L 3475 3500 
L 3475 0 
L 2900 0 
L 2900 538 
Q 2691 219 2414 64 
Q 2138 -91 1772 -91 
Q 1169 -91 856 284 
Q 544 659 544 1381 
z
M 1991 3584 
L 1991 3584 
z
" transform="scale(0.015625)"/>
      </defs>
      <use xlink:href="#DejaVuSans-50"/>
      <use xlink:href="#DejaVuSans-72" x="58.552734"/>
      <use xlink:href="#DejaVuSans-6f" x="97.416016"/>
      <use xlink:href="#DejaVuSans-64" x="158.597656"/>
      <use xlink:href="#DejaVuSans-75" x="222.074219"/>
      <use xlink:href="#DejaVuSans-63" x="285.453125"/>
      <use xlink:href="#DejaVuSans-74" x="340.433594"/>
     </g>
    </g>
   </g>
  </g>
  <g id="axes_2">
   <g id="patch_7">
    <path d="M 379.935698 175.738761 
L 577.19952 175.738761 
L 577.19952 39.932355 
L 379.935698 39.932355 
z
" style="fill: #ffffff"/>
   </g>
   <g id="matplotlib.axis_3">
    <g id="xtick_9">
     <g id="line2d_24">
      <g>
       <use xlink:href="#m6b5df957e4" x="388.871743" y="175.738761" style="stroke: #000000; stroke-width: 0.8"/>
      </g>
     </g>
    </g>
    <g id="xtick_10">
     <g id="line2d_25">
      <g>
       <use xlink:href="#m6b5df957e4" x="437.272144" y="175.738761" style="stroke: #000000; stroke-width: 0.8"/>
      </g>
     </g>
    </g>
    <g id="xtick_11">
     <g id="line2d_26">
      <g>
       <use xlink:href="#m6b5df957e4" x="485.672546" y="175.738761" style="stroke: #000000; stroke-width: 0.8"/>
      </g>
     </g>
    </g>
    <g id="xtick_12">
     <g id="line2d_27">
      <g>
       <use xlink:href="#m6b5df957e4" x="534.072947" y="175.738761" style="stroke: #000000; stroke-width: 0.8"/>
      </g>
     </g>
    </g>
    <g id="xtick_13">
     <g id="line2d_28">
      <g>
       <use xlink:href="#mb4c624a6ea" x="413.071943" y="175.738761" style="stroke: #000000; stroke-width: 0.6"/>
      </g>
     </g>
    </g>
    <g id="xtick_14">
     <g id="line2d_29">
      <g>
       <use xlink:href="#mb4c624a6ea" x="461.472345" y="175.738761" style="stroke: #000000; stroke-width: 0.6"/>
      </g>
     </g>
    </g>
    <g id="xtick_15">
     <g id="line2d_30">
      <g>
       <use xlink:href="#mb4c624a6ea" x="509.872746" y="175.738761" style="stroke: #000000; stroke-width: 0.6"/>
      </g>
     </g>
    </g>
    <g id="xtick_16">
     <g id="line2d_31">
      <g>
       <use xlink:href="#mb4c624a6ea" x="558.273148" y="175.738761" style="stroke: #000000; stroke-width: 0.6"/>
      </g>
     </g>
    </g>
   </g>
   <g id="matplotlib.axis_4">
    <g id="ytick_12">
     <g id="line2d_32">
      <g>
       <use xlink:href="#medcf5dc1f5" x="379.935698" y="173.529818" style="stroke: #000000; stroke-width: 0.8"/>
      </g>
     </g>
     <g id="text_16">
      <!-- 0.00 -->
      <g transform="translate(350.670073 177.329037) scale(0.1 -0.1)">
       <defs>
        <path id="DejaVuSans-2e" d="M 684 794 
L 1344 794 
L 1344 0 
L 684 0 
L 684 794 
z
" transform="scale(0.015625)"/>
       </defs>
       <use xlink:href="#DejaVuSans-30"/>
       <use xlink:href="#DejaVuSans-2e" x="63.623047"/>
       <use xlink:href="#DejaVuSans-30" x="95.410156"/>
       <use xlink:href="#DejaVuSans-30" x="159.033203"/>
      </g>
     </g>
    </g>
    <g id="ytick_13">
     <g id="line2d_33">
      <g>
       <use xlink:href="#medcf5dc1f5" x="379.935698" y="131.286896" style="stroke: #000000; stroke-width: 0.8"/>
      </g>
     </g>
     <g id="text_17">
      <!-- 0.01 -->
      <g transform="translate(350.670073 135.086115) scale(0.1 -0.1)">
       <use xlink:href="#DejaVuSans-30"/>
       <use xlink:href="#DejaVuSans-2e" x="63.623047"/>
       <use xlink:href="#DejaVuSans-30" x="95.410156"/>
       <use xlink:href="#DejaVuSans-31" x="159.033203"/>
      </g>
     </g>
    </g>
    <g id="ytick_14">
     <g id="line2d_34">
      <g>
       <use xlink:href="#medcf5dc1f5" x="379.935698" y="89.043975" style="stroke: #000000; stroke-width: 0.8"/>
      </g>
     </g>
     <g id="text_18">
      <!-- 0.02 -->
      <g transform="translate(350.670073 92.843193) scale(0.1 -0.1)">
       <use xlink:href="#DejaVuSans-30"/>
       <use xlink:href="#DejaVuSans-2e" x="63.623047"/>
       <use xlink:href="#DejaVuSans-30" x="95.410156"/>
       <use xlink:href="#DejaVuSans-32" x="159.033203"/>
      </g>
     </g>
    </g>
    <g id="ytick_15">
     <g id="line2d_35">
      <g>
       <use xlink:href="#medcf5dc1f5" x="379.935698" y="46.801053" style="stroke: #000000; stroke-width: 0.8"/>
      </g>
     </g>
     <g id="text_19">
      <!-- 0.03 -->
      <g transform="translate(350.670073 50.600272) scale(0.1 -0.1)">
       <use xlink:href="#DejaVuSans-30"/>
       <use xlink:href="#DejaVuSans-2e" x="63.623047"/>
       <use xlink:href="#DejaVuSans-30" x="95.410156"/>
       <use xlink:href="#DejaVuSans-33" x="159.033203"/>
      </g>
     </g>
    </g>
    <g id="ytick_16">
     <g id="line2d_36">
      <g>
       <use xlink:href="#mb24ff80798" x="379.935698" y="152.408357" style="stroke: #000000; stroke-width: 0.6"/>
      </g>
     </g>
    </g>
    <g id="ytick_17">
     <g id="line2d_37">
      <g>
       <use xlink:href="#mb24ff80798" x="379.935698" y="110.165435" style="stroke: #000000; stroke-width: 0.6"/>
      </g>
     </g>
    </g>
    <g id="ytick_18">
     <g id="line2d_38">
      <g>
       <use xlink:href="#mb24ff80798" x="379.935698" y="67.922514" style="stroke: #000000; stroke-width: 0.6"/>
      </g>
     </g>
    </g>
    <g id="text_20">
     <!-- Absorbance at $\lambda_{irr}$ -->
     <g transform="translate(344.590385 152.535558) rotate(-90) scale(0.1 -0.1)">
      <defs>
       <path id="DejaVuSans-41" d="M 2188 4044 
L 1331 1722 
L 3047 1722 
L 2188 4044 
z
M 1831 4666 
L 2547 4666 
L 4325 0 
L 3669 0 
L 3244 1197 
L 1141 1197 
L 716 0 
L 50 0 
L 1831 4666 
z
" transform="scale(0.015625)"/>
       <path id="DejaVuSans-62" d="M 3116 1747 
Q 3116 2381 2855 2742 
Q 2594 3103 2138 3103 
Q 1681 3103 1420 2742 
Q 1159 2381 1159 1747 
Q 1159 1113 1420 752 
Q 1681 391 2138 391 
Q 2594 391 2855 752 
Q 3116 1113 3116 1747 
z
M 1159 2969 
Q 1341 3281 1617 3432 
Q 1894 3584 2278 3584 
Q 2916 3584 3314 3078 
Q 3713 2572 3713 1747 
Q 3713 922 3314 415 
Q 2916 -91 2278 -91 
Q 1894 -91 1617 61 
Q 1341 213 1159 525 
L 1159 0 
L 581 0 
L 581 4863 
L 1159 4863 
L 1159 2969 
z
" transform="scale(0.015625)"/>
       <path id="DejaVuSans-Oblique-3bb" d="M 2350 4316 
L 3125 0 
L 2516 0 
L 2038 2588 
L 328 0 
L -281 0 
L 1903 3356 
L 1794 3975 
Q 1725 4369 1391 4369 
L 1091 4369 
L 1184 4863 
L 1550 4856 
Q 2253 4847 2350 4316 
z
" transform="scale(0.015625)"/>
       <path id="DejaVuSans-Oblique-69" d="M 1172 4863 
L 1747 4863 
L 1606 4134 
L 1031 4134 
L 1172 4863 
z
M 909 3500 
L 1484 3500 
L 800 0 
L 225 0 
L 909 3500 
z
" transform="scale(0.015625)"/>
       <path id="DejaVuSans-Oblique-72" d="M 2853 2969 
Q 2766 3016 2653 3041 
Q 2541 3066 2413 3066 
Q 1953 3066 1609 2717 
Q 1266 2369 1153 1784 
L 800 0 
L 225 0 
L 909 3500 
L 1484 3500 
L 1375 2956 
Q 1603 3259 1920 3421 
Q 2238 3584 2597 3584 
Q 2691 3584 2781 3573 
Q 2872 3563 2963 3538 
L 2853 2969 
z
" transform="scale(0.015625)"/>
      </defs>
      <use xlink:href="#DejaVuSans-41" transform="translate(0 0.015625)"/>
      <use xlink:href="#DejaVuSans-62" transform="translate(68.408203 0.015625)"/>
      <use xlink:href="#DejaVuSans-73" transform="translate(131.884766 0.015625)"/>
      <use xlink:href="#DejaVuSans-6f" transform="translate(183.984375 0.015625)"/>
      <use xlink:href="#DejaVuSans-72" transform="translate(245.166016 0.015625)"/>
      <use xlink:href="#DejaVuSans-62" transform="translate(286.279297 0.015625)"/>
      <use xlink:href="#DejaVuSans-61" transform="translate(349.755859 0.015625)"/>
      <use xlink:href="#DejaVuSans-6e" transform="translate(411.035156 0.015625)"/>
      <use xlink:href="#DejaVuSans-63" transform="translate(474.414062 0.015625)"/>
      <use xlink:href="#DejaVuSans-65" transform="translate(529.394531 0.015625)"/>
      <use xlink:href="#DejaVuSans-20" transform="translate(590.917969 0.015625)"/>
      <use xlink:href="#DejaVuSans-61" transform="translate(622.705078 0.015625)"/>
      <use xlink:href="#DejaVuSans-74" transform="translate(683.984375 0.015625)"/>
      <use xlink:href="#DejaVuSans-20" transform="translate(723.193359 0.015625)"/>
      <use xlink:href="#DejaVuSans-Oblique-3bb" transform="translate(754.980469 0.015625)"/>
      <use xlink:href="#DejaVuSans-Oblique-69" transform="translate(814.160156 -16.390625) scale(0.7)"/>
      <use xlink:href="#DejaVuSans-Oblique-72" transform="translate(833.608398 -16.390625) scale(0.7)"/>
      <use xlink:href="#DejaVuSans-Oblique-72" transform="translate(862.387695 -16.390625) scale(0.7)"/>
     </g>
    </g>
   </g>
   <g id="line2d_39">
    <path d="M 388.902235 58.586828 
L 391.405504 69.31653 
L 393.908772 78.441001 
L 396.396553 81.60922 
L 398.884818 85.453326 
L 401.372598 92.465651 
L 403.868607 96.732186 
L 406.356388 104.547127 
L 408.867401 113.249169 
L 411.355181 113.84057 
L 413.843446 112.615525 
L 416.33171 118.825234 
L 418.819491 122.458126 
L 421.32276 126.724661 
L 423.811024 133.690518 
L 426.298805 134.438218 
L 428.78707 133.720089 
L 431.275334 138.096455 
L 433.763115 138.675183 
L 436.25138 141.074581 
L 438.754648 150.380697 
L 441.242429 145.066537 
L 443.730694 147.719393 
L 446.218958 150.54122 
L 448.714483 153.130711 
L 451.202748 153.481327 
L 453.690528 152.176021 
L 456.186053 151.859199 
L 458.674318 153.933327 
L 461.162582 156.197547 
L 463.650363 158.588496 
L 466.138628 159.484046 
L 468.626892 162.390359 
L 471.114673 161.216006 
L 473.610198 165.393831 
L 476.098462 166.014802 
L 478.586727 163.442208 
L 481.074508 161.04281 
L 483.570516 158.80816 
L 486.058297 165.440298 
L 488.546562 166.133082 
L 491.04983 162.825462 
L 493.537611 162.702957 
L 496.025876 163.911105 
L 498.51414 167.045529 
L 501.001921 169.565742 
L 503.490186 167.463734 
L 505.977966 165.038991 
L 508.466231 166.082391 
L 510.954495 165.621943 
L 513.442276 167.953752 
L 515.930541 162.660714 
L 518.418805 164.232151 
L 520.91433 167.822799 
L 523.402111 169.275956 
L 525.890375 162.98176 
L 528.37864 165.879625 
L 530.866421 166.095064 
L 533.354685 163.514021 
L 535.84295 165.098131 
L 538.330731 168.566275 
L 540.818995 167.57779 
L 543.306776 166.078166 
L 545.79504 164.675701 
L 548.283305 169.415357 
L 550.771086 163.982918 
L 553.25935 168.004444 
L 555.754875 167.527099 
L 558.24314 169.111208 
L 560.73092 167.945304 
L 563.226929 166.74138 
L 565.722454 169.53575 
L 568.232983 167.941079 
" clip-path="url(#p513aa3a11e)" style="fill: none; stroke: #e16203; stroke-opacity: 0.5; stroke-width: 8; stroke-linecap: square"/>
   </g>
   <g id="line2d_40">
    <path d="M 388.902235 46.105373 
L 391.405504 53.99206 
L 393.908772 61.412629 
L 396.396553 68.343709 
L 398.884818 74.856179 
L 401.372598 80.957647 
L 403.868607 86.690039 
L 406.356388 92.036671 
L 408.867401 97.083265 
L 411.355181 101.757652 
L 413.843446 106.128775 
L 416.33171 110.207745 
L 418.819491 114.009726 
L 421.32276 117.573821 
L 423.811024 120.873635 
L 426.298805 123.944962 
L 428.78707 126.799957 
L 431.275334 129.452178 
L 433.763115 131.915391 
L 436.25138 134.204571 
L 438.754648 136.340631 
L 441.242429 138.307645 
L 443.730694 140.131207 
L 446.218958 141.822458 
L 448.714483 143.389637 
L 451.202748 144.845645 
L 453.690528 146.190055 
L 456.186053 147.437131 
L 458.674318 148.589019 
L 461.162582 149.656561 
L 463.650363 150.644942 
L 466.138628 151.560301 
L 468.626892 152.407311 
L 471.114673 153.189811 
L 473.610198 153.91335 
L 476.098462 154.579468 
L 478.586727 155.195306 
L 481.074508 155.764116 
L 483.570516 156.290546 
L 486.058297 156.773491 
L 488.546562 157.217067 
L 491.04983 157.628192 
L 493.537611 158.00515 
L 496.025876 158.353281 
L 498.51414 158.674931 
L 501.001921 158.97226 
L 503.490186 159.247378 
L 505.977966 159.501913 
L 508.466231 159.737521 
L 510.954495 159.955497 
L 513.442276 160.15694 
L 515.930541 160.342853 
L 518.418805 160.517415 
L 520.91433 160.674511 
L 523.402111 160.82001 
L 525.890375 160.954755 
L 528.37864 161.079034 
L 530.866421 161.193148 
L 533.354685 161.298093 
L 535.84295 161.394807 
L 538.330731 161.483889 
L 540.818995 161.565988 
L 543.306776 161.641687 
L 545.79504 161.711631 
L 548.283305 161.776282 
L 550.771086 161.835805 
L 553.25935 161.890668 
L 555.754875 161.941464 
L 558.24314 161.988363 
L 560.73092 162.031973 
L 563.226929 162.07285 
L 565.722454 162.110673 
L 568.232983 162.145735 
" clip-path="url(#p513aa3a11e)" style="fill: none; stroke-dasharray: 5.55,2.4; stroke-dashoffset: 0; stroke: #346aa9; stroke-width: 1.5"/>
   </g>
   <g id="patch_8">
    <path d="M 379.935698 175.738761 
L 379.935698 39.932355 
" style="fill: none; stroke: #000000; stroke-width: 0.8; stroke-linejoin: miter; stroke-linecap: square"/>
   </g>
   <g id="patch_9">
    <path d="M 577.19952 175.738761 
L 577.19952 39.932355 
" style="fill: none; stroke: #000000; stroke-width: 0.8; stroke-linejoin: miter; stroke-linecap: square"/>
   </g>
   <g id="patch_10">
    <path d="M 379.935698 175.738761 
L 577.19952 175.738761 
" style="fill: none; stroke: #000000; stroke-width: 0.8; stroke-linejoin: miter; stroke-linecap: square"/>
   </g>
   <g id="patch_11">
    <path d="M 379.935698 39.932355 
L 577.19952 39.932355 
" style="fill: none; stroke: #000000; stroke-width: 0.8; stroke-linejoin: miter; stroke-linecap: square"/>
   </g>
   <g id="text_21">
    <!-- Fit vs Experimental -->
    <g transform="translate(421.030421 33.932355) scale(0.12 -0.12)">
     <defs>
      <path id="DejaVuSans-45" d="M 628 4666 
L 3578 4666 
L 3578 4134 
L 1259 4134 
L 1259 2753 
L 3481 2753 
L 3481 2222 
L 1259 2222 
L 1259 531 
L 3634 531 
L 3634 0 
L 628 0 
L 628 4666 
z
" transform="scale(0.015625)"/>
      <path id="DejaVuSans-78" d="M 3513 3500 
L 2247 1797 
L 3578 0 
L 2900 0 
L 1881 1375 
L 863 0 
L 184 0 
L 1544 1831 
L 300 3500 
L 978 3500 
L 1906 2253 
L 2834 3500 
L 3513 3500 
z
" transform="scale(0.015625)"/>
      <path id="DejaVuSans-70" d="M 1159 525 
L 1159 -1331 
L 581 -1331 
L 581 3500 
L 1159 3500 
L 1159 2969 
Q 1341 3281 1617 3432 
Q 1894 3584 2278 3584 
Q 2916 3584 3314 3078 
Q 3713 2572 3713 1747 
Q 3713 922 3314 415 
Q 2916 -91 2278 -91 
Q 1894 -91 1617 61 
Q 1341 213 1159 525 
z
M 3116 1747 
Q 3116 2381 2855 2742 
Q 2594 3103 2138 3103 
Q 1681 3103 1420 2742 
Q 1159 2381 1159 1747 
Q 1159 1113 1420 752 
Q 1681 391 2138 391 
Q 2594 391 2855 752 
Q 3116 1113 3116 1747 
z
" transform="scale(0.015625)"/>
      <path id="DejaVuSans-6c" d="M 603 4863 
L 1178 4863 
L 1178 0 
L 603 0 
L 603 4863 
z
" transform="scale(0.015625)"/>
     </defs>
     <use xlink:href="#DejaVuSans-46"/>
     <use xlink:href="#DejaVuSans-69" x="50.269531"/>
     <use xlink:href="#DejaVuSans-74" x="78.052734"/>
     <use xlink:href="#DejaVuSans-20" x="117.261719"/>
     <use xlink:href="#DejaVuSans-76" x="149.048828"/>
     <use xlink:href="#DejaVuSans-73" x="208.228516"/>
     <use xlink:href="#DejaVuSans-20" x="260.328125"/>
     <use xlink:href="#DejaVuSans-45" x="292.115234"/>
     <use xlink:href="#DejaVuSans-78" x="355.298828"/>
     <use xlink:href="#DejaVuSans-70" x="414.478516"/>
     <use xlink:href="#DejaVuSans-65" x="477.955078"/>
     <use xlink:href="#DejaVuSans-72" x="539.478516"/>
     <use xlink:href="#DejaVuSans-69" x="580.591797"/>
     <use xlink:href="#DejaVuSans-6d" x="608.375"/>
     <use xlink:href="#DejaVuSans-65" x="705.787109"/>
     <use xlink:href="#DejaVuSans-6e" x="767.310547"/>
     <use xlink:href="#DejaVuSans-74" x="830.689453"/>
     <use xlink:href="#DejaVuSans-61" x="869.898438"/>
     <use xlink:href="#DejaVuSans-6c" x="931.177734"/>
    </g>
   </g>
   <g id="legend_2">
    <g id="line2d_41">
     <path d="M 432.69952 53.030792 
L 442.69952 53.030792 
L 452.69952 53.030792 
" style="fill: none; stroke: #e16203; stroke-opacity: 0.5; stroke-width: 8; stroke-linecap: square"/>
    </g>
    <g id="text_22">
     <!-- Experimental Data -->
     <g transform="translate(460.69952 56.530792) scale(0.1 -0.1)">
      <defs>
       <path id="DejaVuSans-44" d="M 1259 4147 
L 1259 519 
L 2022 519 
Q 2988 519 3436 956 
Q 3884 1394 3884 2338 
Q 3884 3275 3436 3711 
Q 2988 4147 2022 4147 
L 1259 4147 
z
M 628 4666 
L 1925 4666 
Q 3281 4666 3915 4102 
Q 4550 3538 4550 2338 
Q 4550 1131 3912 565 
Q 3275 0 1925 0 
L 628 0 
L 628 4666 
z
" transform="scale(0.015625)"/>
      </defs>
      <use xlink:href="#DejaVuSans-45"/>
      <use xlink:href="#DejaVuSans-78" x="63.183594"/>
      <use xlink:href="#DejaVuSans-70" x="122.363281"/>
      <use xlink:href="#DejaVuSans-65" x="185.839844"/>
      <use xlink:href="#DejaVuSans-72" x="247.363281"/>
      <use xlink:href="#DejaVuSans-69" x="288.476562"/>
      <use xlink:href="#DejaVuSans-6d" x="316.259766"/>
      <use xlink:href="#DejaVuSans-65" x="413.671875"/>
      <use xlink:href="#DejaVuSans-6e" x="475.195312"/>
      <use xlink:href="#DejaVuSans-74" x="538.574219"/>
      <use xlink:href="#DejaVuSans-61" x="577.783203"/>
      <use xlink:href="#DejaVuSans-6c" x="639.0625"/>
      <use xlink:href="#DejaVuSans-20" x="666.845703"/>
      <use xlink:href="#DejaVuSans-44" x="698.632812"/>
      <use xlink:href="#DejaVuSans-61" x="775.634766"/>
      <use xlink:href="#DejaVuSans-74" x="836.914062"/>
      <use xlink:href="#DejaVuSans-61" x="876.123047"/>
     </g>
    </g>
    <g id="line2d_42">
     <path d="M 432.69952 79.946574 
L 442.69952 79.946574 
L 452.69952 79.946574 
" style="fill: none; stroke-dasharray: 5.55,2.4; stroke-dashoffset: 0; stroke: #346aa9; stroke-width: 1.5"/>
    </g>
    <g id="text_23">
     <!-- Fit: -->
     <g transform="translate(460.69952 71.208917) scale(0.1 -0.1)">
      <defs>
       <path id="DejaVuSans-3a" d="M 750 794 
L 1409 794 
L 1409 0 
L 750 0 
L 750 794 
z
M 750 3309 
L 1409 3309 
L 1409 2516 
L 750 2516 
L 750 3309 
z
" transform="scale(0.015625)"/>
      </defs>
      <use xlink:href="#DejaVuSans-46"/>
      <use xlink:href="#DejaVuSans-69" x="50.269531"/>
      <use xlink:href="#DejaVuSans-74" x="78.052734"/>
      <use xlink:href="#DejaVuSans-3a" x="117.261719"/>
     </g>
     <!-- $QY_{fwd}$: 1.000 ± 0.001 -->
     <g transform="translate(460.69952 82.40673) scale(0.1 -0.1)">
      <defs>
       <path id="DejaVuSans-Oblique-51" d="M 2309 -84 
Q 2275 -88 2237 -89 
Q 2200 -91 2125 -91 
Q 1250 -91 756 411 
Q 263 913 263 1797 
Q 263 2319 452 2844 
Q 641 3369 978 3788 
Q 1369 4269 1858 4509 
Q 2347 4750 2938 4750 
Q 3794 4750 4287 4245 
Q 4781 3741 4781 2869 
Q 4781 1928 4265 1147 
Q 3750 366 2919 44 
L 3553 -825 
L 2847 -825 
L 2309 -84 
z
M 2919 4238 
Q 2400 4238 2003 3986 
Q 1606 3734 1313 3219 
Q 1125 2891 1026 2522 
Q 928 2153 928 1778 
Q 928 1128 1239 775 
Q 1550 422 2119 422 
Q 2631 422 3032 676 
Q 3434 931 3719 1434 
Q 3909 1772 4009 2142 
Q 4109 2513 4109 2881 
Q 4109 3528 3796 3883 
Q 3484 4238 2919 4238 
z
" transform="scale(0.015625)"/>
       <path id="DejaVuSans-Oblique-59" d="M 403 4666 
L 1081 4666 
L 1953 2747 
L 3616 4666 
L 4325 4666 
L 2209 2222 
L 1778 0 
L 1147 0 
L 1575 2222 
L 403 4666 
z
" transform="scale(0.015625)"/>
       <path id="DejaVuSans-Oblique-66" d="M 3059 4863 
L 2969 4384 
L 2419 4384 
Q 2106 4384 1964 4261 
Q 1822 4138 1753 3809 
L 1691 3500 
L 2638 3500 
L 2553 3053 
L 1606 3053 
L 1013 0 
L 434 0 
L 1031 3053 
L 481 3053 
L 563 3500 
L 1113 3500 
L 1159 3744 
Q 1278 4363 1576 4613 
Q 1875 4863 2516 4863 
L 3059 4863 
z
" transform="scale(0.015625)"/>
       <path id="DejaVuSans-Oblique-77" d="M 544 3500 
L 1113 3500 
L 1259 684 
L 2566 3500 
L 3231 3500 
L 3425 684 
L 4666 3500 
L 5241 3500 
L 3641 0 
L 2969 0 
L 2797 2900 
L 1459 0 
L 781 0 
L 544 3500 
z
" transform="scale(0.015625)"/>
       <path id="DejaVuSans-Oblique-64" d="M 2675 525 
Q 2444 222 2128 65 
Q 1813 -91 1428 -91 
Q 903 -91 598 267 
Q 294 625 294 1247 
Q 294 1766 478 2236 
Q 663 2706 1013 3078 
Q 1244 3325 1534 3454 
Q 1825 3584 2144 3584 
Q 2481 3584 2739 3421 
Q 2997 3259 3138 2956 
L 3513 4863 
L 4091 4863 
L 3144 0 
L 2566 0 
L 2675 525 
z
M 891 1350 
Q 891 897 1095 644 
Q 1300 391 1663 391 
Q 1931 391 2161 520 
Q 2391 650 2566 903 
Q 2750 1166 2856 1509 
Q 2963 1853 2963 2188 
Q 2963 2622 2758 2865 
Q 2553 3109 2194 3109 
Q 1922 3109 1687 2981 
Q 1453 2853 1288 2613 
Q 1106 2353 998 2009 
Q 891 1666 891 1350 
z
" transform="scale(0.015625)"/>
       <path id="DejaVuSans-b1" d="M 2944 4013 
L 2944 2803 
L 4684 2803 
L 4684 2272 
L 2944 2272 
L 2944 1063 
L 2419 1063 
L 2419 2272 
L 678 2272 
L 678 2803 
L 2419 2803 
L 2419 4013 
L 2944 4013 
z
M 678 531 
L 4684 531 
L 4684 0 
L 678 0 
L 678 531 
z
" transform="scale(0.015625)"/>
      </defs>
      <use xlink:href="#DejaVuSans-Oblique-51" transform="translate(0 0.78125)"/>
      <use xlink:href="#DejaVuSans-Oblique-59" transform="translate(78.710938 0.78125)"/>
      <use xlink:href="#DejaVuSans-Oblique-66" transform="translate(139.794922 -15.625) scale(0.7)"/>
      <use xlink:href="#DejaVuSans-Oblique-77" transform="translate(164.438477 -15.625) scale(0.7)"/>
      <use xlink:href="#DejaVuSans-Oblique-64" transform="translate(221.689453 -15.625) scale(0.7)"/>
      <use xlink:href="#DejaVuSans-3a" transform="translate(268.857422 0.78125)"/>
      <use xlink:href="#DejaVuSans-20" transform="translate(302.548828 0.78125)"/>
      <use xlink:href="#DejaVuSans-31" transform="translate(334.335938 0.78125)"/>
      <use xlink:href="#DejaVuSans-2e" transform="translate(397.958984 0.78125)"/>
      <use xlink:href="#DejaVuSans-30" transform="translate(429.746094 0.78125)"/>
      <use xlink:href="#DejaVuSans-30" transform="translate(493.369141 0.78125)"/>
      <use xlink:href="#DejaVuSans-30" transform="translate(556.992188 0.78125)"/>
      <use xlink:href="#DejaVuSans-20" transform="translate(620.615234 0.78125)"/>
      <use xlink:href="#DejaVuSans-b1" transform="translate(652.402344 0.78125)"/>
      <use xlink:href="#DejaVuSans-20" transform="translate(736.191406 0.78125)"/>
      <use xlink:href="#DejaVuSans-30" transform="translate(767.978516 0.78125)"/>
      <use xlink:href="#DejaVuSans-2e" transform="translate(831.601562 0.78125)"/>
      <use xlink:href="#DejaVuSans-30" transform="translate(863.388672 0.78125)"/>
      <use xlink:href="#DejaVuSans-30" transform="translate(927.011719 0.78125)"/>
      <use xlink:href="#DejaVuSans-31" transform="translate(990.634766 0.78125)"/>
     </g>
     <!-- $QY_{bwd}$: 0.000 ± 0.020 -->
     <g transform="translate(460.69952 93.604542) scale(0.1 -0.1)">
      <defs>
       <path id="DejaVuSans-Oblique-62" d="M 3169 2138 
Q 3169 2591 2961 2847 
Q 2753 3103 2388 3103 
Q 2122 3103 1889 2973 
Q 1656 2844 1484 2597 
Q 1303 2338 1198 1995 
Q 1094 1653 1094 1313 
Q 1094 881 1298 636 
Q 1503 391 1863 391 
Q 2134 391 2365 517 
Q 2597 644 2772 891 
Q 2950 1147 3059 1487 
Q 3169 1828 3169 2138 
z
M 1381 2969 
Q 1594 3256 1914 3420 
Q 2234 3584 2584 3584 
Q 3122 3584 3439 3221 
Q 3756 2859 3756 2241 
Q 3756 1734 3570 1259 
Q 3384 784 3041 416 
Q 2816 172 2522 40 
Q 2228 -91 1906 -91 
Q 1566 -91 1316 65 
Q 1066 222 909 531 
L 806 0 
L 231 0 
L 1178 4863 
L 1753 4863 
L 1381 2969 
z
" transform="scale(0.015625)"/>
      </defs>
      <use xlink:href="#DejaVuSans-Oblique-51" transform="translate(0 0.78125)"/>
      <use xlink:href="#DejaVuSans-Oblique-59" transform="translate(78.710938 0.78125)"/>
      <use xlink:href="#DejaVuSans-Oblique-62" transform="translate(139.794922 -15.625) scale(0.7)"/>
      <use xlink:href="#DejaVuSans-Oblique-77" transform="translate(184.228516 -15.625) scale(0.7)"/>
      <use xlink:href="#DejaVuSans-Oblique-64" transform="translate(241.479492 -15.625) scale(0.7)"/>
      <use xlink:href="#DejaVuSans-3a" transform="translate(288.647461 0.78125)"/>
      <use xlink:href="#DejaVuSans-20" transform="translate(322.338867 0.78125)"/>
      <use xlink:href="#DejaVuSans-30" transform="translate(354.125977 0.78125)"/>
      <use xlink:href="#DejaVuSans-2e" transform="translate(417.749023 0.78125)"/>
      <use xlink:href="#DejaVuSans-30" transform="translate(449.536133 0.78125)"/>
      <use xlink:href="#DejaVuSans-30" transform="translate(513.15918 0.78125)"/>
      <use xlink:href="#DejaVuSans-30" transform="translate(576.782227 0.78125)"/>
      <use xlink:href="#DejaVuSans-20" transform="translate(640.405273 0.78125)"/>
      <use xlink:href="#DejaVuSans-b1" transform="translate(672.192383 0.78125)"/>
      <use xlink:href="#DejaVuSans-20" transform="translate(755.981445 0.78125)"/>
      <use xlink:href="#DejaVuSans-30" transform="translate(787.768555 0.78125)"/>
      <use xlink:href="#DejaVuSans-2e" transform="translate(851.391602 0.78125)"/>
      <use xlink:href="#DejaVuSans-30" transform="translate(883.178711 0.78125)"/>
      <use xlink:href="#DejaVuSans-32" transform="translate(946.801758 0.78125)"/>
      <use xlink:href="#DejaVuSans-30" transform="translate(1010.424805 0.78125)"/>
     </g>
    </g>
   </g>
  </g>
  <g id="axes_3">
   <g id="patch_12">
    <path d="M 379.935698 258.84327 
L 577.19952 258.84327 
L 577.19952 213.574468 
L 379.935698 213.574468 
z
" style="fill: #ffffff"/>
   </g>
   <g id="matplotlib.axis_5">
    <g id="xtick_17">
     <g id="line2d_43">
      <g>
       <use xlink:href="#m6b5df957e4" x="388.871743" y="258.84327" style="stroke: #000000; stroke-width: 0.8"/>
      </g>
     </g>
     <g id="text_24">
      <!-- 0 -->
      <g transform="translate(385.690493 273.441707) scale(0.1 -0.1)">
       <use xlink:href="#DejaVuSans-30"/>
      </g>
     </g>
    </g>
    <g id="xtick_18">
     <g id="line2d_44">
      <g>
       <use xlink:href="#m6b5df957e4" x="437.272144" y="258.84327" style="stroke: #000000; stroke-width: 0.8"/>
      </g>
     </g>
     <g id="text_25">
      <!-- 100 -->
      <g transform="translate(427.728394 273.441707) scale(0.1 -0.1)">
       <use xlink:href="#DejaVuSans-31"/>
       <use xlink:href="#DejaVuSans-30" x="63.623047"/>
       <use xlink:href="#DejaVuSans-30" x="127.246094"/>
      </g>
     </g>
    </g>
    <g id="xtick_19">
     <g id="line2d_45">
      <g>
       <use xlink:href="#m6b5df957e4" x="485.672546" y="258.84327" style="stroke: #000000; stroke-width: 0.8"/>
      </g>
     </g>
     <g id="text_26">
      <!-- 200 -->
      <g transform="translate(476.128796 273.441707) scale(0.1 -0.1)">
       <use xlink:href="#DejaVuSans-32"/>
       <use xlink:href="#DejaVuSans-30" x="63.623047"/>
       <use xlink:href="#DejaVuSans-30" x="127.246094"/>
      </g>
     </g>
    </g>
    <g id="xtick_20">
     <g id="line2d_46">
      <g>
       <use xlink:href="#m6b5df957e4" x="534.072947" y="258.84327" style="stroke: #000000; stroke-width: 0.8"/>
      </g>
     </g>
     <g id="text_27">
      <!-- 300 -->
      <g transform="translate(524.529197 273.441707) scale(0.1 -0.1)">
       <use xlink:href="#DejaVuSans-33"/>
       <use xlink:href="#DejaVuSans-30" x="63.623047"/>
       <use xlink:href="#DejaVuSans-30" x="127.246094"/>
      </g>
     </g>
    </g>
    <g id="xtick_21">
     <g id="line2d_47">
      <g>
       <use xlink:href="#mb4c624a6ea" x="413.071943" y="258.84327" style="stroke: #000000; stroke-width: 0.6"/>
      </g>
     </g>
    </g>
    <g id="xtick_22">
     <g id="line2d_48">
      <g>
       <use xlink:href="#mb4c624a6ea" x="461.472345" y="258.84327" style="stroke: #000000; stroke-width: 0.6"/>
      </g>
     </g>
    </g>
    <g id="xtick_23">
     <g id="line2d_49">
      <g>
       <use xlink:href="#mb4c624a6ea" x="509.872746" y="258.84327" style="stroke: #000000; stroke-width: 0.6"/>
      </g>
     </g>
    </g>
    <g id="xtick_24">
     <g id="line2d_50">
      <g>
       <use xlink:href="#mb4c624a6ea" x="558.273148" y="258.84327" style="stroke: #000000; stroke-width: 0.6"/>
      </g>
     </g>
    </g>
    <g id="text_28">
     <!-- Time (s) -->
     <g transform="translate(458.238702 287.119832) scale(0.1 -0.1)">
      <use xlink:href="#DejaVuSans-54"/>
      <use xlink:href="#DejaVuSans-69" x="57.958984"/>
      <use xlink:href="#DejaVuSans-6d" x="85.742188"/>
      <use xlink:href="#DejaVuSans-65" x="183.154297"/>
      <use xlink:href="#DejaVuSans-20" x="244.677734"/>
      <use xlink:href="#DejaVuSans-28" x="276.464844"/>
      <use xlink:href="#DejaVuSans-73" x="315.478516"/>
      <use xlink:href="#DejaVuSans-29" x="367.578125"/>
     </g>
    </g>
   </g>
   <g id="matplotlib.axis_6">
    <g id="ytick_19">
     <g id="line2d_51">
      <g>
       <use xlink:href="#medcf5dc1f5" x="379.935698" y="239.098882" style="stroke: #000000; stroke-width: 0.8"/>
      </g>
     </g>
     <g id="text_29">
      <!-- 0.002 -->
      <g transform="translate(344.307572 242.898101) scale(0.1 -0.1)">
       <use xlink:href="#DejaVuSans-30"/>
       <use xlink:href="#DejaVuSans-2e" x="63.623047"/>
       <use xlink:href="#DejaVuSans-30" x="95.410156"/>
       <use xlink:href="#DejaVuSans-30" x="159.033203"/>
       <use xlink:href="#DejaVuSans-32" x="222.65625"/>
      </g>
     </g>
    </g>
    <g id="ytick_20">
     <g id="line2d_52">
      <g>
       <use xlink:href="#medcf5dc1f5" x="379.935698" y="215.893413" style="stroke: #000000; stroke-width: 0.8"/>
      </g>
     </g>
     <g id="text_30">
      <!-- 0.004 -->
      <g transform="translate(344.307572 219.692632) scale(0.1 -0.1)">
       <use xlink:href="#DejaVuSans-30"/>
       <use xlink:href="#DejaVuSans-2e" x="63.623047"/>
       <use xlink:href="#DejaVuSans-30" x="95.410156"/>
       <use xlink:href="#DejaVuSans-30" x="159.033203"/>
       <use xlink:href="#DejaVuSans-34" x="222.65625"/>
      </g>
     </g>
    </g>
    <g id="ytick_21">
     <g id="line2d_53">
      <g>
       <use xlink:href="#mb24ff80798" x="379.935698" y="250.701616" style="stroke: #000000; stroke-width: 0.6"/>
      </g>
     </g>
    </g>
    <g id="ytick_22">
     <g id="line2d_54">
      <g>
       <use xlink:href="#mb24ff80798" x="379.935698" y="227.496148" style="stroke: #000000; stroke-width: 0.6"/>
      </g>
     </g>
    </g>
    <g id="text_31">
     <!-- Residuals Abs -->
     <g transform="translate(338.227885 270.717463) rotate(-90) scale(0.1 -0.1)">
      <use xlink:href="#DejaVuSans-52"/>
      <use xlink:href="#DejaVuSans-65" x="64.982422"/>
      <use xlink:href="#DejaVuSans-73" x="126.505859"/>
      <use xlink:href="#DejaVuSans-69" x="178.605469"/>
      <use xlink:href="#DejaVuSans-64" x="206.388672"/>
      <use xlink:href="#DejaVuSans-75" x="269.865234"/>
      <use xlink:href="#DejaVuSans-61" x="333.244141"/>
      <use xlink:href="#DejaVuSans-6c" x="394.523438"/>
      <use xlink:href="#DejaVuSans-73" x="422.306641"/>
      <use xlink:href="#DejaVuSans-20" x="474.40625"/>
      <use xlink:href="#DejaVuSans-41" x="506.193359"/>
      <use xlink:href="#DejaVuSans-62" x="574.601562"/>
      <use xlink:href="#DejaVuSans-73" x="638.078125"/>
     </g>
    </g>
   </g>
   <g id="line2d_55">
    <path d="M 388.902235 228.02192 
L 391.405504 220.265795 
L 393.908772 215.632141 
L 396.396553 226.007732 
L 398.884818 233.371731 
L 401.372598 230.89961 
L 403.868607 234.950909 
L 406.356388 228.192001 
L 408.867401 218.168732 
L 411.355181 229.396834 
L 413.843446 244.778059 
L 416.33171 238.933085 
L 418.819491 239.402459 
L 421.32276 237.475842 
L 423.811024 227.407293 
L 426.298805 233.788387 
L 428.78707 243.599872 
L 431.275334 238.860254 
L 433.763115 244.031366 
L 436.25138 243.722797 
L 438.754648 224.02199 
L 441.242429 244.013407 
L 443.730694 241.727707 
L 446.218958 238.614358 
L 448.714483 235.798661 
L 451.202748 238.825254 
L 453.690528 246.093833 
L 456.186053 250.380337 
L 458.674318 247.838661 
L 461.162582 244.542982 
L 463.650363 240.681934 
L 466.138628 240.72778 
L 468.626892 235.06301 
L 471.114673 240.429214 
L 473.610198 230.932855 
L 476.098462 231.049058 
L 478.586727 239.799009 
L 481.074508 247.944213 
L 483.570516 255.520554 
L 486.058297 238.623336 
L 488.546562 237.931815 
L 491.04983 248.139595 
L 493.537611 249.505442 
L 496.025876 247.137577 
L 498.51414 239.406446 
L 501.001921 233.295853 
L 503.490186 239.820227 
L 505.977966 247.174755 
L 508.466231 244.951659 
L 510.954495 246.810877 
L 513.442276 240.955402 
L 515.930541 256.016664 
L 518.418805 252.159094 
L 520.91433 242.725235 
L 523.402111 239.130486 
L 525.890375 256.785597 
L 528.37864 249.164397 
L 530.866421 248.883068 
L 533.354685 256.257942 
L 535.84295 252.170045 
L 538.330731 242.886511 
L 540.818995 245.82484 
L 543.306776 250.14969 
L 545.79504 254.192051 
L 548.283305 241.349509 
L 550.771086 256.432359 
L 553.25935 245.535632 
L 555.754875 246.984795 
L 558.24314 242.761281 
L 560.73092 246.082283 
L 563.226929 249.500222 
L 565.722454 241.927678 
L 568.232983 246.402861 
" clip-path="url(#p1ec5065280)" style="fill: none; stroke: #e16203; stroke-width: 1.5; stroke-linecap: square"/>
   </g>
   <g id="patch_13">
    <path d="M 379.935698 258.84327 
L 379.935698 213.574468 
" style="fill: none; stroke: #000000; stroke-width: 0.8; stroke-linejoin: miter; stroke-linecap: square"/>
   </g>
   <g id="patch_14">
    <path d="M 577.19952 258.84327 
L 577.19952 213.574468 
" style="fill: none; stroke: #000000; stroke-width: 0.8; stroke-linejoin: miter; stroke-linecap: square"/>
   </g>
   <g id="patch_15">
    <path d="M 379.935698 258.84327 
L 577.19952 258.84327 
" style="fill: none; stroke: #000000; stroke-width: 0.8; stroke-linejoin: miter; stroke-linecap: square"/>
   </g>
   <g id="patch_16">
    <path d="M 379.935698 213.574468 
L 577.19952 213.574468 
" style="fill: none; stroke: #000000; stroke-width: 0.8; stroke-linejoin: miter; stroke-linecap: square"/>
   </g>
  </g>
  <g id="axes_4"/>
  <g id="text_32">
   <!-- 455 nm irradiation: Integration Method -->
   <g transform="translate(175.06851 16.318125) scale(0.12 -0.12)">
    <defs>
     <path id="DejaVuSans-35" d="M 691 4666 
L 3169 4666 
L 3169 4134 
L 1269 4134 
L 1269 2991 
Q 1406 3038 1543 3061 
Q 1681 3084 1819 3084 
Q 2600 3084 3056 2656 
Q 3513 2228 3513 1497 
Q 3513 744 3044 326 
Q 2575 -91 1722 -91 
Q 1428 -91 1123 -41 
Q 819 9 494 109 
L 494 744 
Q 775 591 1075 516 
Q 1375 441 1709 441 
Q 2250 441 2565 725 
Q 2881 1009 2881 1497 
Q 2881 1984 2565 2268 
Q 2250 2553 1709 2553 
Q 1456 2553 1204 2497 
Q 953 2441 691 2322 
L 691 4666 
z
" transform="scale(0.015625)"/>
     <path id="DejaVuSans-49" d="M 628 4666 
L 1259 4666 
L 1259 0 
L 628 0 
L 628 4666 
z
" transform="scale(0.015625)"/>
     <path id="DejaVuSans-67" d="M 2906 1791 
Q 2906 2416 2648 2759 
Q 2391 3103 1925 3103 
Q 1463 3103 1205 2759 
Q 947 2416 947 1791 
Q 947 1169 1205 825 
Q 1463 481 1925 481 
Q 2391 481 2648 825 
Q 2906 1169 2906 1791 
z
M 3481 434 
Q 3481 -459 3084 -895 
Q 2688 -1331 1869 -1331 
Q 1566 -1331 1297 -1286 
Q 1028 -1241 775 -1147 
L 775 -588 
Q 1028 -725 1275 -790 
Q 1522 -856 1778 -856 
Q 2344 -856 2625 -561 
Q 2906 -266 2906 331 
L 2906 616 
Q 2728 306 2450 153 
Q 2172 0 1784 0 
Q 1141 0 747 490 
Q 353 981 353 1791 
Q 353 2603 747 3093 
Q 1141 3584 1784 3584 
Q 2172 3584 2450 3431 
Q 2728 3278 2906 2969 
L 2906 3500 
L 3481 3500 
L 3481 434 
z
" transform="scale(0.015625)"/>
     <path id="DejaVuSans-4d" d="M 628 4666 
L 1569 4666 
L 2759 1491 
L 3956 4666 
L 4897 4666 
L 4897 0 
L 4281 0 
L 4281 4097 
L 3078 897 
L 2444 897 
L 1241 4097 
L 1241 0 
L 628 0 
L 628 4666 
z
" transform="scale(0.015625)"/>
     <path id="DejaVuSans-68" d="M 3513 2113 
L 3513 0 
L 2938 0 
L 2938 2094 
Q 2938 2591 2744 2837 
Q 2550 3084 2163 3084 
Q 1697 3084 1428 2787 
Q 1159 2491 1159 1978 
L 1159 0 
L 581 0 
L 581 4863 
L 1159 4863 
L 1159 2956 
Q 1366 3272 1645 3428 
Q 1925 3584 2291 3584 
Q 2894 3584 3203 3211 
Q 3513 2838 3513 2113 
z
" transform="scale(0.015625)"/>
    </defs>
    <use xlink:href="#DejaVuSans-34"/>
    <use xlink:href="#DejaVuSans-35" x="63.623047"/>
    <use xlink:href="#DejaVuSans-35" x="127.246094"/>
    <use xlink:href="#DejaVuSans-20" x="190.869141"/>
    <use xlink:href="#DejaVuSans-6e" x="222.65625"/>
    <use xlink:href="#DejaVuSans-6d" x="286.035156"/>
    <use xlink:href="#DejaVuSans-20" x="383.447266"/>
    <use xlink:href="#DejaVuSans-69" x="415.234375"/>
    <use xlink:href="#DejaVuSans-72" x="443.017578"/>
    <use xlink:href="#DejaVuSans-72" x="482.380859"/>
    <use xlink:href="#DejaVuSans-61" x="523.494141"/>
    <use xlink:href="#DejaVuSans-64" x="584.773438"/>
    <use xlink:href="#DejaVuSans-69" x="648.25"/>
    <use xlink:href="#DejaVuSans-61" x="676.033203"/>
    <use xlink:href="#DejaVuSans-74" x="737.3125"/>
    <use xlink:href="#DejaVuSans-69" x="776.521484"/>
    <use xlink:href="#DejaVuSans-6f" x="804.304688"/>
    <use xlink:href="#DejaVuSans-6e" x="865.486328"/>
    <use xlink:href="#DejaVuSans-3a" x="928.865234"/>
    <use xlink:href="#DejaVuSans-20" x="962.556641"/>
    <use xlink:href="#DejaVuSans-49" x="994.34375"/>
    <use xlink:href="#DejaVuSans-6e" x="1023.835938"/>
    <use xlink:href="#DejaVuSans-74" x="1087.214844"/>
    <use xlink:href="#DejaVuSans-65" x="1126.423828"/>
    <use xlink:href="#DejaVuSans-67" x="1187.947266"/>
    <use xlink:href="#DejaVuSans-72" x="1251.423828"/>
    <use xlink:href="#DejaVuSans-61" x="1292.537109"/>
    <use xlink:href="#DejaVuSans-74" x="1353.816406"/>
    <use xlink:href="#DejaVuSans-69" x="1393.025391"/>
    <use xlink:href="#DejaVuSans-6f" x="1420.808594"/>
    <use xlink:href="#DejaVuSans-6e" x="1481.990234"/>
    <use xlink:href="#DejaVuSans-20" x="1545.369141"/>
    <use xlink:href="#DejaVuSans-4d" x="1577.15625"/>
    <use xlink:href="#DejaVuSans-65" x="1663.435547"/>
    <use xlink:href="#DejaVuSans-74" x="1724.958984"/>
    <use xlink:href="#DejaVuSans-68" x="1764.167969"/>
    <use xlink:href="#DejaVuSans-6f" x="1827.546875"/>
    <use xlink:href="#DejaVuSans-64" x="1888.728516"/>
   </g>
  </g>
 </g>
 <defs>
  <clipPath id="p5deffe2b33">
   <rect x="46.965625" y="39.932355" width="197.263822" height="135.806406"/>
  </clipPath>
  <clipPath id="p513aa3a11e">
   <rect x="379.935698" y="39.932355" width="197.263823" height="135.806406"/>
  </clipPath>
  <clipPath id="p1ec5065280">
   <rect x="379.935698" y="213.574468" width="197.263823" height="45.268802"/>
  </clipPath>
 </defs>
</svg>
